<?xml version="1.0" encoding="utf-8"?>
<!-- Generator: Adobe Illustrator 17.0.0, SVG Export Plug-In . SVG Version: 6.00 Build 0)  -->
<!DOCTYPE svg PUBLIC "-//W3C//DTD SVG 1.1//EN" "https://www.w3.org/Graphics/SVG/1.1/DTD/svg11.dtd">
<svg version="1.1" xmlns="https://www.w3.org/2000/svg" xmlns:xlink="https://www.w3.org/1999/xlink" x="0px" y="0px" width="36.85px"
	 height="27.648px" viewBox="0 0 36.85 27.648" enable-background="new 0 0 36.85 27.648" xml:space="preserve">
<g id="KILLED" display="none">
</g>
<g id="Layer_1">
	<g>
		<path fill="#F2F2F2" d="M18.42,0c5.32,0,10.639,0.001,15.959,0c1.464,0,2.437,0.951,2.462,2.417
			c0.008,0.491,0.001,0.982,0.001,1.473c0,7.065-0.01,14.131,0.008,21.196c0.004,1.544-0.941,2.321-1.92,2.527
			c-0.145,0.03-0.298,0.034-0.447,0.034c-10.707,0.001-21.415,0.002-32.122,0.001c-1.313,0-2.273-0.927-2.357-2.273
			C-0.001,25.279,0,25.184,0,25.088c0-7.516-0.001-15.031,0.001-22.547c0-1.347,0.698-2.268,1.892-2.502
			C2.051,0.008,2.217,0.002,2.38,0.002C7.727,0,13.073,0,18.42,0z M2.473,25.154c9.206,0,19.391,0,28.591,0c0-6.9,0-15.768,0-22.661
			c-9.21,0-19.395,0-28.591,0C2.473,9.393,2.473,18.263,2.473,25.154z M33.977,11.824c-1.112-0.005-1.996,0.863-2.01,1.974
			c-0.014,1.114,0.857,2.016,1.957,2.026c1.127,0.011,2.04-0.883,2.043-1.997C35.969,12.733,35.071,11.829,33.977,11.824z"/>
	</g>
	<g>
		<path fill="#F2F2F2" d="M18.046,19.904c0,0.24-0.1,0.45-0.3,0.63s-0.434,0.27-0.7,0.27c-0.227,0-0.399-0.05-0.52-0.149
			c-0.12-0.101-0.214-0.243-0.28-0.43l-1.48-4.021h-4.46l-1.64,4.021c-0.08,0.187-0.197,0.323-0.35,0.409
			c-0.153,0.087-0.311,0.13-0.471,0.13c-0.253,0-0.483-0.083-0.689-0.25c-0.207-0.166-0.311-0.376-0.311-0.63
			c0-0.12,0.027-0.239,0.08-0.359l4.86-11.9c0.187-0.507,0.473-0.76,0.86-0.76c0.159,0,0.316,0.063,0.47,0.189
			c0.153,0.127,0.283,0.317,0.39,0.57l4.46,11.92C18.02,19.638,18.046,19.758,18.046,19.904z M14.086,14.364l-1.439-3.9l-1.62,3.9
			H14.086z"/>
		<path fill="#F2F2F2" d="M26.747,19.884c0,0.627-0.287,0.94-0.86,0.94c-0.267,0-0.493-0.093-0.68-0.28
			c-0.187-0.187-0.28-0.406-0.28-0.66c-0.547,0.587-1.14,0.88-1.779,0.88c-0.547,0-1.051-0.1-1.511-0.3s-0.856-0.47-1.189-0.81
			c-0.334-0.34-0.597-0.743-0.79-1.21s-0.29-0.974-0.29-1.521c0-0.533,0.097-1.04,0.29-1.52c0.193-0.48,0.456-0.896,0.79-1.25
			c0.333-0.354,0.729-0.633,1.189-0.84s0.964-0.311,1.511-0.311c0.64,0,1.232,0.294,1.779,0.88c0-0.293,0.07-0.51,0.21-0.649
			c0.141-0.141,0.37-0.21,0.69-0.21c0.613,0,0.92,0.286,0.92,0.859V19.884z M24.907,16.904c0-0.601-0.157-1.094-0.47-1.48
			c-0.313-0.387-0.75-0.58-1.311-0.58c-0.573,0-1.033,0.193-1.38,0.58s-0.52,0.88-0.52,1.48c0,0.573,0.173,1.06,0.52,1.46
			c0.347,0.399,0.807,0.6,1.38,0.6c0.561,0,0.997-0.2,1.311-0.6C24.749,17.964,24.907,17.477,24.907,16.904z"/>
	</g>
</g>
</svg>
