<?xml version="1.0" encoding="utf-8"?>
<!-- Generator: Adobe Illustrator 17.0.0, SVG Export Plug-In . SVG Version: 6.00 Build 0)  -->
<!DOCTYPE svg PUBLIC "-//W3C//DTD SVG 1.1//EN" "https://www.w3.org/Graphics/SVG/1.1/DTD/svg11.dtd">
<svg version="1.1" xmlns="https://www.w3.org/2000/svg" xmlns:xlink="https://www.w3.org/1999/xlink" x="0px" y="0px" width="33.93px"
	 height="40.052px" viewBox="0 0 33.93 40.052" enable-background="new 0 0 33.93 40.052" xml:space="preserve">
<g id="KILLED" display="none">
</g>
<g id="Layer_1">
	<g>
		<path fill="#F2F2F2" d="M33.834,23.611c-0.535-3.645-3.178-5.499-5.977-7.445c-0.961-0.669-0.182-2.036,0.11-2.85
			c1.183-3.306,2.17-7.849-0.511-10.722c-0.794-0.85-1.964-1.523-3.048-1.909c-2.14-0.762-5.034-0.809-7.261-0.522
			c-7.507,0.97-12.407,6.822-15.032,13.5c-2.174,5.531-3.365,14.48-0.077,19.943c1.108,1.841,3.024,3.667,4.878,4.731
			c3.436,1.972,7.978,2.031,11.769,1.237c1.71-0.358,3.429-1.042,4.966-1.86C28.635,35.064,34.771,29.987,33.834,23.611z
			 M3.527,22.126c0-1.616,1.31-2.925,2.925-2.925c1.615,0,2.925,1.309,2.925,2.925c0,1.615-1.31,2.925-2.925,2.925
			C4.836,25.051,3.527,23.741,3.527,22.126z M7.991,33.948c-1.615,0-2.925-1.31-2.925-2.925c0-1.616,1.31-2.925,2.925-2.925
			c1.615,0,2.925,1.309,2.925,2.925C10.916,32.638,9.606,33.948,7.991,33.948z M10.118,15.952c-1.615,0-2.925-1.309-2.925-2.925
			c0-1.615,1.31-2.925,2.925-2.925c1.615,0,2.925,1.31,2.925,2.925C13.043,14.643,11.734,15.952,10.118,15.952z M14.503,7.177
			c0-1.615,1.31-2.925,2.925-2.925c1.615,0,2.925,1.31,2.925,2.925c0,1.616-1.31,2.925-2.925,2.925
			C15.812,10.102,14.503,8.793,14.503,7.177z M22.599,30.907c-1.859,1.858-4.531,2.199-5.97,0.761
			c-1.438-1.438-1.098-4.111,0.761-5.97c1.859-1.858,4.531-2.199,5.97-0.761C24.798,26.376,24.458,29.048,22.599,30.907z"/>
	</g>
</g>
</svg>
