<?xml version="1.0" encoding="utf-8"?>
<!-- Generator: Adobe Illustrator 17.0.0, SVG Export Plug-In . SVG Version: 6.00 Build 0)  -->
<!DOCTYPE svg PUBLIC "-//W3C//DTD SVG 1.1//EN" "https://www.w3.org/Graphics/SVG/1.1/DTD/svg11.dtd">
<svg version="1.1" xmlns="https://www.w3.org/2000/svg" xmlns:xlink="https://www.w3.org/1999/xlink" x="0px" y="0px" width="37.36px"
	 height="40.969px" viewBox="0 0 37.36 40.969" enable-background="new 0 0 37.36 40.969" xml:space="preserve">
<g id="KILLED" display="none">
</g>
<g id="Layer_1">
	<g>
		<circle fill="#F2F2F2" cx="27.926" cy="31.901" r="2.925"/>
		<circle fill="#F2F2F2" cx="21.75" cy="38.629" r="2.34"/>
		<path fill="#F2F2F2" d="M34.902,16.661c1.523-1.683,2.458-3.907,2.458-6.355c0-5.239-4.247-9.487-9.487-9.487
			c-2.697,0-5.125,1.131-6.852,2.937C20.409,1.594,18.442,0,16.083,0c-2.846,0-5.153,2.307-5.153,5.153
			c0,0.334,0.038,0.659,0.098,0.975C9.869,5.216,8.41,4.667,6.82,4.667C3.053,4.667,0,7.72,0,11.487c0,2.95,1.877,5.455,4.498,6.406
			c-0.64,1.039-1.015,2.258-1.015,3.567c0,3.767,3.053,6.82,6.82,6.82c2.478,0,4.641-1.326,5.835-3.303
			c1.249,1.408,3.067,2.301,5.098,2.301c2.765,0,5.14-1.648,6.211-4.013c0.853,1.668,2.569,2.821,4.571,2.821
			c2.846,0,5.153-2.307,5.153-5.153C37.171,19.155,36.271,17.588,34.902,16.661z"/>
	</g>
</g>
</svg>
