<?xml version="1.0" encoding="utf-8"?>
<!-- Generator: Adobe Illustrator 17.0.0, SVG Export Plug-In . SVG Version: 6.00 Build 0)  -->
<!DOCTYPE svg PUBLIC "-//W3C//DTD SVG 1.1//EN" "https://www.w3.org/Graphics/SVG/1.1/DTD/svg11.dtd">
<svg version="1.1" xmlns="https://www.w3.org/2000/svg" xmlns:xlink="https://www.w3.org/1999/xlink" x="0px" y="0px"
	 width="45.269px" height="31.732px" viewBox="0 0 45.269 31.732" enable-background="new 0 0 45.269 31.732" xml:space="preserve">
<g id="KILLED" display="none">
</g>
<g id="Layer_1">
	<g>
		<path fill="#F2F2F2" d="M37.433,28.939c0.059,0.002,0.117,0.005,0.176,0.005c3.83,0,7.66-1.058,7.66-3.174
			c0-3.617-2.51-7.676-5.88-8.782c1.373-0.866,2.326-2.683,2.326-4.803c0-2.959-1.839-5.359-4.109-5.359
			c-2.267,0-4.106,2.399-4.106,5.359c0,2.121,0.955,3.937,2.326,4.803c-0.462,0.151-0.905,0.361-1.331,0.615
			c2.048,2.601,3.278,5.85,3.278,9.323C37.774,27.637,37.65,28.306,37.433,28.939z"/>
		<path fill="#F2F2F2" d="M10.802,17.621c-0.434-0.26-0.887-0.48-1.357-0.633c1.371-0.866,2.324-2.683,2.324-4.803
			c0-2.959-1.837-5.359-4.106-5.359c-2.27,0-4.106,2.399-4.106,5.359c0,2.121,0.953,3.937,2.324,4.803
			C2.509,18.094,0,22.152,0,25.77c0,2.116,3.83,3.174,7.662,3.174c0.07,0,0.143-0.005,0.216-0.005
			c-0.216-0.633-0.34-1.303-0.34-2.013C7.538,23.459,8.761,20.219,10.802,17.621z"/>
		<path fill="#F2F2F2" d="M31.942,19.981c-0.356-0.478-0.75-0.925-1.176-1.341c-0.413-0.404-0.854-0.781-1.324-1.122
			c-1.277-0.923-2.751-1.597-4.346-1.938c2.223-1.236,3.782-4.113,3.782-7.466C28.877,3.633,26.094,0,22.655,0
			c-3.435,0-6.221,3.633-6.221,8.115c0,3.352,1.56,6.229,3.783,7.466c-1.609,0.343-3.09,1.024-4.376,1.956
			c-0.468,0.343-0.909,0.72-1.321,1.127c-0.426,0.418-0.816,0.868-1.172,1.348c-1.44,1.931-2.3,4.319-2.3,6.915
			c0,0.59,0.202,1.124,0.558,1.606c0.38,0.512,0.942,0.962,1.641,1.351c0.654,0.363,1.426,0.676,2.287,0.932
			c2.053,0.612,4.587,0.916,7.123,0.916c2.523,0,5.046-0.302,7.091-0.909c0.866-0.256,1.643-0.567,2.301-0.93
			c0.704-0.391,1.268-0.839,1.652-1.353c0.361-0.482,0.562-1.022,0.562-1.613C34.264,24.316,33.395,21.917,31.942,19.981z"/>
	</g>
</g>
</svg>
