<?xml version="1.0" encoding="utf-8"?>
<!-- Generator: Adobe Illustrator 17.0.0, SVG Export Plug-In . SVG Version: 6.00 Build 0)  -->
<!DOCTYPE svg PUBLIC "-//W3C//DTD SVG 1.1//EN" "https://www.w3.org/Graphics/SVG/1.1/DTD/svg11.dtd">
<svg version="1.1" xmlns="https://www.w3.org/2000/svg" xmlns:xlink="https://www.w3.org/1999/xlink" x="0px" y="0px"
	 width="42.459px" height="38.53px" viewBox="0 0 42.459 38.53" enable-background="new 0 0 42.459 38.53" xml:space="preserve">
<g id="KILLED" display="none">
</g>
<g id="Layer_1">
	<path fill="#F2F2F2" d="M42.409,10.794c-0.322-0.506-0.842-0.9-1.328-1.235c-1.696-1.172-3.647-1.697-5.694-1.802
		c-2.778-0.142-5.173,0.782-7.341,2.238c0.557-1.268,0.868-2.632,0.791-4.136c-0.086-1.684-0.518-3.289-1.482-4.684
		c-0.276-0.4-0.6-0.827-1.016-1.092c-0.629-0.4-1.408,0.781-1.693,1.136c-0.848,1.057-1.581,2.278-2.055,3.565
		c-0.616,1.672,0.35,3.085,1.302,4.386c0.27,0.368,0.538,0.744,0.77,1.138c0.647,1.098,0.071,2.349-0.879,3.197
		c-0.091,0.081-0.185,0.15-0.277,0.222c-1.555-1.183-5.526-3.368-9.826,0.933C7.969,20.369-0.676,32.411,0.042,38.488
		c6.077,0.718,18.119-7.927,23.83-13.638c4.182-4.182,2.228-8.059,1.029-9.7c0.277-0.38,0.795-1.096,0.934-1.252
		c1.031-1.155,2.809-1.855,4.144-1.069c0.479,0.282,0.935,0.608,1.383,0.936c1.581,1.158,3.417,1.726,5.575,1.538
		C39.71,15.063,42.896,11.558,42.409,10.794z"/>
</g>
</svg>
