<?xml version="1.0" encoding="utf-8"?>
<!-- Generator: Adobe Illustrator 17.0.0, SVG Export Plug-In . SVG Version: 6.00 Build 0)  -->
<!DOCTYPE svg PUBLIC "-//W3C//DTD SVG 1.1//EN" "https://www.w3.org/Graphics/SVG/1.1/DTD/svg11.dtd">
<svg version="1.1" xmlns="https://www.w3.org/2000/svg" xmlns:xlink="https://www.w3.org/1999/xlink" x="0px" y="0px"
	 width="44.364px" height="39.775px" viewBox="0 0 44.364 39.775" enable-background="new 0 0 44.364 39.775" xml:space="preserve">
<g id="KILLED" display="none">
</g>
<g id="Layer_1">
	<g>
		<g>
			<path fill="#F2F2F2" d="M5.774,4.026C4.779,3.901,3.756,3.812,2.67,3.812c0,0.524,0,1.284,0,2.191
				c8.353,0.492,14.212,3.2,17.593,5.326C17.805,8.797,12.983,4.931,5.774,4.026z"/>
			<path fill="#F2F2F2" d="M41.694,3.812c-1.085,0-2.109,0.089-3.103,0.214c-7.209,0.905-12.032,4.771-14.49,7.303
				c3.381-2.126,9.241-4.834,17.594-5.326C41.694,5.288,41.694,4.561,41.694,3.812z"/>
		</g>
		<g>
			<path fill="#F2F2F2" d="M22.981,9.334c2.848-2.813,8.029-6.661,15.609-7.522c0-0.592,0-1.193,0-1.813
				c-8.691,0-13.916,6.553-15.7,9.252C22.922,9.279,22.953,9.304,22.981,9.334z"/>
			<path fill="#F2F2F2" d="M21.473,9.252C19.689,6.553,14.465,0,5.774,0c0,0.435,0,1.063,0,1.813
				c7.58,0.86,12.761,4.708,15.609,7.522C21.411,9.304,21.442,9.279,21.473,9.252z"/>
			<path fill="#F2F2F2" d="M44.364,8.101c-0.919,0-1.808,0.029-2.67,0.083c-9.949,0.618-16.08,4.56-18.419,6.384v25.208
				c2.535-1.978,9.55-6.468,21.089-6.468C44.364,27.418,44.364,22.889,44.364,8.101z"/>
			<path fill="#F2F2F2" d="M2.67,8.184C1.808,8.13,0.919,8.101,0,8.101c0,4.124,0,15.595,0,25.206
				c11.539,0,18.554,4.49,21.089,6.468V14.568C18.75,12.744,12.619,8.802,2.67,8.184z"/>
		</g>
	</g>
</g>
</svg>
