<?xml version="1.0" encoding="utf-8"?>
<!-- Generator: Adobe Illustrator 17.0.0, SVG Export Plug-In . SVG Version: 6.00 Build 0)  -->
<!DOCTYPE svg PUBLIC "-//W3C//DTD SVG 1.1//EN" "https://www.w3.org/Graphics/SVG/1.1/DTD/svg11.dtd">
<svg version="1.1" xmlns="https://www.w3.org/2000/svg" xmlns:xlink="https://www.w3.org/1999/xlink" x="0px" y="0px"
	 width="45.315px" height="45.315px" viewBox="0 0 45.315 45.315" enable-background="new 0 0 45.315 45.315" xml:space="preserve">
<g id="KILLED" display="none">
</g>
<g id="Layer_1">
	<g>
		<path fill="#F2F2F2" d="M44.664,28.945L31.303,15.584L15.584,31.303l13.361,13.361c0.868,0.868,2.276,0.868,3.144,0l12.575-12.575
			C45.532,31.221,45.532,29.813,44.664,28.945z M24.23,33.295c-1.535,0-2.779-1.244-2.779-2.779c0-1.535,1.244-2.779,2.779-2.779
			c1.535,0,2.779,1.244,2.779,2.779C27.009,32.051,25.765,33.295,24.23,33.295z M36.803,33.295c-1.535,0-2.779-1.244-2.779-2.779
			c0-1.535,1.244-2.779,2.779-2.779c1.535,0,2.779,1.244,2.779,2.779C39.582,32.051,38.338,33.295,36.803,33.295z"/>
		<path fill="#F2F2F2" d="M16.37,0.651c-0.868-0.868-2.276-0.868-3.144,0L0.651,13.226c-0.868,0.868-0.868,2.276,0,3.144
			l13.361,13.361l15.719-15.719L16.37,0.651z M8.511,17.578c-1.535,0-2.779-1.244-2.779-2.779c0-1.535,1.244-2.779,2.779-2.779
			c1.535,0,2.779,1.244,2.779,2.779C11.29,16.334,10.046,17.578,8.511,17.578z M14.801,23.866c-1.535,0-2.779-1.244-2.779-2.779
			c0-1.535,1.244-2.779,2.779-2.779c1.535,0,2.779,1.244,2.779,2.779C17.579,22.621,16.335,23.866,14.801,23.866z M14.801,11.292
			c-1.535,0-2.779-1.244-2.779-2.779s1.244-2.779,2.779-2.779c1.535,0,2.779,1.244,2.779,2.779S16.335,11.292,14.801,11.292z
			 M21.085,17.578c-1.535,0-2.779-1.244-2.779-2.779c0-1.535,1.244-2.779,2.779-2.779c1.535,0,2.779,1.244,2.779,2.779
			C23.864,16.334,22.62,17.578,21.085,17.578z"/>
	</g>
</g>
</svg>
