<?xml version="1.0" encoding="utf-8"?>
<!-- Generator: Adobe Illustrator 17.0.0, SVG Export Plug-In . SVG Version: 6.00 Build 0)  -->
<!DOCTYPE svg PUBLIC "-//W3C//DTD SVG 1.1//EN" "https://www.w3.org/Graphics/SVG/1.1/DTD/svg11.dtd">
<svg version="1.1" xmlns="https://www.w3.org/2000/svg" xmlns:xlink="https://www.w3.org/1999/xlink" x="0px" y="0px"
	 width="29.197px" height="43.05px" viewBox="0 0 29.197 43.05" enable-background="new 0 0 29.197 43.05" xml:space="preserve">
<g id="KILLED" display="none">
</g>
<g id="Layer_1">
	<g>
		<path fill="#F2F2F2" d="M24.268,31.9c2.619-2.144,2.828-6.22,2.828-6.22s-4.037-0.601-6.657,1.542
			c-2.619,2.143-2.828,6.22-2.828,6.22S21.648,34.043,24.268,31.9z"/>
		<path fill="#F2F2F2" d="M3.192,26.241c2.956,2.419,7.513,1.741,7.513,1.741s-0.236-4.601-3.192-7.021
			C4.557,18.541,0,19.22,0,19.22S0.236,23.821,3.192,26.241z"/>
		<path fill="#F2F2F2" d="M28.027,40.71H17.19c-4.245-7.128-3-9.257-1.415-11.915c1.304-2.186,2.863-4.809,1.883-10.061
			c0.778-2.362,1.751-6.692,0.164-10.557C15.497,2.514,8.554,0,8.554,0S5.381,6.668,7.707,12.332
			c1.647,4.011,5.601,6.436,7.773,7.513c0.577,3.904-0.583,5.853-1.716,7.752c-2.029,3.402-3.08,6.252,0.723,13.113H2.937
			c-0.646,0-1.17,0.523-1.17,1.17s0.524,1.17,1.17,1.17h25.09c0.646,0,1.17-0.523,1.17-1.17S28.673,40.71,28.027,40.71z"/>
	</g>
</g>
</svg>
