<?xml version="1.0" encoding="utf-8"?>
<!-- Generator: Adobe Illustrator 17.0.0, SVG Export Plug-In . SVG Version: 6.00 Build 0)  -->
<!DOCTYPE svg PUBLIC "-//W3C//DTD SVG 1.1//EN" "https://www.w3.org/Graphics/SVG/1.1/DTD/svg11.dtd">
<svg version="1.1" xmlns="https://www.w3.org/2000/svg" xmlns:xlink="https://www.w3.org/1999/xlink" x="0px" y="0px"
	 width="42.191px" height="36.705px" viewBox="0 0 42.191 36.705" enable-background="new 0 0 42.191 36.705" xml:space="preserve">
<g id="KILLED" display="none">
</g>
<g id="Layer_1">
	<path fill="#F2F2F2" d="M33.416,0c-3.184,0-5.964,1.702-7.502,4.24c-0.31-0.027-0.623-0.047-0.94-0.047H17.35
		c-0.361,0-0.717,0.019-1.069,0.054C14.744,1.705,11.962,0,8.775,0C3.929,0,0,3.929,0,8.775c0,4.075,2.781,7.491,6.546,8.479v8.648
		c0,5.967,4.837,10.803,10.803,10.803h7.624c5.966,0,10.803-4.837,10.803-10.803V17.22c3.698-1.032,6.414-4.417,6.414-8.445
		C42.191,3.929,38.263,0,33.416,0z M13.89,25.27c-1.615,0-2.925-1.31-2.925-2.925c0-1.615,1.31-2.925,2.925-2.925
		c1.615,0,2.925,1.31,2.925,2.925C16.815,23.96,15.506,25.27,13.89,25.27z M25.068,28.273c-0.707,0.707-2.666,2.148-4.253,2.467
		c-1.587-0.389-3.547-1.76-4.253-2.467c-0.437-0.437-0.203-1.417,0.438-1.69c0.563-0.24,1.802-0.856,3.816-0.856
		s3.253,0.615,3.816,0.856C25.27,26.856,25.504,27.836,25.068,28.273z M28.433,25.27c-1.615,0-2.925-1.31-2.925-2.925
		c0-1.615,1.31-2.925,2.925-2.925c1.615,0,2.925,1.31,2.925,2.925C31.358,23.96,30.049,25.27,28.433,25.27z"/>
</g>
</svg>
