<?xml version="1.0" encoding="utf-8"?>
<!-- Generator: Adobe Illustrator 17.0.0, SVG Export Plug-In . SVG Version: 6.00 Build 0)  -->
<!DOCTYPE svg PUBLIC "-//W3C//DTD SVG 1.1//EN" "https://www.w3.org/Graphics/SVG/1.1/DTD/svg11.dtd">
<svg version="1.1" xmlns="https://www.w3.org/2000/svg" xmlns:xlink="https://www.w3.org/1999/xlink" x="0px" y="0px" width="35px"
	 height="35px" viewBox="0 0 35 35" enable-background="new 0 0 35 35" xml:space="preserve">
<g id="KILLED" display="none">
</g>
<g id="Layer_1">
	<g>
		<path fill="#F2F2F2" d="M9.442,28.703c0.868-0.868,0.868-2.276,0-3.144s-2.276-0.868-3.144,0
			c-0.269,0.269-0.445,0.593-0.547,0.933l-0.014,0.013l-1.011,3.77l3.786-1.015l0.015-0.015C8.86,29.141,9.177,28.967,9.442,28.703z
			"/>
		<g>
			<path fill="#F2F2F2" d="M23.455,22.987L23.455,22.987c2.988-2.002,6.172-4.336,8.279-6.443
				c5.024-5.024,2.755-16.033,2.755-16.033s-11.01-2.269-16.033,2.755c-2.106,2.106-4.441,5.29-6.443,8.279l0,0
				c0,0-5.204-2.03-7.234,0C2.748,13.575,0,21.722,0,21.722l1.258,1.258c0,0,6.089-3.29,8.08-1.299l1.991,1.991l1.991,1.991
				c1.991,1.991-1.299,8.08-1.299,8.08L13.278,35c0,0,8.147-2.748,10.177-4.779C25.485,28.191,23.455,22.987,23.455,22.987z
				 M23.028,11.972c-1.108-1.108-1.108-2.905,0-4.013c1.108-1.108,2.905-1.108,4.013,0s1.108,2.905,0,4.013
				C25.933,13.08,24.136,13.08,23.028,11.972z"/>
		</g>
	</g>
</g>
</svg>
