<?xml version="1.0" standalone="no"?>
<!DOCTYPE svg PUBLIC "-//W3C//DTD SVG 1.1//EN" "http://www.w3.org/Graphics/SVG/1.1/DTD/svg11.dtd" >
<svg xmlns="http://www.w3.org/2000/svg">
<metadata></metadata>
<defs>
<font id="filmotype_modernregular" horiz-adv-x="724" >
<font-face units-per-em="2048" ascent="1536" descent="-512" />
<missing-glyph horiz-adv-x="409" />
<glyph unicode="&#xfb01;" horiz-adv-x="880" d="M8 922q48 6 111 14q4 123 26.5 216.5t68.5 167t124 112t186 38.5q162 0 235.5 -106t49.5 -289l-215 -24q4 35 1 70.5t-11.5 64t-29.5 46t-52 17.5q-75 0 -110.5 -75.5t-45.5 -217.5q93 5 109 5q2 -10 3.5 -26.5t4 -70t-5.5 -100.5q-51 -8 -119 -14q-7 -179 -9.5 -358.5 t-1.5 -269.5l1 -89l-222 -17q-7 352 3 711l-91 -4q-2 11 -4 29.5t-5 71t-1 98.5zM569 16l9 899l247 -10q-22 -480 -26 -882q-107 -7 -230 -7z" />
<glyph unicode="&#xfb02;" horiz-adv-x="907" d="M8 922q48 6 111 14q4 123 26.5 216.5t68.5 167t124 112t186 38.5q79 0 138 -28.5t93 -78t50 -110.5t16 -133q0 -48 -7 -476t-7 -640q-110 -2 -227 0q0 233 4 586.5t4 460.5q0 36 -0.5 54t-2.5 46t-7.5 41.5t-15 29t-24.5 21.5t-36 6q-75 0 -110.5 -75.5t-45.5 -217.5 q93 5 109 5q2 -10 3.5 -26.5t4 -70t-5.5 -100.5q-51 -8 -119 -14q-7 -179 -9.5 -358.5t-1.5 -269.5l1 -89l-222 -17q-7 352 3 711l-91 -4q-2 11 -4 29.5t-5 71t-1 98.5z" />
<glyph unicode="&#xfb03;" horiz-adv-x="1415" d="M8 897q48 6 111 14q0 49 4 95q10 149 44.5 257t85.5 164.5t114 76.5t130.5 0.5t133.5 -72.5l-99 -189q-33 33 -69.5 36t-63.5 -34q-35 -48 -53 -315q136 8 275 24q4 122 26.5 214.5t68.5 163.5t124 108t186 37q162 0 235.5 -106.5t49.5 -289.5l-215 -24q4 35 1 70.5 t-11.5 64t-29.5 46t-52 17.5q-50 0 -83.5 -36.5t-49.5 -95.5t-23 -148q74 4 108 4q2 -10 3.5 -26.5t4 -70t-5.5 -100.5q-50 -8 -118 -14q-7 -179 -10 -363t-2 -278l1 -94l-221 -17q-8 377 2 736l-272 -23q-7 -179 -9.5 -353t-1.5 -258l1 -85l-222 -17q-7 327 3 686l-91 -4 q-2 11 -4 29.5t-5 71t-1 98.5zM1071 23v34l8 867l248 -11v-2q-23 -458 -27 -852v-30q-106 -6 -229 -6z" />
<glyph unicode="&#xfb04;" horiz-adv-x="1409" d="M8 897q48 6 111 14q0 49 4 95q10 149 44.5 257t85.5 164.5t114 76.5t130.5 0.5t133.5 -72.5l-99 -189q-33 33 -69.5 36t-63.5 -34q-35 -48 -53 -315q136 8 275 24q3 97 17.5 176t44.5 147t75.5 114t113 72t154.5 26q79 0 138 -28.5t93 -78t50 -110.5t16 -133 q0 -48 -7 -476t-7 -640q-111 -2 -228 0q0 233 4.5 586t4.5 460q0 36 -0.5 54t-2.5 46t-7.5 42t-15 29.5t-24.5 21.5t-36 6q-75 0 -110.5 -75.5t-45.5 -217.5q74 4 108 4q2 -10 3.5 -26.5t4 -70t-5.5 -100.5q-50 -8 -118 -14q-7 -179 -10 -358.5t-2 -269.5l1 -89l-221 -16 q-12 347 2 717l-272 -23q-7 -179 -9.5 -353t-1.5 -258l1 -85l-222 -17q-7 327 3 686l-91 -4q-2 11 -4 29.5t-5 71t-1 98.5z" />
<glyph horiz-adv-x="2048" />
<glyph horiz-adv-x="2048" />
<glyph unicode="&#xd;" horiz-adv-x="2048" />
<glyph unicode=" "  horiz-adv-x="409" />
<glyph unicode="&#x09;" horiz-adv-x="409" />
<glyph unicode="&#xa0;" horiz-adv-x="409" />
<glyph unicode="!" horiz-adv-x="499" d="M100 104q3 54 42.5 90.5t97.5 36.5q57 0 95.5 -39t37.5 -96q-4 -57 -46.5 -92t-101.5 -35q-56 0 -92 40t-33 95zM126.5 925q0.5 243 4.5 382l4 139l268 -16q-8 -252 -22.5 -518t-25.5 -406l-11 -141l-211 -13q-7 330 -6.5 573z" />
<glyph unicode="&#x22;" horiz-adv-x="552" d="M82 1575q36 2 68 0.5t54 -3.5l23 -3v-361l-137 -4zM324 1559l147 -3l-4 -358l-137 -4z" />
<glyph unicode="#" horiz-adv-x="1085" d="M82 795q84 6 199 8l41 155q-152 -8 -183 -8l-26 158q90 6 256 10q63 219 102 342l143 -55l-75 -283l143 6q49 169 90 302l141 -56q-30 -103 -71 -244l131 5q19 -15 31 -150q-82 -6 -201 -12l-45 -158q90 2 180 2q19 -14 35 -149q-84 -7 -252 -13l-88 -344l-156 66 q39 131 74 272q-90 -4 -133 -4l-90 -328l-158 64q33 113 72 260l-138 -4zM457 807l135 4l41 156q-64 -6 -137 -6q-6 -27 -20 -80.5t-19 -73.5z" />
<glyph unicode="$" horiz-adv-x="706" d="M61 565h205q0 -104 76 -104q72 0 68 74q-3 35 -29 63.5t-62.5 47t-79 46.5t-78.5 60.5t-60.5 91t-24.5 135.5q0 107 58.5 190t154.5 109l10 156l143 -11q5 -80 7 -143q213 -51 200 -319l-200 -17q0 55 -19 85t-49 30q-31 0 -50.5 -18.5t-19.5 -49.5q0 -33 17.5 -59 t45.5 -43.5t62 -35t68.5 -41t64 -53t49.5 -78t23 -110.5q8 -121 -49.5 -209t-169.5 -114l-10 -158q-25 -2 -60 1t-58 7l-22 4l-6 142q-114 17 -165.5 100.5t-39.5 220.5z" />
<glyph unicode="%" horiz-adv-x="1374" d="M59 1073q6 165 75 270t196 105q163 0 223 -160l53 123l406 23q71 -72 100 -131q-49 -88 -129 -234t-269 -509t-308 -621l-127 75q301 663 624 1254q-30 -3 -158.5 -14t-177.5 -17q15 -71 15 -156q-2 -81 -18.5 -148t-48 -120.5t-83.5 -84t-121 -32.5q-136 -1 -199 104.5 t-53 272.5zM246 1073q-5 -81 11.5 -143t53.5 -62q39 1 56 52.5t26 150.5q6 76 -11 132t-54 57q-63 0 -82 -187zM795 348q6 165 74.5 269t195.5 104q133 0 194 -99t58 -266q-3 -81 -19.5 -148t-47.5 -120.5t-83 -83.5t-120 -31q-93 -2 -153 49.5t-82.5 134t-16.5 191.5z M981 348q-5 -83 11.5 -144t54.5 -61q38 1 55 53.5t24 149.5q8 76 -9.5 132.5t-55.5 56.5q-33 0 -53 -53t-27 -134z" />
<glyph unicode="&#x26;" horiz-adv-x="897" d="M37 406q0 68 16.5 127t40 98t53.5 70.5t53.5 47t43.5 23.5q-6 2 -20 8t-40 26.5t-47.5 48t-38 77t-16.5 108.5q0 112 42.5 201.5t131 145t211.5 55.5q73 0 126 -26t79 -62.5t40.5 -87.5t16.5 -89t0 -79l-221 -4q0 59 -20 82.5t-62 23.5q-43 0 -71.5 -42.5t-28.5 -113.5 q0 -79 50.5 -119t174.5 -34q2 -13 4 -35t5 -76t1 -92q-6 0 -15.5 -1.5t-37 -8.5t-52.5 -17.5t-56 -32.5t-53 -50t-37 -72.5t-15 -97.5q0 -91 36 -125.5t85 -34.5q28 0 59.5 14.5t58.5 50t27 82.5l-96 -2q-2 154 -2 195q30 3 79 7t159.5 10t172.5 3q1 -14 3 -37.5t4 -76 t0 -82.5l-101 -4q0 -105 -42.5 -194t-127.5 -145.5t-196 -56.5q-174 0 -275.5 105.5t-101.5 288.5z" />
<glyph unicode="'" horiz-adv-x="325" d="M82 1219l16 372l146 -18l-25 -359z" />
<glyph unicode="(" horiz-adv-x="481" d="M61 713q0 133 27.5 268.5t67 234t78.5 178t66 120.5l28 40l153 -55q-8 -13 -22 -37t-49.5 -104.5t-62.5 -166.5t-49 -218t-22 -264q0 -124 14 -245.5t33.5 -206.5t39 -152t33.5 -99l14 -33l-154 -16q-8 11 -21 33t-46.5 96t-59.5 156t-47 210t-21 261z" />
<glyph unicode=")" horiz-adv-x="495" d="M0 -8q9 15 25 41.5t55.5 112t70 173.5t55.5 216t25 249q0 124 -20 244.5t-48 203.5t-56 149t-48 98l-20 32l154 27q10 -11 26 -31.5t57.5 -91t73.5 -150t58 -205.5t26 -259q0 -98 -16 -197t-41 -179.5t-55.5 -155.5t-61.5 -130t-56 -96.5t-41 -62.5l-16 -21z" />
<glyph unicode="*" horiz-adv-x="522" d="M41 1223l37 88l121 -31q-9 34 -28 90t-21 64l92 16l34 -137l91 100l69 -65l-96 -95l141 -24l-49 -90l-113 28l43 -114l-90 -17q-14 62 -32 113l-82 -98l-76 75l84 78z" />
<glyph unicode="+" horiz-adv-x="749" d="M84 537q-1 63 0 116t2 75l2 22q77 4 186 8q0 29 -1 91.5t-1 98.5q54 4 106.5 6.5t78.5 3.5h26v-194q59 2 176 2q1 -10 3 -27t4.5 -72.5t-2.5 -105.5q-70 -2 -181 -6v-199q-10 -1 -27 -2.5t-72 -4t-105 2.5q-1 80 -3 193z" />
<glyph unicode="," horiz-adv-x="350" d="M-41 -98q82 195 195 385l176 -82q-86 -176 -203 -346q-105 23 -168 43z" />
<glyph unicode="-" horiz-adv-x="546" d="M84 424q-1 63 0 116t2 75l2 22q14 2 42.5 5t124 7.5t202.5 3.5q1 -10 2.5 -27t4 -72t-2.5 -105q-18 -7 -377 -25z" />
<glyph unicode="." horiz-adv-x="387" d="M47 178q3 60 42.5 98.5t96.5 38.5t96 -42t37 -99q-4 -64 -45.5 -101.5t-101.5 -37.5q-56 0 -91.5 42.5t-33.5 100.5z" />
<glyph unicode="/" horiz-adv-x="538" d="M20 -16q179 832 369 1519l129 -65q-27 -97 -69.5 -258t-137.5 -559t-147 -678z" />
<glyph unicode="0" horiz-adv-x="847" d="M59 711q6 156 30 282.5t68 227.5t116 157t167 56q368 0 351 -707q-2 -160 -22.5 -288t-63 -232t-116.5 -162t-175 -59q-82 -2 -146 34.5t-105 101t-66 157.5t-33.5 199.5t-4.5 232.5zM313 709q-6 -133 2.5 -236.5t35.5 -167.5t69 -63q114 3 125 473q10 442 -101 442 q-37 1 -64.5 -57.5t-43.5 -156.5t-23 -234z" />
<glyph unicode="1" horiz-adv-x="507" d="M57 1274q6 -1 16 -0.5t37.5 8t50 22.5t45.5 51t32 87l174 -10l-33 -1420l-246 8q8 663 21 1049q-35 -31 -88 -31z" />
<glyph unicode="2" horiz-adv-x="763" d="M45 217q62 91 127.5 201.5t131.5 238t108.5 247t42.5 196.5q0 65 -23.5 88.5t-52.5 23.5q-11 0 -21 -5t-22 -20t-20 -39t-12 -66.5t-1 -98.5l-233 18q-12 232 72.5 349.5t242.5 117.5q154 0 234.5 -88.5t80.5 -263.5q0 -318 -385 -870h336v-217l-573 -23z" />
<glyph unicode="3" horiz-adv-x="823" d="M37 406l239 18q0 -188 107 -188q48 0 86.5 51.5t38.5 161.5q0 51 -13.5 88t-35 56.5t-47.5 31t-52 13t-47.5 0.5t-34.5 -4l-14 -3q-5 39 -8.5 91.5t-4.5 85.5l-1 32q123 14 181 70.5t58 142.5q0 93 -19 123t-64 30q-95 0 -95 -223l-231 -14q-3 50 -3.5 107t16.5 118 t44.5 112t80.5 88t124 48q102 13 180 -9.5t123.5 -74t67.5 -121.5t20 -154q-1 -62 -18 -116t-41 -87t-47 -57.5t-39 -34.5l-17 -10q20 -3 43.5 -13.5t51.5 -35.5t50 -59.5t37 -92t15 -126.5q0 -92 -26.5 -176t-74 -149t-119 -103.5t-155.5 -38.5q-172 0 -261.5 107.5 t-94.5 314.5z" />
<glyph unicode="4" horiz-adv-x="872" d="M16 553q140 447 326 897l354 14q-10 -415 -16 -852l158 15q7 -54 9 -110t1 -85l-2 -29q-72 -6 -170 -16l-4 -375l-242 6q-3 183 0 347l-342 -35zM248 573l184 17q6 418 10 557q-44 -120 -92.5 -263.5t-75.5 -227.5z" />
<glyph unicode="5" horiz-adv-x="804" d="M45 444l231 -41q-19 -176 99 -176q47 0 88.5 66t42.5 178q1 58 -5 100.5t-15.5 66.5t-26 39.5t-31 20.5t-35.5 9q-44 4 -80 -21.5t-53 -56.5l-180 59q38 384 61 707l2 26q307 19 566 23q-1 -123 -11 -238q-127 -6 -336 -14l-30 -295q59 43 125 43q80 0 138.5 -36.5 t91.5 -102.5t48 -147t15 -181q0 -127 -41 -238t-126 -184.5t-198 -73.5q-184 0 -276 116.5t-64 350.5z" />
<glyph unicode="6" horiz-adv-x="833" d="M59 729q5 127 18 228t40 195t68 156.5t104 100t145 37.5q184 0 264 -118t66 -331h-227q-5 111 -20 147q-20 46 -64 46q-116 0 -136 -365q30 39 78.5 66t114.5 27q131 0 199.5 -106t68.5 -314q0 -104 -20 -189t-61.5 -152.5t-112 -106t-164.5 -40.5q-87 -2 -153 34.5 t-107 100.5t-65 157.5t-32 197t-4 229.5zM313 479q0 -103 31 -156.5t78 -50.5q48 2 77 50t29 145q0 128 -25 172.5t-83 44.5q-56 0 -81.5 -48.5t-25.5 -156.5z" />
<glyph unicode="7" horiz-adv-x="745" d="M28 1343l1 29q317 39 555 62l137 -172q-180 -563 -420 -1301l-207 66q164 578 324 1134q-129 -11 -359 -28q-16 62 -23.5 121.5t-7.5 88.5z" />
<glyph unicode="8" horiz-adv-x="811" d="M37 383q0 120 58 223t143 131q-66 25 -117 115t-51 188q0 79 18 144t55 117t100 82t148 32q172 0 254.5 -93.5t87.5 -256.5q0 -107 -51 -202.5t-123 -123.5q87 -26 142 -122.5t55 -219.5q0 -67 -12 -125t-40 -109.5t-70 -88.5t-105.5 -58.5t-143.5 -21.5 q-89 0 -157.5 31.5t-109 86t-61 123t-20.5 148.5zM274 395q0 -66 30.5 -112.5t88.5 -46.5q125 0 125 180q0 75 -28.5 127.5t-88.5 52.5q-61 0 -94 -59.5t-33 -141.5zM303 1030q0 -71 22 -118.5t74 -47.5t77.5 47t25.5 123q0 63 -26.5 107.5t-74.5 44.5q-47 0 -72.5 -45.5 t-25.5 -110.5z" />
<glyph unicode="9" horiz-adv-x="817" d="M57 418l230 -6q0 -34 2.5 -60t10.5 -53.5t25.5 -43t43.5 -15.5q55 0 92.5 102t44.5 283q-44 -76 -156 -76q-132 0 -212.5 112.5t-80.5 309.5q0 210 83 329.5t259 122.5q85 1 149 -34.5t105 -97.5t65.5 -152t32 -192t3.5 -224q-6 -154 -28.5 -278.5t-65 -229.5 t-114.5 -163t-169 -58q-320 0 -320 424zM299 975q0 -83 16 -131.5t38.5 -64t56.5 -15.5q94 0 94 205q0 100 -30 149t-75 47q-42 -2 -71 -48.5t-29 -141.5z" />
<glyph unicode=":" horiz-adv-x="391" d="M45 739q5 64 46.5 105t103.5 41q60 0 101.5 -45t37.5 -105q-1 -66 -46 -107.5t-108 -41.5q-59 0 -98 45t-37 108zM49 182q4 58 43.5 93.5t97.5 35.5q54 0 91 -42t34 -99q-1 -62 -41.5 -94.5t-101.5 -32.5q-55 0 -90.5 40.5t-32.5 98.5z" />
<glyph unicode=";" horiz-adv-x="403" d="M-41 -92q75 186 188 379l172 -92q-96 -166 -213 -336q-81 29 -147 49zM61 750q3 62 46 96.5t104 32.5q58 0 94.5 -41.5t34.5 -102.5q-6 -59 -47.5 -97t-99.5 -38t-96 44t-36 106z" />
<glyph unicode="&#x3c;" horiz-adv-x="643" d="M82 584l10 256q170 145 363 284l108 -206q-14 -9 -39.5 -25.5t-94 -72t-126.5 -115.5q11 -13 32.5 -35.5t91.5 -84.5t144 -114l-116 -199q-199 165 -373 312z" />
<glyph unicode="=" horiz-adv-x="749" d="M84 387q-1 63 0 110.5t2 64.5l2 16q37 2 98.5 5t213.5 7.5t259 3.5q1 -9 3 -24.5t4.5 -66.5t-2.5 -102q-247 -14 -580 -14zM94 721q-1 63 0 113.5t2 69.5l2 20q36 2 96 5t209 7.5t256 3.5q1 -9 3 -25.5t4.5 -70t-2.5 -103.5q-239 -20 -570 -20z" />
<glyph unicode="&#x3e;" horiz-adv-x="643" d="M72 471q74 52 141 110.5t97 90.5l30 33q-58 60 -123 113.5t-101 76.5l-36 23l108 206q86 -62 176.5 -133t138.5 -111l48 -40l10 -256l-373 -312z" />
<glyph unicode="?" horiz-adv-x="763" d="M43 1067q-3 220 93.5 328t262.5 108q157 0 240.5 -89t83.5 -265q0 -71 -19.5 -137.5t-50 -118.5t-67.5 -102.5t-71 -100t-61 -100.5t-38.5 -114t-1.5 -132q-48 4 -101.5 4t-82.5 -2l-29 -2q-30 64 -21.5 139.5t38 141t72.5 139t83 134.5t68 127.5t28 117.5q0 117 -84 117 q-42 0 -76 -45t-33 -140zM160.5 105.5q0.5 58.5 44.5 95.5q47 42 106 37t103 -50q43 -42 39.5 -97.5t-47.5 -94.5q-42 -39 -101.5 -36.5t-101.5 44.5q-43 43 -42.5 101.5z" />
<glyph unicode="@" horiz-adv-x="1183" d="M61 676q0 376 138.5 575t408.5 199q264 0 389 -137t125 -447q0 -107 -8.5 -183t-37.5 -153t-80 -121.5t-140 -68.5t-213 -14v100q-12 -30 -41 -49.5t-72 -16.5q-182 11 -182 367q0 164 54 267.5t149 99.5q76 -3 111 -58l4 66l174 -4q-15 -163 -27 -623q80 0 128 97.5 t48 287.5q0 238 -87 344.5t-296 106.5q-195 0 -301 -148.5t-106 -457.5q0 -125 25.5 -224.5t77 -174t135.5 -114.5t196 -40q92 0 176 13t122 27l38 13l2 -142l-13 -5q-13 -4 -40.5 -11t-64 -14t-93.5 -12t-119 -5q-580 0 -580 660zM522 729q0 -80 15.5 -134.5t48.5 -57.5 q29 -2 44 17.5t15 78.5l2 244q-16 39 -49 45q-25 4 -42.5 -25.5t-25 -72.5t-8.5 -95z" />
<glyph unicode="A" horiz-adv-x="808" d="M-16 12q56 324 132.5 674t124.5 538l48 189l313 19q34 -267 80 -609.5t75 -552.5l29 -209l-229 -34l-35 266q-151 -6 -260 -19l-51 -278zM309 498q92 0 183 8q-52 380 -68 532q-84 -362 -115 -540z" />
<glyph unicode="B" horiz-adv-x="847" d="M98 0l21 1397q75 8 143 8q90 1 166 -13q136 -24 215 -79t119.5 -127t40.5 -156q0 -254 -193 -325q187 -63 187 -287v-21q-18 -399 -616 -399q-39 0 -81 2h-2zM345 412v-87q0 -69 1 -69q96 5 146.5 48t50.5 122q0 78 -50 114q-40 29 -110 29q-18 0 -37 -2zM354 797 q88 7 141 56.5t58 121.5v9q0 69 -42 112q-45 46 -142 47q-6 -6 -15 -346z" />
<glyph unicode="C" horiz-adv-x="794" d="M57 711q0 145 23.5 272.5t68.5 228.5t118.5 159.5t166.5 58.5t157 -37t98.5 -108t46.5 -163q8 -65 9 -146q0 -33 -2 -69l-231 -10q2 24 2 48q0 69 -13 133q-17 88 -61 87q-54 0 -87 -111.5t-40 -326.5q-2 -52 -2 -99q0 -151 22 -245q29 -123 87 -123q51 0 72.5 74.5 t27.5 245.5l250 10q-3 -584 -356 -584q-86 0 -150 36.5t-103 98t-63 154.5t-32.5 191.5t-8.5 224.5z" />
<glyph unicode="D" horiz-adv-x="876" d="M98 -10q13 368 18 724q4 296 4 465v62l-1 172q69 9 132 9q105 0 191 -25q138 -40 221 -134t121 -225q35 -119 35 -266v-31q-8 -393 -187 -587q-155 -168 -442 -168q-44 0 -92 4zM344 262q105 9 160 134t61 325v28q0 393 -190 404q-28 -573 -31 -891z" />
<glyph unicode="E" horiz-adv-x="700" d="M102 27q-2 204 -2 383q0 178 2 334q4 310 10 496l7 185q303 27 534 27q1 -32 1 -62q0 -91 -5 -173q-145 -5 -276 -23l-15 -367q150 11 254 11q2 -102 2 -215q-133 -19 -262 -37q-6 -178 -6 -310q121 6 272 9q0 -92 -4 -213q-222 -27 -512 -45z" />
<glyph unicode="F" horiz-adv-x="661" d="M100 10q-1 101 -1 201q0 266 6 522q8 352 17 519l9 167q278 13 514 13q2 -38 2 -75q0 -86 -10 -165q-123 -4 -256 -18l-14 -383q99 6 206 6v-32q0 -82 -8 -194q-92 -8 -205 -20q-4 -135 -6.5 -267t-3.5 -196v-65z" />
<glyph unicode="G" horiz-adv-x="833" d="M59 743q5 157 27 283t64.5 228t114 158t167.5 56q325 0 325 -451q0 -44 -3 -93l-234 -21q-5 144 -22 213.5t-64 69.5q-52 0 -82.5 -119t-36.5 -324v-40q0 -185 25 -300q27 -124 91 -124h3q81 0 109 245q-30 -4 -58 -5.5t-41 -0.5h-12q-5 56 -7.5 113.5t-2.5 86.5v30 q96 9 184 14t128 6h40q2 -59 2 -113q0 -112 -10 -201q-14 -133 -54 -230t-112.5 -146t-177.5 -51h-4q-100 0 -172 51q-74 53 -115.5 152t-58.5 226q-14 99 -14 218q0 33 1 69z" />
<glyph unicode="H" horiz-adv-x="899" d="M98 567q0 219 3 417.5t5 287.5l3 90l258 6l-11 -563l185 14v617l262 10q-6 -248 -11 -602.5t-6 -584.5l-2 -230h-237l-4 538q-113 -9 -191 -22l-6 -553l-244 -17q-4 434 -4 592z" />
<glyph unicode="I" horiz-adv-x="460" d="M100 751q2 307 4 479l2 173l259 14q-6 -253 -12 -599.5t-9 -566.5l-2 -220l-242 -11q-1 242 -1 446q0 153 1 285z" />
<glyph unicode="J" horiz-adv-x="530" d="M16 82v321q26 -65 62 -93q21 -16 44 -16q16 0 34 9q27 16 37.5 73.5t13.5 178.5q1 135 1 255v172q-2 191 -6 312l-3 121l245 15q0 -516 -8 -949q-3 -157 -17.5 -236t-51.5 -132q-42 -56 -107 -77q-40 -14 -79 -14q-26 0 -51 6q-64 14 -114 54z" />
<glyph unicode="K" horiz-adv-x="813" d="M99 1258l1 182l256 -6q-10 -264 -10 -648q58 147 125.5 312t106.5 256l38 92l224 -53q-46 -121 -143 -371.5t-124 -325.5q88 -247 232 -530l-199 -121q-143 262 -260 557l6 -563l-239 -16q-7 346 -11 700q-3 275 -3 446v89z" />
<glyph unicode="L" horiz-adv-x="591" d="M100 8q-1 138 -1 276q0 208 2 419q3 351 7 531l3 179l251 10q-10 -171 -17 -458t-9 -488l-2 -201l231 -2q7 -96 13 -233q-205 -23 -478 -33z" />
<glyph unicode="M" horiz-adv-x="1193" d="M100 720q3 312 9 492l6 179q145 0 362 -29q70 -471 131 -682q68 307 119 750l358 2q2 -61 4.5 -172.5t5.5 -484.5q1 -80 1 -160q0 -293 -9 -588l-223 -13q2 152 2 300q0 347 -10 677q-18 -104 -67 -414.5t-62 -379.5q-96 -23 -227 -35q-74 349 -156 749 q-4 -208 -4 -434.5t2 -348.5l2 -122l-242 -16q-3 262 -3 482q0 131 1 248z" />
<glyph unicode="N" horiz-adv-x="931" d="M98 704q0 314 4 498l2 182q137 7 297 19q80 -341 203 -811q2 207 2 381q0 262 -4 452l227 -2q6 -214 6 -477q0 -404 -14 -926q-107 0 -254 -4q-159 497 -241 899q-1 -102 -1 -211.5t1 -226.5q2 -233 5 -364l3 -131l-232 -13q-4 374 -4 664v71z" />
<glyph unicode="O" horiz-adv-x="849" d="M59 709q5 156 29 283t68 228t115.5 156.5t166.5 55.5q355 0 355 -666v-41q-18 -733 -381 -741h-7q-97 0 -169 53q-74 55 -113 156t-55 229q-11 93 -11 201q0 42 2 86zM311 524q4 -84 16.5 -148.5t35.5 -100.5q22 -35 53 -35h2q62 1 92 131t33 342q1 37 1 71 q0 371 -100 371h-1q-36 0 -64 -58q-28 -59 -44.5 -157.5t-23.5 -232.5q-2 -50 -2 -95.5t2 -87.5z" />
<glyph unicode="P" horiz-adv-x="811" d="M98 25l21 1413q61 5 116 5q105 -1 191 -19q130 -28 205 -93t110 -152t35 -198q0 -89 -24 -166.5t-73 -143.5t-132 -110.5t-193 -60.5q-8 -179 -10 -467q-19 -1 -49 -3t-96 -4q-47 -2 -78 -1h-23zM358 756q78 7 125 62t52 140q1 10 1 19q0 77 -38 129q-42 58 -125 61 q-9 -239 -15 -411z" />
<glyph unicode="Q" horiz-adv-x="854" d="M59 719q6 156 30 282.5t68 227.5t116 157t167 56q357 0 357 -672v-37q-7 -379 -117 -573l84 -158q-90 -92 -182 -139q-41 65 -90 141q-42 -10 -78 -10h-8q-77 0 -138 34q-64 37 -105 101.5t-66 157.5t-33 199q-6 73 -6 154q0 39 1 79zM315 534q4 -84 16.5 -148.5 t35.5 -100.5q22 -35 53 -35h2q113 3 127 473v52q0 387 -100 392q-55 0 -89 -122t-45 -328q-2 -50 -2 -96t2 -87z" />
<glyph unicode="R" horiz-adv-x="854" d="M98 1434q77 8 146 8q90 0 168 -14q136 -25 217.5 -86.5t121.5 -147.5t42 -195q0 -240 -168 -366q99 -267 245 -549l-215 -98q-150 273 -258 551q-21 -5 -47 -9q-4 -244 -4 -534q-166 -14 -244 -14zM352 782q82 13 134 62.5t53 130.5v10q0 78 -45 120q-48 45 -140 50 q0 -197 -2 -373z" />
<glyph unicode="S" horiz-adv-x="772" d="M49 489h252q-1 -27 -1 -51q0 -91 18 -134q23 -54 73 -54q80 0 80 110q0 53 -23 103.5t-60 92t-81.5 84t-89 88.5t-81.5 95.5t-60 114.5t-23 137q0 181 88.5 285t245.5 104q166 0 253 -112q76 -98 76 -292q0 -27 -1 -56l-242 -11q1 21 1 41q0 32 -3 58q-5 42 -12.5 61.5 t-21 31t-22.5 13.5t-22 2q-78 0 -78 -113q0 -44 22.5 -87t59 -81t80.5 -78t88 -87t80.5 -99.5t59 -123.5t22.5 -152q0 -180 -93.5 -273.5t-240.5 -93.5q-61 0 -110 10t-97.5 41t-79.5 82q-32 51 -48 139q-12 61 -11 137q0 33 2 68z" />
<glyph unicode="T" horiz-adv-x="632" d="M16 1279.5q0 62.5 1 94.5l1 31q356 27 594 27q1 -13 2.5 -35t3.5 -88v-32q0 -46 -4 -81q-67 -6 -163 -14l-11 -1176l-245 -14q-2 269 -2 1171l-175 -8q-2 62 -2 124.5z" />
<glyph unicode="U" horiz-adv-x="882" d="M80 856q4 203 11 364l7 162l254 -12q-2 -39 -4 -108q-4 -68 -8 -290q-2 -95 -2 -187q0 -123 4 -240q0 -121 10.5 -181t38.5 -77q23 -14 47 -13q10 0 22 2q36 10 66 46q0 296 1.5 570.5t2.5 401.5l2 127l254 11q-5 -261 -9 -617t-5 -581l-2 -226l-242 -12q0 17 -1 52.5 t-1 55.5q-33 -41 -100 -60q-36 -10 -73 -10q-33 0 -67 8q-72 16 -112 71q-46 57 -65 130t-25 226q-5 123 -5 254q0 65 1 133z" />
<glyph unicode="V" horiz-adv-x="806" d="M10 1346l250 6q24 -208 60.5 -439t61.5 -358l24 -127q36 238 72 496.5t54 397.5l17 140l250 -41q-50 -321 -108.5 -676t-92.5 -549l-33 -194l-334 31q-55 266 -110 594t-83 523z" />
<glyph unicode="W" horiz-adv-x="1206" d="M16 1403l250 6q23 -216 50.5 -462t43.5 -383l17 -138l117 899l260 -27q18 -304 63 -833q67 493 137 977l258 -21q-134 -779 -249 -1390l-277 26q-33 303 -82 705q-30 -200 -56.5 -388t-37.5 -276l-12 -88l-283 -14q-49 269 -99 621t-75 569z" />
<glyph unicode="X" horiz-adv-x="772" d="M-25 70q127 303 283 667q-69 170 -129.5 328t-86.5 231l-26 72l258 12q76 -248 119 -364q88 218 176 452l250 -20q-123 -296 -295 -707q61 -152 125 -302.5t97 -224.5l34 -75l-235 -63q-19 44 -162 389q-74 -177 -178 -436z" />
<glyph unicode="Y" horiz-adv-x="763" d="M-14 1378l270 25q26 -148 57.5 -297.5t49.5 -225.5l18 -75l145 651l254 -45q-124 -488 -282 -1016q1 -108 3.5 -203t4.5 -136l2 -40l-250 -32q-2 246 -2 409q-65 224 -132.5 470.5t-102.5 380.5z" />
<glyph unicode="Z" horiz-adv-x="712" d="M27 238q194 449 364 962q-25 -1 -135 -7.5t-182 -8.5q-6 64 -8 124q-1 36 0 61v29l2 29q317 11 553 29q11 -46 31.5 -130t25.5 -107q-164 -376 -375 -973q151 3 344 10q1 -13 3 -34q2 -22 4 -86q1 -29 1 -55q0 -31 -2 -56q-226 -15 -571 -31z" />
<glyph unicode="[" horiz-adv-x="552" d="M104 -66q-2 343 1 750.5t7 643.5l3 235q88 5 195 5t170 -2l63 -3q-1 -101 -13 -189q-81 -16 -196 -24q-7 -202 -12.5 -500t-7.5 -495l-1 -197l187 -2q8 -52 14 -191q-137 -23 -410 -31z" />
<glyph unicode="\" horiz-adv-x="538" d="M20 1438l130 65q84 -306 176 -685.5t142 -606.5l50 -227l-143 -41q-52 280 -140.5 653.5t-151.5 607.5z" />
<glyph unicode="]" horiz-adv-x="536" d="M12 104v17q105 8 199 16q1 84 2 210.5t2 477.5t-2 514q-51 4 -101 11t-74 12l-24 4q0 37 3 84t5 76l3 28q212 12 409 0q0 -852 -20 -1622q-135 -5 -223 -4.5t-129 3.5l-42 3q-4 60 -6 106.5t-2 63.5z" />
<glyph unicode="^" horiz-adv-x="978" d="M41 375q58 128 134.5 277.5t123.5 235.5l47 85l309 -12q58 -127 129 -275t112 -232l42 -85l-242 -4q-38 94 -91 195.5t-87 156.5l-33 55q-68 -109 -124.5 -214t-79.5 -156l-23 -50z" />
<glyph unicode="_" horiz-adv-x="960" d="M20 -559l5 137q75 2 192 5t362 7.5t351 3.5q2 -1 3.5 -7.5t4.5 -36.5t-2 -85q-552 -24 -916 -24z" />
<glyph unicode="`" horiz-adv-x="686" d="M205 1358l131 51q37 -55 73.5 -117t54.5 -96l17 -35q-21 -6 -52 -13t-52 -11l-21 -4q-38 49 -76 105.5t-56 87.5z" />
<glyph unicode="a" d="M6 319q0 117 72 195t198 78q97 0 158 -33q2 69 2 96q0 86 -15 121t-50 35q-73 0 -82 -147l-197 10q0 168 77 264t206 96q58 0 106 -16t89 -52.5t64 -104.5t23 -163q0 -133 -5.5 -293.5t-10.5 -255t-4 -96.5l-207 -12l-2 92q-64 -57 -166 -57q-122 0 -189 69.5t-67 173.5z M229 330q0 -34 24 -58t75 -24q50 0 73 27t23 69q0 32 -26.5 55t-69.5 23q-51 0 -75 -27t-24 -65z" />
<glyph unicode="b" d="M80 14q-1 80 -1 174q0 188 5 430q8 363 18 606l9 242l231 -12q-13 -212 -25 -528q56 86 134 86q81 0 137 -69q54 -69 78 -179q20 -94 20 -208v-40q-4 -104 -20.5 -189.5t-46.5 -153t-78 -105.5t-111 -39q-96 0 -139 94q0 -17 -1 -50t-1 -50q-10 -1 -29 -3q-18 -4 -72 -6 q-30 -1 -61 -1q-23 0 -47 1zM303 473q-2 -35 -2 -64q1 -69 11 -99q14 -44 53 -44q42 1 64.5 71.5t25.5 174.5q2 28 2 56q-1 16 -1 34q-2 46 -10 82q-6 36 -24 58q-17 22 -41 22h-2q-28 -1 -44 -23t-26 -63l-6 -193v-12z" />
<glyph unicode="c" horiz-adv-x="671" d="M49 489q22 488 320 488q139 0 205 -112q52 -87 51 -218q0 -37 -4 -78l-197 -24q1 21 1 39q0 149 -58 149q-46 0 -67 -64.5t-28 -189.5q-2 -39 -2 -73q0 -191 68 -191q36 0 57.5 47t24.5 117l203 -6q-3 -78 -21.5 -144t-52.5 -118.5t-88 -82.5t-123 -30q-90 0 -151 37.5 t-91 107.5q-32 69 -42 153q-7 57 -7 125q0 33 2 68z" />
<glyph unicode="d" horiz-adv-x="712" d="M49 504q0 136 27.5 242t85.5 170q55 60 128 60q5 0 9 -1q80 -3 127 -66l8 535l232 -6q-23 -735 -37 -1428l-209 -12v113q-48 -78 -142 -78h-12q-217 13 -217 459v12zM268 508q0 -102 19 -171.5t59 -72.5h7q31 0 49 24q20 26 20 107l2 297q-19 52 -62 58q-4 1 -7 1 q-27 0 -47 -33q-22 -37 -30.5 -90.5t-9.5 -119.5z" />
<glyph unicode="e" horiz-adv-x="688" d="M49 494q21 478 330 481h4q148 0 214 -138q44 -92 44 -240q0 -78 -12 -171q-203 -9 -350 -23q0 -200 79 -200q58 0 70 137l211 -18q-3 -62 -22 -119t-54 -104.5t-91.5 -76t-127.5 -28.5q-91 0 -153.5 38.5t-93.5 110t-42 156.5q-8 58 -8 129q0 32 2 66zM287 582 q63 0 145 6q-4 182 -63 182q-63 0 -82 -188z" />
<glyph unicode="f" horiz-adv-x="473" d="M8 922q48 6 111 14q0 24 4 70q10 149 44.5 254t85.5 157.5t114 68.5q26 6 52 6q38 0 78 -14q67 -22 134 -75l-99 -189q-33 33 -70 36q-3 1 -6 1q-32 0 -57 -34q-40 -54 -53 -261q93 5 109 5q2 -10 3.5 -26.5t3.5 -70.5q1 -12 1 -25q0 -39 -6 -75q-51 -8 -119 -14 q-7 -179 -10 -358q-1 -129 -1 -211v-59l1 -89l-222 -17q-3 145 -3 291q0 209 6 420l-91 -4q-2 11 -4 29.5t-5 71.5q-2 31 -2 60q0 20 1 38z" />
<glyph unicode="g" horiz-adv-x="743" d="M49 520q10 210 74.5 337.5t185.5 127.5q80 0 135 -55l-4 82l236 -6q-15 -558 -19 -965q-1 -127 -29.5 -217.5t-77 -136.5t-112.5 -61q-33 -8 -67 -8t-69 8q-72 15 -148 55v251q85 -79 161 -79q129 0 134 251q-58 -67 -150 -67h-8q-83 0 -139 63q-59 67 -83 174 q-21 93 -21 207q0 19 1 39zM279 518q-2 -24 -2 -47q0 -76 19 -137q23 -80 75 -80q54 3 80 90q0 261 -2 365q-26 51 -64 51q-87 0 -106 -242z" />
<glyph unicode="h" horiz-adv-x="739" d="M78 53q0 363 2.5 734t5.5 560l2 189l244 -14q-11 -252 -19 -613q69 97 178 97h13q40 -3 69 -19t52 -51.5t35 -97.5q11 -58 10 -140v-14l-6 -661l-226 -13q4 346 4 522q-1 88 -8.5 132t-19 56.5t-35.5 12.5q-34 0 -52 -33t-18 -118l-2 -508q-108 -15 -229 -21z" />
<glyph unicode="i" horiz-adv-x="378" d="M68 25l8 899l248 -11q-23 -480 -27 -882q-106 -6 -229 -6zM76 1184q0 63 36.5 95t96.5 32q59 0 97 -32t38 -95t-38 -95t-97 -32q-60 0 -96.5 32t-36.5 95z" />
<glyph unicode="j" horiz-adv-x="393" d="M-147 -80q69 -72 133 -72q50 0 75 60.5t25 206.5l2 866l238 -8q-15 -552 -17 -948q-1 -123 -30.5 -212t-77.5 -133t-107 -58q-27 -6 -53 -6q-34 0 -69 10q-63 18 -119 61v233zM94 1221q0 60 35.5 89t91.5 29t90.5 -29t34.5 -89t-34.5 -90.5t-90.5 -30.5t-91.5 30.5 t-35.5 90.5z" />
<glyph unicode="k" horiz-adv-x="776" d="M88 25q3 280 11 624t15 548l7 204l250 -19q-23 -297 -41 -753q52 88 100 176t70 132l22 44l221 -43q-134 -258 -229 -424q100 -184 277 -440l-236 -56q-120 179 -233 359l-9 -369q-121 1 -225 17z" />
<glyph unicode="l" horiz-adv-x="405" d="M78 4q1 368 5 726.5t7 533.5l4 174l244 -13q-31 -630 -33 -1421q-55 -1 -112 -1t-115 1z" />
<glyph unicode="m" horiz-adv-x="1124" d="M78 20l4 965l211 19q0 -58 4 -130q39 46 93 71.5t108 25.5q47 0 88 -26t59 -75q79 101 201 101q198 0 198 -338q0 -188 -4.5 -348.5t-7 -217.5t-0.5 -57l-221 4v14q1 20 1 72q2 86 3.5 216t1.5 204q0 87 -9 133t-22 58t-36 12q-80 0 -82 -141l-6 -531l-226 2q4 322 4 498 q0 83 -8 124t-19.5 50.5t-35.5 9.5q-72 0 -72 -157q-6 -312 -8 -558q-43 -2 -109 -2q-14 0 -51 1t-59 1z" />
<glyph unicode="n" horiz-adv-x="757" d="M78 20l8 949l215 -6v-29q0 -45 2 -80q76 90 184 90q26 0 46.5 -4t49.5 -22.5t48.5 -50.5t34 -95.5t14.5 -150.5q0 -183 -3 -339.5t-6 -221.5l-3 -64h-226q4 340 4 518q0 81 -8.5 122.5t-20 50.5t-34.5 9q-72 0 -72 -135q-12 -293 -12 -541h-221z" />
<glyph unicode="o" horiz-adv-x="735" d="M47 457q0 115 20 212.5t59 173.5t104 119.5t149 43.5q159 0 234 -123t75 -332q0 -111 -18 -204t-56 -168.5t-104 -118t-154 -42.5q-105 0 -176 58.5t-102 155t-31 225.5zM276 459q0 -91 20 -153t60 -62q51 0 77 73.5t26 192.5q0 250 -80 250q-46 0 -74.5 -86t-28.5 -215z " />
<glyph unicode="p" horiz-adv-x="720" d="M78 -33q0 274 4 533t8 382l4 122l219 10q-2 -60 -2 -101l7 8q8 8 21 19.5t30.5 23t42 19.5t49.5 8q57 0 98.5 -34t65.5 -96t35.5 -139t11.5 -171q0 -106 -15 -197t-45 -164t-80.5 -115t-115.5 -42q-89 0 -125 76q-4 -242 -4 -388v-98q0 -1 -27.5 -3.5t-78 -4.5t-101.5 -2 q-2 123 -2 354zM301 360q0 -45 10.5 -64t36.5 -20q48 0 72 71t24 173q0 218 -73 223q-37 0 -58 -38q-12 -300 -12 -345z" />
<glyph unicode="q" d="M49 532q0 105 13 189t41 149.5t75.5 101.5t112.5 36q41 0 80 -18.5t53 -43.5v109l223 -6q0 -625 -35 -1446l-209 -6q10 178 15 544q-38 -78 -137 -78q-62 0 -108.5 37t-72.5 103.5t-38.5 148t-12.5 180.5zM279 547q0 -234 81 -234q58 0 58 88q0 236 -2 338q-22 39 -56 39 q-74 -10 -81 -231z" />
<glyph unicode="r" horiz-adv-x="530" d="M80 18v89q0 201 4 399q4 242 9 360l5 119l211 -10l-1 -121q7 29 42 57q34 29 80 39q14 3 28 3q32 0 66 -17l-16 -250q-36 10 -60.5 13.5t-52.5 -3.5t-45.5 -28.5t-29.5 -66t-12 -112.5l-7 -481q-119 0 -221 10z" />
<glyph unicode="s" horiz-adv-x="677" d="M39 342l205 10q0 -69 24 -105t66 -36q41 0 57.5 22t14.5 54q-3 30 -23 54t-50 42t-65.5 36.5t-70.5 43t-63.5 56t-47 81.5t-18.5 113q0 123 77.5 209.5t198.5 87.5h8q56 0 104 -14q52 -15 96 -49q45 -35 68 -99q20 -55 20 -128q0 -13 -1 -26l-201 -14q-1 57 -22 86 t-54 29q-31 0 -51 -19t-20 -49q0 -38 24 -67t60.5 -46t80 -41t81 -51t65 -78t31.5 -120q1 -12 1 -24q0 -119 -74 -202q-80 -91 -226 -94h-10q-148 0 -220 86q-65 79 -66 217q0 17 1 35z" />
<glyph unicode="t" horiz-adv-x="489" d="M6 948q55 11 131 23l-2 317l242 33q-2 -115 -4 -320l104 9q1 -11 2 -31q1 -21 2 -77q0 -28 0.5 -54t-0.5 -51q-47 -11 -110 -19q-4 -402 -4 -741q-13 -3 -35 -6.5t-82 -9.5q-52 -5 -98 -5h-15v734l-102 -7q-27 111 -29 205z" />
<glyph unicode="u" horiz-adv-x="755" d="M68 406q0 143 2.5 287t5.5 216l2 72l225 2q-8 -328 -8 -506q0 -66 10.5 -101.5t25 -44.5t40.5 -9q69 0 69 170q1 33 2 87.5t3 196.5q1 95 1 176v76h230v-121q0 -155 -2 -325q-2 -238 -5 -370l-3 -134l-211 -15q1 11 1 24q0 39 -5 93q-71 -102 -168 -102q-20 0 -39 3.5 t-45.5 14t-48 33.5t-41 57t-30.5 91t-11 129z" />
<glyph unicode="v" horiz-adv-x="706" d="M16 971l230 6q18 -147 43 -305t41 -243l16 -85q32 170 61 342t43 259l13 87l227 -37q-43 -200 -98 -446.5t-89 -393.5l-34 -147l-258 19q-49 185 -98 421t-73 380z" />
<glyph unicode="w" horiz-adv-x="1042" d="M16 936l230 6q17 -148 36 -283t30 -197l10 -61q32 170 54.5 297t29.5 169l6 42l204 9q19 -143 42.5 -270.5t37.5 -183.5l13 -56q29 168 53 314t34 208l9 63l221 2q-42 -200 -93 -433t-81 -366l-31 -133l-200 -12q-63 236 -109 475l-78 -493l-223 -10q-49 184 -98 412.5 t-73 364.5z" />
<glyph unicode="x" horiz-adv-x="712" d="M-14 37q108 208 237 473l-217 436l258 15q38 -116 84 -216q96 215 127 289l252 -14q-98 -159 -260 -502q55 -112 117 -226t96 -172l35 -57l-240 -36l-129 262q-70 -158 -125 -291z" />
<glyph unicode="y" horiz-adv-x="743" d="M68 387q0 141 2 282.5t4 212.5l2 72l225 -14q-8 -326 -8 -500q0 -66 10 -101t23.5 -43.5t38.5 -8.5q31 0 50 40.5t19 125.5q1 34 2 92t2 205v136.5v117.5h228q-3 -458 -9 -914q-2 -126 -37.5 -219t-90.5 -140t-121 -63q-32 -8 -64 -8q-35 0 -72 10q-68 18 -127 64v264 q3 -4 8.5 -11.5t22.5 -26t35 -32.5t43.5 -25.5t50.5 -11.5q51 0 80 19.5t45 77.5q14 52 14 141v23q-34 -49 -73 -66.5t-95 -19.5q-208 0 -208 321z" />
<glyph unicode="z" horiz-adv-x="624" d="M46 168l1 20q105 212 279 553q-33 -2 -114.5 -7.5t-137.5 -8.5q-7 52 -12.5 106t-7.5 81l-1 28q287 19 498 23l27 -209q-109 -221 -271 -539q191 18 256 21q13 -115 15 -207q-256 -27 -517 -29q-8 53 -11.5 100t-3.5 68z" />
<glyph unicode="{" horiz-adv-x="616" d="M23 596v154q55 6 145 12l10 801q88 5 195 5t170 -2l63 -3q0 -101 -12 -189q-82 -16 -197 -24q-7 -202 -12 -500t-7 -495l-1 -197l186 -2q9 -52 15 -191q-137 -23 -410 -31q-3 337 0 662h-145z" />
<glyph unicode="|" horiz-adv-x="370" d="M104.5 748q1.5 392 22.5 708l141 4q-2 -96 -3.5 -245.5t-3.5 -578t5 -671.5l-149 10q-4 86 -9 233.5t-3.5 539.5z" />
<glyph unicode="}" horiz-adv-x="600" d="M12 104v17q105 8 199 16q1 84 2 210.5t2 477.5t-2 514q-51 4 -101 11t-74 12l-24 4q0 37 3 84t5 76l3 28q212 12 409 0q0 -344 -6 -792q42 -2 79.5 -5t54.5 -5l16 -2q2 -13 0 -154h-152q-3 -339 -12 -664q-135 -5 -223 -4.5t-129 3.5l-42 3q-4 60 -6 106.5t-2 63.5z" />
<glyph unicode="~" horiz-adv-x="1021" d="M82 535q1 5 3.5 14.5t11.5 36.5t20.5 51.5t32.5 54.5t45.5 51.5t60 36.5t76.5 15q48 0 94.5 -16t77 -34.5t66.5 -34.5t65 -16q36 0 64.5 29t38.5 57l10 29q3 0 34.5 -9.5t79.5 -29t78 -39.5q-3 -10 -10 -27t-30 -59.5t-49.5 -75t-69.5 -59.5t-89 -27q-55 0 -102 16 t-74.5 34.5t-61.5 34.5t-65 16q-22 0 -40 -10.5t-28 -25t-16.5 -29.5t-8.5 -25l-3 -11q-60 8 -113 21t-76 22z" />
<glyph unicode="&#xa1;" horiz-adv-x="509" d="M102 -14q8 252 23 518t26 406l11 141l211 12q7 -330 6.5 -573t-4.5 -382l-4 -139zM133 1319q4 57 46.5 92t101.5 35q56 0 92 -40t33 -95q-3 -54 -42.5 -90.5t-97.5 -36.5q-57 0 -95.5 39t-37.5 96z" />
<glyph unicode="&#xa2;" horiz-adv-x="710" d="M66 823q14 423 243 480l13 165l139 -4q8 -93 10 -161q100 -28 144.5 -122t29.5 -243l-199 8q0 146 -65 146q-82 0 -92 -273q-13 -276 73 -276q37 0 58 46.5t26 121.5l199 -21q-8 -119 -63.5 -219t-153.5 -129l-12 -197q-24 -3 -60.5 1t-61.5 9l-24 5l-6 184 q-63 18 -105 61.5t-63 109t-28 140t-2 168.5z" />
<glyph unicode="&#xa3;" horiz-adv-x="780" d="M14 744v18q82 4 131 6q-53 233 -53 348q0 175 81 263.5t235 88.5q158 0 242.5 -117.5t72.5 -349.5l-234 -18q15 229 -75 229q-74 0 -74 -116q0 -52 11 -131.5t21 -132.5l11 -54q86 2 238 2q1 -9 2.5 -24t4 -62t-2.5 -86q-84 -2 -217 -6q21 -115 5.5 -207.5t-61.5 -142.5 q34 1 172 9.5t172 8.5q2 -106 -6 -223q-242 -41 -579 -41q-20 63 -35.5 119.5t-21.5 82.5l-5 25q35 13 61 31.5t42 37t25 46.5t12.5 50.5t1 59.5t-6 63t-10.5 71h-145q-7 49 -11 91.5t-4 60.5z" />
<glyph unicode="&#xa5;" horiz-adv-x="774" d="M-10 1378l270 25q26 -148 57.5 -297.5t49.5 -225.5l18 -75l145 651l254 -45q-63 -250 -148 -552t-132 -456q85 3 166 3q1 -4 2.5 -14t4 -48t-2.5 -92q-70 -6 -170 -8l8 -228l-250 -32q-2 96 -2 254h-166q-1 63 0 100.5t2 43.5l2 7q66 4 160 8q-64 223 -131 468.5 t-102 378.5z" />
<glyph unicode="&#xa6;" horiz-adv-x="370" d="M102 768q3 375 25 688l141 4q-6 -310 -8 -692h-158zM106 623h158q0 -553 2 -658l-149 10q-11 274 -11 648z" />
<glyph unicode="&#xa7;" d="M53 342l205 10q3 -69 27.5 -105t66.5 -36q41 0 57 22t13 54q-4 30 -24.5 54t-50.5 42t-66 36.5t-71.5 43t-65 56t-49 81.5t-21.5 113q-3 83 34.5 139.5t108.5 81.5q-118 68 -121 203q-3 123 72.5 209.5t196.5 87.5q61 1 113 -14t97 -49t70 -98.5t23 -154.5l-201 -14 q-3 57 -24 86t-54 29q-31 0 -51 -19t-19 -49q1 -33 20.5 -59t50 -43.5t67.5 -35t74 -39t68 -49.5t51 -73.5t22 -103.5q3 -102 -38.5 -160t-133.5 -80q64 -24 102.5 -67.5t46.5 -116.5q11 -135 -67 -226t-224 -94q-157 -3 -233.5 86t-71.5 252zM293 709q0 -44 22.5 -66 t59.5 -20q37 3 57 27.5t19 68.5q0 44 -22.5 65.5t-59.5 18.5q-36 -2 -56.5 -26t-19.5 -68z" />
<glyph unicode="&#xa8;" horiz-adv-x="772" d="M127 1260q2 43 31 72.5t71 29.5q44 0 75 -33t28 -76q-3 -46 -34 -74t-75 -28q-42 0 -70 32t-26 77zM440 1233q3 43 34 70.5t75 27.5q41 0 69.5 -31.5t26.5 -74.5q-1 -48 -32.5 -73.5t-77.5 -25.5q-41 0 -69 31.5t-26 75.5z" />
<glyph unicode="&#xa9;" horiz-adv-x="1167" d="M61 633q0 137 18 256t59 223.5t102 178.5t152.5 116.5t205.5 42.5q137 0 238 -50t160.5 -143.5t86 -221.5t21.5 -292q-4 -128 -20.5 -232t-53.5 -200.5t-93.5 -162t-145 -105t-203.5 -41.5q-134 0 -236.5 47t-165 132t-94 198.5t-31.5 253.5zM211 670q0 -110 22 -204 t65.5 -167.5t115.5 -115.5t166 -42q86 0 152 31t107.5 83.5t68 130t37 162.5t11.5 189q0 123 -16 218t-54.5 175.5t-110.5 124t-175 43.5q-188 0 -288.5 -170.5t-100.5 -457.5zM362 705q0 93 12.5 170.5t39 141.5t73 100t109.5 36q46 0 80 -15.5t54.5 -43t32 -69.5t15 -90 t0.5 -110l-137 -6q4 60 -5 114t-36 54q-62 0 -74 -270q-5 -130 12 -207.5t50 -77.5q31 0 42.5 41.5t16.5 149.5l150 6q-2 -181 -50 -272.5t-159 -92.5q-65 -1 -110 31.5t-70 94.5t-35.5 138.5t-10.5 176.5z" />
<glyph unicode="&#xaa;" horiz-adv-x="753" d="M20 698q0 117 72.5 195t198.5 78q97 0 158 -33q2 69 2 96q0 86 -14.5 122t-49.5 36q-36 0 -58 -38.5t-26 -111.5l-197 11q0 168 77 264t206 96q58 0 106 -16t89.5 -52.5t64.5 -104.5t23 -163q0 -164 -7.5 -326.5t-13.5 -245t-6 -83.5l-201 -2l-2 92q-64 -57 -166 -57 q-122 0 -189 69.5t-67 173.5zM227 168q3 53 37.5 87t85.5 34t85 -37t32 -88q-3 -57 -39.5 -90t-89.5 -33q-50 0 -81.5 37.5t-29.5 89.5zM244 709q0 -34 23.5 -58t74.5 -24q50 0 73 27t23 69q0 32 -26.5 55t-69.5 23q-51 0 -74.5 -26.5t-23.5 -65.5z" />
<glyph unicode="&#xab;" horiz-adv-x="886" d="M61 412l9 250q62 48 138.5 106t122.5 92l46 33l45 -197q-36 -31 -83.5 -74t-76.5 -70l-29 -28q43 -55 92.5 -105.5t78.5 -73.5l28 -23l-47 -177q-62 47 -143 114t-131 110zM451 403l6 250q62 48 143 106t132 92l50 34l43 -197l-204 -172q43 -55 93 -105.5t78 -74.5 l29 -23l-47 -176q-62 47 -142.5 113.5t-130.5 109.5z" />
<glyph unicode="&#xad;" horiz-adv-x="546" d="M84 424q-1 63 0 116t2 75l2 22q14 2 42.5 5t124 7.5t202.5 3.5q1 -10 2.5 -27t4 -72t-2.5 -105q-18 -7 -377 -25z" />
<glyph unicode="&#xae;" horiz-adv-x="1167" d="M61 633q0 137 18 256t59 223.5t102 178.5t152.5 116.5t205.5 42.5q137 0 238 -50t160.5 -143.5t86 -221.5t21.5 -292q-4 -128 -20.5 -232t-53.5 -200.5t-93.5 -162t-145 -105t-203.5 -41.5q-134 0 -236.5 47t-165 132t-94 198.5t-31.5 253.5zM211 670q0 -110 22 -204 t65.5 -167.5t115.5 -115.5t166 -42q86 0 152 31t107.5 83.5t68 130t37 162.5t11.5 189q0 123 -16 218t-54.5 175.5t-110.5 124t-175 43.5q-188 0 -288.5 -170.5t-100.5 -457.5zM395 1143q203 22 302 -50.5t102 -207.5q0 -145 -99 -217q42 -121 142 -328l-123 -57 q-89 165 -152 325q-4 -1 -13 -2t-13 -2q-2 -143 -2 -317q-97 -6 -142 -6zM543 758q47 6 77.5 34.5t30.5 75.5q3 106 -108 109v-219z" />
<glyph unicode="&#xaf;" horiz-adv-x="768" d="M160 1163q-1 42 0 77t2 49l2 14q29 2 76.5 4t164.5 5.5t199 2.5q1 -6 2 -17.5t2 -48t-2 -69.5q-171 -3 -446 -17z" />
<glyph unicode="&#xb0;" horiz-adv-x="641" d="M63 1202q0 101 78 169.5t183 68.5q110 0 182 -70.5t72 -179.5q0 -108 -82 -177t-191 -69q-110 0 -176 70t-66 188zM246 1194q0 -42 20.5 -71t50.5 -29q34 0 55 25t21 67q0 46 -20.5 76t-53.5 30q-31 0 -52 -28t-21 -70z" />
<glyph unicode="&#xb1;" horiz-adv-x="749" d="M84 258q-1 63 0 110.5t2 63.5l2 17q37 2 98.5 5t213.5 7.5t259 3.5q1 -9 3 -24.5t4.5 -66.5t-2.5 -102q-247 -14 -580 -14zM84 735q-1 63 0 116t2 75l2 22q77 4 186 8q0 29 -1 92t-1 99q54 4 106.5 6.5t78.5 2.5l26 1v-194q59 2 176 2q1 -10 3 -27t4.5 -72.5t-2.5 -105.5 q-70 -2 -181 -6v-199q-10 -1 -27 -2.5t-72 -4t-105 2.5q-1 79 -3 192z" />
<glyph unicode="&#xb2;" horiz-adv-x="528" d="M45 643q94 135 182 309.5t88 270.5q0 42 -16 57.5t-35 15.5q-12 0 -22.5 -9.5t-20 -46t-6.5 -95.5l-154 12q-7 153 48.5 230t158.5 77q207 0 207 -231q0 -206 -252 -571h221v-144l-376 -14z" />
<glyph unicode="&#xb3;" horiz-adv-x="575" d="M39 784l154 13q0 -123 69 -123q31 0 55.5 34t24.5 105q0 45 -16.5 73.5t-39.5 37t-46 11t-40 -0.5l-16 -4l-8 135q156 20 156 137q0 61 -13 81t-43 20q-61 0 -61 -146l-149 -8q-2 32 -2.5 69t11 76t29 72t52 57t80.5 31q129 18 192.5 -49.5t60.5 -181.5q-1 -40 -12 -75 t-26.5 -56.5t-30 -37t-24.5 -22.5l-11 -6q17 -3 36 -14.5t41 -34.5t36 -66t14 -98q0 -123 -67.5 -212t-176.5 -89q-223 0 -229 272z" />
<glyph unicode="&#xb4;" horiz-adv-x="686" d="M205 1161q61 125 145 248l131 -51q-65 -114 -151 -225q-78 14 -125 28z" />
<glyph unicode="&#xb6;" horiz-adv-x="495" d="M41 1147q0 134 53 220t158 89l141 4q-2 -96 -3.5 -245.5t-3.5 -578t5 -671.5l-149 10q-2 47 -5 127t-8 332.5t0 464.5q-94 3 -141 70.5t-47 177.5z" />
<glyph unicode="&#xb7;" horiz-adv-x="448" d="M84 569q3 62 44 103t101 41q59 0 99.5 -43.5t38.5 -104.5q-3 -67 -46.5 -106t-105.5 -39q-59 0 -96 43.5t-35 105.5z" />
<glyph unicode="&#xb8;" horiz-adv-x="684" d="M154 -293q7 5 18 13.5t40.5 39t53 65t46 90t28.5 114.5l160 -54q-2 -10 -6 -27t-22.5 -64.5t-42.5 -90.5t-68.5 -93t-98.5 -83q-61 31 -108 90z" />
<glyph unicode="&#xb9;" horiz-adv-x="389" d="M59 1327h10.5t24 5t32 15t28.5 33t20 56l111 -9l-21 -901l-158 4q5 380 15 668q-23 -20 -58 -20z" />
<glyph unicode="&#xba;" horiz-adv-x="765" d="M47 856q0 115 20 212.5t59 173.5t104 119.5t149 43.5q159 0 234 -123t75 -332q0 -111 -18 -204t-56 -168t-104 -117.5t-154 -42.5q-105 0 -176 58.5t-102 154.5t-31 225zM227 156q3 53 37.5 86.5t85.5 33.5t85 -36.5t32 -87.5q-3 -57 -39.5 -90t-89.5 -33 q-50 0 -81.5 37.5t-29.5 89.5zM276 858q0 -91 20 -153t60 -62q51 0 77 73.5t26 192.5q0 250 -80 250q-46 0 -74.5 -86t-28.5 -215z" />
<glyph unicode="&#xbb;" horiz-adv-x="886" d="M61 342l205 172q-43 55 -92.5 105.5t-77.5 74.5l-28 23l47 176q62 -47 142.5 -113.5t130.5 -109.5l50 -43l-8 -250q-62 -48 -143 -106t-131 -92l-50 -34zM455 709l49 176q62 -47 142 -114t130 -110l49 -43l-6 -249q-62 -48 -138.5 -106t-122.5 -92l-46 -34l-45 197 q36 31 83 74t76 70l29 28q-43 55 -93 105.5t-78 74.5z" />
<glyph unicode="&#xbc;" horiz-adv-x="1290" d="M59 1327h10.5t24 5t32 15t28.5 33t20 56l111 -9l-21 -901l-158 4q5 380 15 668q-23 -20 -58 -20zM162 74q374 766 723 1386l110 -94q-49 -88 -129 -234t-268 -509.5t-305 -622.5zM717 365q92 291 213 585l231 8q-7 -306 -10 -555l102 11q4 -36 5 -72.5t0 -55.5l-1 -18 q-44 -4 -110 -12l-2 -244l-158 4q-3 119 0 226l-223 -23zM868 379l121 10q4 273 6 363q-29 -78 -61 -171.5t-49 -147.5z" />
<glyph unicode="&#xbd;" horiz-adv-x="1308" d="M59 1327h10.5t24 5t32 15t28.5 33t20 56l111 -9l-21 -901l-158 4q5 380 15 668q-23 -20 -58 -20zM158 74q374 766 723 1386l110 -94q-49 -88 -129 -234t-268 -509.5t-305 -622.5zM813 145q94 135 182 309.5t88 270.5q0 42 -16 58t-35 16q-12 0 -22.5 -10t-20 -46.5 t-6.5 -95.5l-154 12q-7 154 48.5 231t158.5 77q101 0 154 -58t53 -174q0 -206 -252 -571h221v-144l-376 -14z" />
<glyph unicode="&#xbe;" horiz-adv-x="1439" d="M41 784l156 13q0 -123 67 -123q32 0 57 34t25 105q0 45 -16.5 73.5t-39.5 37t-46 11t-40 -0.5l-16 -4q-4 25 -6.5 59t-3.5 55v21q156 19 156 137q0 61 -12.5 81t-42.5 20q-60 0 -60 -146l-149 -8q-2 32 -2.5 69t10.5 76t28.5 72t51.5 57t80 31q129 18 193 -49.5 t61 -181.5q-1 -40 -12 -75t-26 -56.5t-30.5 -37t-25.5 -22.5l-11 -6q17 -3 36.5 -14.5t41 -34.5t35.5 -66t14 -98q0 -124 -66.5 -212.5t-175.5 -88.5q-225 0 -231 272zM319 96q374 767 723 1387l111 -94q-49 -88 -129 -234t-268 -509.5t-305 -622.5zM858 362q92 290 211 580 l231 10q-2 -92 -6 -284t-6 -267l103 9q4 -35 5.5 -71t1.5 -55l-1 -18q-48 -4 -111 -12l-2 -242l-158 4v224l-221 -23zM1010 375l118 10q5 273 7 363q-29 -78 -60.5 -171.5t-48.5 -147.5z" />
<glyph unicode="&#xbf;" horiz-adv-x="765" d="M41 299q0 71 19.5 137.5t50 118.5t67.5 102.5t71 100t61 100.5t38.5 114t1.5 132q48 -4 101.5 -4t82.5 2l29 2q30 -64 21.5 -139.5t-38 -141t-72.5 -139t-83 -134.5t-68 -127.5t-28 -117.5q0 -117 84 -117q42 0 75.5 45t32.5 140l234 8q3 -220 -93.5 -328t-262.5 -108 q-157 0 -240.5 89t-83.5 265zM310.5 1357.5q3.5 55.5 47.5 94.5q42 39 101.5 36.5t101.5 -44.5q43 -43 42.5 -101.5t-44.5 -95.5q-47 -42 -106 -37t-103 50q-43 42 -39.5 97.5z" />
<glyph unicode="&#xc0;" horiz-adv-x="808" d="M-20 12q56 324 132.5 674t124.5 538l48 189l313 19q34 -267 80 -609.5t75 -552.5l29 -209l-229 -34l-35 266q-151 -6 -260 -19l-51 -278zM266 1769l131 52q37 -55 73.5 -117t54.5 -96l18 -35l-125 -29q-38 49 -76 105.5t-57 88.5zM305 498q91 0 182 8q-51 380 -67 532 q-84 -362 -115 -540z" />
<glyph unicode="&#xc1;" horiz-adv-x="808" d="M-20 12q56 324 132.5 674t124.5 538l48 189l313 19q34 -267 80 -609.5t75 -552.5l29 -209l-229 -34l-35 266q-151 -6 -260 -19l-51 -278zM305 498q91 0 182 8q-51 380 -67 532q-84 -362 -115 -540zM336 1573q61 125 145 248l131 -52q-65 -114 -151 -225q-78 15 -125 29z " />
<glyph unicode="&#xc2;" horiz-adv-x="808" d="M-20 12q56 324 132.5 674t124.5 538l48 189l313 19q34 -267 80 -609.5t75 -552.5l29 -209l-229 -34l-35 266q-151 -6 -260 -19l-51 -278zM231 1548q68 113 160 226h117q41 -50 80.5 -106.5t58.5 -87.5l19 -32l-123 -22q-54 63 -94 121q-32 -45 -93 -121q-74 10 -125 22z M305 498q91 0 182 8q-51 380 -67 532q-84 -362 -115 -540z" />
<glyph unicode="&#xc3;" horiz-adv-x="808" d="M-20 12q56 324 132.5 674t124.5 538l48 189l313 19q34 -267 80 -609.5t75 -552.5l29 -209l-229 -34l-35 266q-151 -6 -260 -19l-51 -278zM158 1589q1 4 2.5 10.5t7 25t12.5 35.5t20 38t28.5 36t37.5 25t47 10q38 0 73.5 -17.5t64.5 -34.5t51 -17q23 0 40 20t23 40l6 20 q2 0 22 -6.5t50 -20t49 -27.5q-2 -7 -6 -18.5t-19 -41t-31 -52.5t-42.5 -41.5t-54.5 -18.5q-44 0 -78.5 17.5t-61.5 35t-51 17.5q-21 0 -35.5 -17.5t-18.5 -34.5l-5 -18q-37 5 -70 14t-47 15zM305 498q91 0 182 8q-51 380 -67 532q-84 -362 -115 -540z" />
<glyph unicode="&#xc4;" horiz-adv-x="808" d="M-20 12q56 324 132.5 674t124.5 538l48 189l313 19q34 -267 80 -609.5t75 -552.5l29 -209l-229 -34l-35 266q-151 -6 -260 -19l-51 -278zM186 1671q2 43 31.5 73t71.5 30q44 0 74.5 -33t27.5 -76q-3 -46 -33.5 -74t-74.5 -28q-42 0 -70.5 31.5t-26.5 76.5zM305 498 q91 0 182 8q-51 380 -67 532q-84 -362 -115 -540zM500 1645q3 44 34 71t74 27q41 0 70 -32t27 -75q-1 -48 -33 -73t-78 -25q-41 0 -68.5 31.5t-25.5 75.5z" />
<glyph unicode="&#xc5;" horiz-adv-x="808" d="M-20 12q56 324 132.5 674t124.5 538l48 189l313 19q34 -267 80 -609.5t75 -552.5l29 -209l-229 -34l-35 266q-151 -6 -260 -19l-51 -278zM291 1714q0 64 49.5 108t116.5 44q70 0 115.5 -46.5t45.5 -113.5q0 -70 -52 -114t-122 -44q-71 0 -112 45t-41 121zM305 498 q91 0 182 8q-51 380 -67 532q-84 -362 -115 -540zM408 1708q0 -27 12.5 -45t32.5 -18q22 0 35.5 16t13.5 43q0 32 -12.5 50t-34.5 18q-19 0 -33 -18.5t-14 -45.5z" />
<glyph unicode="&#xc6;" horiz-adv-x="1161" d="M-45 -2q105 330 234.5 687.5t206.5 549.5l77 192l621 25q2 -126 -4 -235q-146 -5 -277 -23l-14 -367q150 11 254 11q2 -102 2 -215q-133 -19 -262 -37q-7 -208 -7 -310q120 6 273 9q0 -92 -4 -213q-138 -19 -516 -60l2 156v117q-155 -6 -265 -19l-96 -284zM356 494 q92 0 185 8q0 308 6 526q-120 -310 -191 -534z" />
<glyph unicode="&#xc7;" horiz-adv-x="788" d="M57 727q0 149 19.5 273.5t62 227t118 160.5t177.5 58q93 0 154.5 -36.5t92.5 -108.5t41.5 -162t4.5 -215l-221 -11q1 53 0 112.5t-18.5 108t-47.5 48.5q-103 0 -118 -434q-9 -207 17.5 -331t80.5 -124q51 0 69.5 65.5t24.5 237.5l240 10q-2 -259 -62 -399t-207 -172 q-59 -195 -190 -283q-47 27 -82 76q4 4 10 11.5t23 30.5t30.5 47t27 57.5t18.5 64.5q-78 25 -131.5 86t-82 155.5t-40 201t-11.5 245.5z" />
<glyph unicode="&#xc8;" horiz-adv-x="720" d="M98 27q-4 407 0 717.5t10 495.5l7 185q303 27 534 27q2 -126 -4 -235q-145 -5 -276 -23l-15 -367q150 11 254 11q2 -102 2 -215q-133 -19 -262 -37q-6 -178 -6 -310q121 6 272 9q0 -92 -4 -213q-222 -27 -512 -45zM203 1769l131 52q37 -55 73.5 -117t54.5 -96l17 -35 l-125 -29q-38 49 -76 105.5t-56 88.5z" />
<glyph unicode="&#xc9;" horiz-adv-x="720" d="M98 27q-4 407 0 717.5t10 495.5l7 185q303 27 534 27q2 -126 -4 -235q-145 -5 -276 -23l-15 -367q150 11 254 11q2 -102 2 -215q-133 -19 -262 -37q-6 -178 -6 -310q121 6 272 9q0 -92 -4 -213q-222 -27 -512 -45zM264 1573q62 125 146 248l131 -52q-66 -114 -152 -225 q-78 15 -125 29z" />
<glyph unicode="&#xca;" horiz-adv-x="720" d="M98 27q-4 407 0 717.5t10 495.5l7 185q303 27 534 27q2 -126 -4 -235q-145 -5 -276 -23l-15 -367q150 11 254 11q2 -102 2 -215q-133 -19 -262 -37q-6 -178 -6 -310q121 6 272 9q0 -92 -4 -213q-222 -27 -512 -45zM166 1575q68 112 160 225h116q41 -50 80.5 -106.5 t58.5 -87.5l19 -31l-123 -23q-54 63 -94 121q-39 -55 -92 -121q-74 11 -125 23z" />
<glyph unicode="&#xcb;" horiz-adv-x="720" d="M98 27q-4 407 0 717.5t10 495.5l7 185q303 27 534 27q2 -126 -4 -235q-145 -5 -276 -23l-15 -367q150 11 254 11q2 -102 2 -215q-133 -19 -262 -37q-6 -178 -6 -310q121 6 272 9q0 -92 -4 -213q-222 -27 -512 -45zM143 1671q2 43 31.5 73t71.5 30q44 0 74.5 -33t27.5 -76 q-3 -46 -33.5 -74t-74.5 -28q-42 0 -70.5 31.5t-26.5 76.5zM457 1645q3 44 34 71t74 27q41 0 70 -32t27 -75q-1 -48 -33 -73t-78 -25q-41 0 -68.5 31.5t-25.5 75.5z" />
<glyph unicode="&#xcc;" horiz-adv-x="460" d="M94 1753l131 51q37 -55 73.5 -117t54.5 -97l18 -34q-21 -6 -52 -13t-52 -11l-21 -4q-38 49 -76 105.5t-57 88.5zM95.5 751q1.5 307 4.5 479l2 173l258 14q-6 -253 -11.5 -599.5t-8.5 -566.5l-2 -220l-242 -11q-2 424 -0.5 731z" />
<glyph unicode="&#xcd;" horiz-adv-x="460" d="M95.5 751q1.5 307 4.5 479l2 173l258 14q-6 -253 -11.5 -599.5t-8.5 -566.5l-2 -220l-242 -11q-2 424 -0.5 731zM121 1528q61 125 145 248l131 -52q-65 -114 -151 -225q-78 15 -125 29z" />
<glyph unicode="&#xce;" horiz-adv-x="460" d="M16 1575q68 112 160 225h117q41 -50 80.5 -106.5t58.5 -87.5l19 -31l-123 -23q-59 70 -95 121q-39 -55 -92 -121q-74 11 -125 23zM95.5 751q1.5 307 4.5 479l2 173l258 14q-6 -253 -11.5 -599.5t-8.5 -566.5l-2 -220l-242 -11q-2 424 -0.5 731z" />
<glyph unicode="&#xcf;" horiz-adv-x="460" d="M-27 1651q2 43 31.5 72.5t71.5 29.5q44 0 74.5 -32.5t27.5 -75.5q-3 -46 -33.5 -74.5t-74.5 -28.5q-42 0 -70.5 32t-26.5 77zM95.5 751q1.5 307 4.5 479l2 173l258 14q-6 -253 -11.5 -599.5t-8.5 -566.5l-2 -220l-242 -11q-2 424 -0.5 731zM287 1624q3 44 34 71t74 27 q41 0 70 -31.5t27 -74.5q-1 -48 -33 -73t-78 -25q-41 0 -68.5 31t-25.5 75z" />
<glyph unicode="&#xd0;" horiz-adv-x="890" d="M18 618q-1 49 0.5 89.5t3.5 56.5l1 16q40 4 108 6q3 172 3.5 328.5t-0.5 227.5l-1 71q149 19 268 -3.5t200.5 -80t135.5 -146.5t77 -199.5t20 -242.5q-8 -393 -187 -587t-534 -164q7 190 16 633zM358 262q105 9 160.5 134t61.5 325q7 421 -191 432q-12 -244 -16 -360h98 q2 -7 4 -20t4.5 -54t-4.5 -80q-18 -2 -108 -6q-9 -322 -9 -371z" />
<glyph unicode="&#xd1;" horiz-adv-x="931" d="M94.5 704.5q0.5 314.5 3.5 497.5l2 182q137 7 297 19q80 -341 203 -811q4 517 -2 833l227 -2q15 -541 -8 -1403q-107 0 -254 -4q-159 497 -241 899q-2 -205 0 -438t5 -364l3 -131l-232 -13q-4 421 -3.5 735.5zM201 1573q1 4 2.5 10.5t7 25t12.5 35.5t20 38t28.5 36 t37.5 25t47 10q38 0 73.5 -17.5t64.5 -35t51 -17.5q23 0 40 20t23 40l6 20q2 0 22 -6.5t50 -19.5t49 -27q-2 -7 -6 -18.5t-19 -41t-31 -52.5t-42.5 -41.5t-54.5 -18.5q-44 0 -78.5 17.5t-61.5 35t-51 17.5q-21 0 -35.5 -17.5t-19.5 -34.5l-4 -18q-37 5 -70 14t-47 15z" />
<glyph unicode="&#xd2;" horiz-adv-x="849" d="M55 709q5 156 29 283t68 228t115.5 156.5t166.5 55.5q365 0 354 -707q-18 -733 -380 -741q-102 -2 -175.5 53t-113 156t-55 229.5t-9.5 286.5zM287 1769l131 52q37 -55 73.5 -117t54.5 -96l17 -35l-125 -29q-38 49 -76 105.5t-56 88.5zM307 523.5q4 -83.5 16.5 -148 t35.5 -100.5t55 -35q62 1 92 131t33 342q10 442 -99 442q-37 1 -65 -58t-44.5 -157.5t-23.5 -232.5q-4 -100 0 -183.5z" />
<glyph unicode="&#xd3;" horiz-adv-x="849" d="M55 709q5 156 29 283t68 228t115.5 156.5t166.5 55.5q365 0 354 -707q-18 -733 -380 -741q-102 -2 -175.5 53t-113 156t-55 229.5t-9.5 286.5zM307 523.5q4 -83.5 16.5 -148t35.5 -100.5t55 -35q62 1 92 131t33 342q10 442 -99 442q-37 1 -65 -58t-44.5 -157.5 t-23.5 -232.5q-4 -100 0 -183.5zM369 1573q61 125 145 248l131 -52q-65 -114 -151 -225q-78 15 -125 29z" />
<glyph unicode="&#xd4;" horiz-adv-x="849" d="M55 709q5 156 29 283t68 228t115.5 156.5t166.5 55.5q365 0 354 -707q-18 -733 -380 -741q-102 -2 -175.5 53t-113 156t-55 229.5t-9.5 286.5zM244 1575q67 112 159 225h117q41 -50 80.5 -106.5t58.5 -87.5l19 -31l-123 -23q-54 63 -94 121q-39 -55 -92 -121 q-74 11 -125 23zM307 523.5q4 -83.5 16.5 -148t35.5 -100.5t55 -35q62 1 92 131t33 342q10 442 -99 442q-37 1 -65 -58t-44.5 -157.5t-23.5 -232.5q-4 -100 0 -183.5z" />
<glyph unicode="&#xd5;" horiz-adv-x="849" d="M55 709q5 156 29 283t68 228t115.5 156.5t166.5 55.5q365 0 354 -707q-18 -733 -380 -741q-102 -2 -175.5 53t-113 156t-55 229.5t-9.5 286.5zM158 1593q1 7 4 19.5t15 43.5t28 55t45 43.5t63 19.5q38 0 73.5 -17.5t64.5 -35t51 -17.5q23 0 40 20t23 40l6 20q2 0 22 -6.5 t50 -19.5t49 -27q-2 -7 -6 -18.5t-19 -41t-31 -52.5t-42.5 -41.5t-54.5 -18.5q-44 0 -78.5 17.5t-61.5 34.5t-51 17q-21 0 -35.5 -17t-18.5 -35l-5 -17q-37 5 -70 13.5t-47 14.5zM307 523.5q4 -83.5 16.5 -148t35.5 -100.5t55 -35q62 1 92 131t33 342q10 442 -99 442 q-37 1 -65 -58t-44.5 -157.5t-23.5 -232.5q-4 -100 0 -183.5z" />
<glyph unicode="&#xd6;" horiz-adv-x="849" d="M55 709q5 156 29 283t68 228t115.5 156.5t166.5 55.5q365 0 354 -707q-18 -733 -380 -741q-102 -2 -175.5 53t-113 156t-55 229.5t-9.5 286.5zM188 1671q2 43 31.5 73t71.5 30q44 0 74.5 -33t27.5 -76q-3 -46 -33.5 -74t-74.5 -28q-42 0 -70.5 31.5t-26.5 76.5z M307 523.5q4 -83.5 16.5 -148t35.5 -100.5t55 -35q62 1 92 131t33 342q10 442 -99 442q-37 1 -65 -58t-44.5 -157.5t-23.5 -232.5q-4 -100 0 -183.5zM502 1645q3 44 34 71t74 27q41 0 70 -32t27 -75q-1 -48 -33 -73t-78 -25q-41 0 -68.5 31.5t-25.5 75.5z" />
<glyph unicode="&#xd7;" horiz-adv-x="749" d="M86 772q44 45 82.5 82.5t55.5 52.5l16 15q59 -53 139 -127q21 21 64.5 65.5t68.5 69.5q41 -35 80 -70.5t58 -53.5l18 -18l-138 -137q43 -41 125 -123q-53 -71 -141 -147q-51 47 -131 123l-141 -142q-72 54 -148 144q57 55 135 137z" />
<glyph unicode="&#xd8;" horiz-adv-x="849" d="M59 739q5 156 29 283t68 228t115.5 156.5t166.5 55.5q56 0 103 -18l71 129l144 -51q-39 -113 -72 -195q116 -176 109 -571q-18 -734 -381 -742q-50 -3 -99 13l-73 -133q-24 6 -56.5 21.5t-53.5 27.5l-21 12l61 184q-128 183 -111 600zM311 553.5q4 -83.5 16.5 -148 t35.5 -100.5t55 -35q62 1 92 131t33 342q10 443 -99 443q-37 1 -65 -58t-44.5 -158t-23.5 -233q-4 -100 0 -183.5z" />
<glyph unicode="&#xd9;" horiz-adv-x="882" d="M76.5 856q3.5 203 10.5 364l7 162l254 -12q-2 -39 -4.5 -107.5t-7 -290.5t1.5 -427q0 -121 10.5 -181t38.5 -77q34 -20 69.5 -10.5t65.5 45.5q0 296 1.5 570.5t2.5 401.5l2 127l254 11q-5 -261 -9 -617t-5 -581l-2 -226l-242 -12q0 17 -1 52.5t-1 55.5q-33 -41 -100 -60 t-139.5 -2.5t-112.5 71.5q-46 57 -65 130t-25 226q-7 184 -3.5 387zM283 1729l131 51q37 -55 73.5 -117t54.5 -97l17 -34l-125 -29q-38 49 -76 105.5t-56 88.5z" />
<glyph unicode="&#xda;" horiz-adv-x="882" d="M76.5 856q3.5 203 10.5 364l7 162l254 -12q-2 -39 -4.5 -107.5t-7 -290.5t1.5 -427q0 -121 10.5 -181t38.5 -77q34 -20 69.5 -10.5t65.5 45.5q0 296 1.5 570.5t2.5 401.5l2 127l254 11q-5 -261 -9 -617t-5 -581l-2 -226l-242 -12q0 17 -1 52.5t-1 55.5q-33 -41 -100 -60 t-139.5 -2.5t-112.5 71.5q-46 57 -65 130t-25 226q-7 184 -3.5 387zM303 1532q62 125 146 248l131 -51q-66 -115 -152 -226q-78 15 -125 29z" />
<glyph unicode="&#xdb;" horiz-adv-x="882" d="M76.5 856q3.5 203 10.5 364l7 162l254 -12q-2 -39 -4.5 -107.5t-7 -290.5t1.5 -427q0 -121 10.5 -181t38.5 -77q34 -20 69.5 -10.5t65.5 45.5q0 296 1.5 570.5t2.5 401.5l2 127l254 11q-5 -261 -9 -617t-5 -581l-2 -226l-242 -12q0 17 -1 52.5t-1 55.5q-33 -41 -100 -60 t-139.5 -2.5t-112.5 71.5q-46 57 -65 130t-25 226q-7 184 -3.5 387zM225 1548q68 113 160 226h117q41 -50 80 -106.5t58 -87.5l19 -32l-122 -22q-59 70 -95 121q-39 -55 -92 -121q-74 10 -125 22z" />
<glyph unicode="&#xdc;" horiz-adv-x="882" d="M76.5 856q3.5 203 10.5 364l7 162l254 -12q-2 -39 -4.5 -107.5t-7 -290.5t1.5 -427q0 -121 10.5 -181t38.5 -77q34 -20 69.5 -10.5t65.5 45.5q0 296 1.5 570.5t2.5 401.5l2 127l254 11q-5 -261 -9 -617t-5 -581l-2 -226l-242 -12q0 17 -1 52.5t-1 55.5q-33 -41 -100 -60 t-139.5 -2.5t-112.5 71.5q-46 57 -65 130t-25 226q-7 184 -3.5 387zM203 1663q2 43 31 72.5t71 29.5q44 0 75 -32.5t28 -75.5q-3 -46 -34 -74.5t-75 -28.5q-42 0 -70 32t-26 77zM516 1636q3 44 34.5 71.5t74.5 27.5q41 0 69.5 -32t26.5 -75q-1 -48 -33 -73t-78 -25 q-41 0 -68.5 31t-25.5 75z" />
<glyph unicode="&#xdd;" horiz-adv-x="763" d="M-18 1378l270 25q26 -148 57.5 -297.5t49.5 -225.5l18 -75l145 651l254 -45q-124 -488 -282 -1016q1 -108 3.5 -203t4.5 -136l2 -40l-250 -32q-2 246 -2 409q-65 224 -132.5 470.5t-102.5 380.5zM254 1536q61 125 145 248l131 -51q-65 -115 -151 -226q-78 15 -125 29z " />
<glyph unicode="&#xde;" horiz-adv-x="811" d="M106 12v1391l259 14l-7 -223q217 -28 317.5 -149t100.5 -306q0 -89 -24 -166.5t-73 -143.5t-132 -110.5t-193 -60.5q-10 -177 -10 -238q-18 -1 -46.5 -2.5t-92.5 -4t-99 -1.5zM348 514q80 1 131 59t56 144t-43 145.5t-138 63.5z" />
<glyph unicode="&#xdf;" horiz-adv-x="1107" d="M23 922q47 6 110 14q4 122 26.5 216t69 167.5t124.5 112t186 38.5q147 0 239 -77.5t92 -216.5q0 -60 -16 -116.5t-39 -99t-45.5 -81t-38.5 -78t-16 -74.5t24.5 -64t61 -48.5t80 -47t81.5 -58t65.5 -84t31.5 -122.5q8 -133 -68.5 -214.5t-224.5 -84.5q-156 -3 -232.5 80.5 t-87.5 247.5l205 10q7 -64 37.5 -94.5t73.5 -30.5q38 0 53.5 21t13.5 51q-3 33 -30 59.5t-65 44.5t-82 45t-81 58.5t-61.5 87.5t-24.5 129q0 68 26.5 132t60.5 125t44 103q18 71 -9.5 123.5t-90.5 52.5q-143 0 -156 -293q-18 -358 -18 -923l-221 -17q-8 352 2 711l-90 -4 q-2 11 -4 29.5t-5 71t-1 98.5z" />
<glyph unicode="&#xe0;" d="M-8 319q0 117 72 195t198 78q97 0 158 -33q2 69 2 96q0 85 -15 120.5t-51 35.5q-73 0 -82 -147l-196 10q0 168 76.5 264t205.5 96q58 0 106 -16t89.5 -52.5t64.5 -104.5t23 -163q0 -133 -5.5 -293.5t-10.5 -255t-4 -96.5l-207 -12l-2 92q-64 -57 -166 -57 q-122 0 -189 69.5t-67 173.5zM215 330q0 -34 23.5 -58t74.5 -24t74 27t23 69q0 32 -27 55t-70 23q-51 0 -74.5 -26.5t-23.5 -65.5zM223 1341l131 52q37 -55 73.5 -117t54.5 -96l18 -35l-125 -29q-38 49 -76 105.5t-57 88.5z" />
<glyph unicode="&#xe1;" d="M-8 319q0 117 72 195t198 78q97 0 158 -33q2 69 2 96q0 85 -15 120.5t-51 35.5q-73 0 -82 -147l-196 10q0 168 76.5 264t205.5 96q58 0 106 -16t89.5 -52.5t64.5 -104.5t23 -163q0 -133 -5.5 -293.5t-10.5 -255t-4 -96.5l-207 -12l-2 92q-64 -57 -166 -57 q-122 0 -189 69.5t-67 173.5zM215 330q0 -34 23.5 -58t74.5 -24t74 27t23 69q0 32 -27 55t-70 23q-51 0 -74.5 -26.5t-23.5 -65.5zM264 1157q62 125 146 248l131 -51q-66 -115 -152 -226q-78 15 -125 29z" />
<glyph unicode="&#xe2;" d="M-8 319q0 117 72 195t198 78q97 0 158 -33q2 69 2 96q0 85 -15 120.5t-51 35.5q-73 0 -82 -147l-196 10q0 168 76.5 264t205.5 96q58 0 106 -16t89.5 -52.5t64.5 -104.5t23 -163q0 -133 -5.5 -293.5t-10.5 -255t-4 -96.5l-207 -12l-2 92q-64 -57 -166 -57 q-122 0 -189 69.5t-67 173.5zM168 1141q68 112 160 225h116q41 -50 80.5 -106.5t58.5 -87.5l19 -31l-123 -23q-54 63 -94 121q-39 -55 -92 -121q-74 11 -125 23zM215 330q0 -34 23.5 -58t74.5 -24t74 27t23 69q0 32 -27 55t-70 23q-51 0 -74.5 -26.5t-23.5 -65.5z" />
<glyph unicode="&#xe3;" d="M-8 319q0 117 72 195t198 78q97 0 158 -33q2 69 2 96q0 85 -15 120.5t-51 35.5q-73 0 -82 -147l-196 10q0 168 76.5 264t205.5 96q58 0 106 -16t89.5 -52.5t64.5 -104.5t23 -163q0 -133 -5.5 -293.5t-10.5 -255t-4 -96.5l-207 -12l-2 92q-64 -57 -166 -57 q-122 0 -189 69.5t-67 173.5zM117 1161q1 4 2.5 10.5t7 25t12.5 35.5t20 38t28.5 36t37.5 25t47 10q38 0 73.5 -17.5t64.5 -34.5t51 -17q23 0 40 20t23 40l6 20q2 0 22 -6.5t50 -20t49 -27.5q-2 -7 -6 -18.5t-19 -41t-31 -52.5t-42.5 -41.5t-54.5 -18.5q-44 0 -78.5 17.5 t-61.5 35t-51 17.5q-21 0 -35.5 -17.5t-19.5 -34.5l-4 -18q-37 5 -70 14t-47 15zM215 330q0 -34 23.5 -58t74.5 -24t74 27t23 69q0 32 -27 55t-70 23q-51 0 -74.5 -26.5t-23.5 -65.5z" />
<glyph unicode="&#xe4;" d="M-8 319q0 117 72 195t198 78q97 0 158 -33q2 69 2 96q0 85 -15 120.5t-51 35.5q-73 0 -82 -147l-196 10q0 168 76.5 264t205.5 96q58 0 106 -16t89.5 -52.5t64.5 -104.5t23 -163q0 -133 -5.5 -293.5t-10.5 -255t-4 -96.5l-207 -12l-2 92q-64 -57 -166 -57 q-122 0 -189 69.5t-67 173.5zM143 1249q2 43 31.5 73t71.5 30q44 0 74.5 -33t27.5 -76q-3 -46 -33.5 -74t-74.5 -28q-42 0 -70.5 31.5t-26.5 76.5zM215 330q0 -34 23.5 -58t74.5 -24t74 27t23 69q0 32 -27 55t-70 23q-51 0 -74.5 -26.5t-23.5 -65.5zM457 1223q3 44 34 71 t74 27q41 0 70 -32t27 -75q-1 -48 -33 -73t-78 -25q-41 0 -68.5 31.5t-25.5 75.5z" />
<glyph unicode="&#xe5;" d="M-8 319q0 117 72 195t198 78q97 0 158 -33q2 69 2 96q0 85 -15 120.5t-51 35.5q-73 0 -82 -147l-196 10q0 168 76.5 264t205.5 96q58 0 106 -16t89.5 -52.5t64.5 -104.5t23 -163q0 -133 -5.5 -293.5t-10.5 -255t-4 -96.5l-207 -12l-2 92q-64 -57 -166 -57 q-122 0 -189 69.5t-67 173.5zM215 330q0 -34 23.5 -58t74.5 -24t74 27t23 69q0 32 -27 55t-70 23q-51 0 -74.5 -26.5t-23.5 -65.5zM219 1290q0 64 49.5 108t116.5 44q70 0 116 -46.5t46 -113.5q0 -70 -52 -114t-122 -44q-71 0 -112.5 45t-41.5 121zM336 1284q0 -27 12.5 -45 t32.5 -18q22 0 35.5 16t13.5 43q0 32 -12.5 50t-34.5 18q-19 0 -33 -18.5t-14 -45.5z" />
<glyph unicode="&#xe6;" horiz-adv-x="1093" d="M20 301q0 117 72.5 194.5t198.5 77.5q99 0 158 -32q2 69 2 96q0 86 -14.5 122t-49.5 36q-36 0 -58 -38.5t-26 -111.5l-197 10q0 171 69 266t196 95q153 0 204 -131q25 59 78 95.5t117 37.5q151 2 218 -138t32 -411q-203 -9 -350 -23q0 -200 80 -200q57 0 69 137l211 -18 q-3 -62 -22 -119t-54 -104.5t-91.5 -76t-127.5 -28.5q-67 0 -124.5 37t-80.5 96q-28 -55 -93 -90t-146 -35q-122 0 -196.5 76t-74.5 180zM250 319q0 -34 23.5 -57.5t74.5 -23.5q50 0 73 27t23 69q0 32 -26.5 55t-69.5 23q-51 0 -74.5 -27t-23.5 -66zM678 625q62 0 145 6 q-3 182 -63 182q-63 0 -82 -188z" />
<glyph unicode="&#xe7;" horiz-adv-x="671" d="M49 489q22 488 320 488q138 0 204.5 -112t47.5 -296l-197 -24q8 188 -57 188q-46 0 -67 -64.5t-28 -189.5q-14 -264 66 -264q36 0 57.5 47t24.5 117l203 -6q-6 -136 -57.5 -234t-147.5 -129q-17 -67 -68 -141.5t-127 -124.5q-47 17 -82 66q4 3 10 9t23 26t31 41.5 t29 54.5t22 67q-65 16 -109 59.5t-66 109t-29.5 141.5t-2.5 171z" />
<glyph unicode="&#xe8;" horiz-adv-x="688" d="M55 494q21 478 330 481q151 2 218 -138t32 -411q-203 -9 -350 -23q0 -200 80 -200q57 0 69 137l211 -18q-3 -62 -22 -119t-54 -104.5t-91.5 -76t-127.5 -28.5q-91 0 -153.5 38.5t-93.5 110t-42 156.5t-6 195zM205 1296l131 52q37 -55 73.5 -117t54.5 -97l17 -34l-125 -29 q-38 49 -76 105.5t-56 87.5zM293 582q63 0 145 6q-4 182 -63 182q-63 0 -82 -188z" />
<glyph unicode="&#xe9;" horiz-adv-x="688" d="M55 494q21 478 330 481q151 2 218 -138t32 -411q-203 -9 -350 -23q0 -200 80 -200q57 0 69 137l211 -18q-3 -62 -22 -119t-54 -104.5t-91.5 -76t-127.5 -28.5q-91 0 -153.5 38.5t-93.5 110t-42 156.5t-6 195zM262 1100q62 125 146 248l131 -52q-66 -114 -152 -225 q-78 15 -125 29zM293 582q63 0 145 6q-4 182 -63 182q-63 0 -82 -188z" />
<glyph unicode="&#xea;" horiz-adv-x="688" d="M55 494q21 478 330 481q151 2 218 -138t32 -411q-203 -9 -350 -23q0 -200 80 -200q57 0 69 137l211 -18q-3 -62 -22 -119t-54 -104.5t-91.5 -76t-127.5 -28.5q-91 0 -153.5 38.5t-93.5 110t-42 156.5t-6 195zM147 1122q68 113 160 226h117q41 -50 80.5 -106.5t58.5 -87.5 l19 -32l-123 -22q-54 63 -94 121q-32 -45 -93 -121q-74 10 -125 22zM293 582q63 0 145 6q-4 182 -63 182q-63 0 -82 -188z" />
<glyph unicode="&#xeb;" horiz-adv-x="688" d="M55 494q21 478 330 481q151 2 218 -138t32 -411q-203 -9 -350 -23q0 -200 80 -200q57 0 69 137l211 -18q-3 -62 -22 -119t-54 -104.5t-91.5 -76t-127.5 -28.5q-91 0 -153.5 38.5t-93.5 110t-42 156.5t-6 195zM127 1178q2 43 31 72.5t71 29.5q44 0 75 -33t28 -76 q-3 -46 -34 -74t-75 -28q-42 0 -70 32t-26 77zM293 582q63 0 145 6q-4 182 -63 182q-63 0 -82 -188zM440 1151q3 43 34 70.5t75 27.5q41 0 69.5 -31.5t26.5 -74.5q-1 -48 -32.5 -73.5t-77.5 -25.5q-41 0 -69 31.5t-26 75.5z" />
<glyph unicode="&#xec;" horiz-adv-x="411" d="M53 16l8 899l248 -10q-22 -480 -26 -882q-107 -7 -230 -7zM68 1276l131 51q37 -55 73.5 -117t53.5 -96l18 -35q-21 -6 -52 -13t-52 -11l-21 -4q-38 49 -76 105.5t-57 87.5z" />
<glyph unicode="&#xed;" horiz-adv-x="411" d="M53 16l8 899l248 -10q-22 -480 -26 -882q-107 -7 -230 -7zM88 1079q61 125 145 248l132 -51q-66 -114 -152 -225q-78 14 -125 28z" />
<glyph unicode="&#xee;" horiz-adv-x="411" d="M-10 1061q68 112 160 225h116q41 -50 80.5 -106.5t58.5 -87.5l19 -31l-123 -23q-54 63 -94 121q-39 -55 -92 -121q-74 11 -125 23zM53 16l8 899l248 -10q-22 -480 -26 -882q-107 -7 -230 -7z" />
<glyph unicode="&#xef;" horiz-adv-x="411" d="M-53 1178q2 43 31 72.5t71 29.5q44 0 75 -33t28 -76q-3 -46 -34 -74t-75 -28q-42 0 -70 32t-26 77zM53 16l8 899l248 -10q-22 -480 -26 -882q-107 -7 -230 -7zM260 1151q3 43 34 70.5t75 27.5q41 0 69.5 -31.5t26.5 -74.5q-1 -48 -33 -73.5t-78 -25.5q-41 0 -68.5 31.5 t-25.5 75.5z" />
<glyph unicode="&#xf0;" horiz-adv-x="706" d="M47 487q0 217 70.5 339t185.5 122q100 0 143 -80q0 171 -73 271l-140 -82q-33 31 -52.5 55t-22.5 32l-4 9q61 47 131 96q-53 50 -99 74q11 43 31.5 86.5t35.5 65.5l15 22q119 -42 201 -133l111 76q4 -17 53 -113q-35 -26 -92 -65q106 -176 116 -539q3 -133 -3.5 -239 t-27 -200t-55 -156t-90.5 -97t-131 -33q-157 3 -230 133t-73 356zM256 463q0 -115 26 -171t66 -59q40 -2 68 58.5t28 181.5q0 244 -90 244q-48 0 -73 -54t-25 -200z" />
<glyph unicode="&#xf1;" horiz-adv-x="757" d="M63 20l9 949l215 -6v-29q0 -45 2 -80q76 90 184 90q26 0 46.5 -4t49.5 -22.5t48.5 -50.5t34 -95.5t14.5 -150.5q0 -183 -3 -339.5t-7 -221.5l-3 -64h-225q4 340 4 518q0 81 -8.5 122.5t-20 50.5t-34.5 9q-72 0 -72 -135q-12 -293 -12 -541h-222zM113 1141q1 4 2.5 10.5 t7 25t12.5 35.5t20 38t28.5 36t37.5 25t47 10q38 0 73.5 -17.5t64.5 -35t51 -17.5q23 0 40 20t23 40l6 20q2 0 22 -6.5t50 -19.5t49 -27q-2 -7 -6 -18.5t-19 -41t-31 -52.5t-42.5 -41.5t-54.5 -18.5q-44 0 -78.5 17.5t-61.5 35t-51 17.5q-21 0 -35.5 -17.5t-19.5 -34.5 l-4 -18q-37 5 -70 14t-47 15z" />
<glyph unicode="&#xf2;" horiz-adv-x="737" d="M33 457q0 115 20 212.5t59 173.5t104 119.5t149 43.5q159 0 234 -123t75 -332q0 -111 -18 -204t-56 -168.5t-104 -118t-154 -42.5q-105 0 -176 58.5t-102 155t-31 225.5zM229 1329l131 51q37 -55 73.5 -116.5t54.5 -95.5l18 -35l-125 -29q-38 49 -76 105.5t-57 88.5z M262 459q0 -91 20 -153t60 -62q50 0 76 73t26 193q0 250 -79 250q-46 0 -74.5 -86t-28.5 -215z" />
<glyph unicode="&#xf3;" horiz-adv-x="737" d="M33 457q0 115 20 212.5t59 173.5t104 119.5t149 43.5q159 0 234 -123t75 -332q0 -111 -18 -204t-56 -168.5t-104 -118t-154 -42.5q-105 0 -176 58.5t-102 155t-31 225.5zM258 1135q61 124 145 247l132 -51q-66 -114 -152 -225q-78 15 -125 29zM262 459q0 -91 20 -153 t60 -62q50 0 76 73t26 193q0 250 -79 250q-46 0 -74.5 -86t-28.5 -215z" />
<glyph unicode="&#xf4;" horiz-adv-x="737" d="M33 457q0 115 20 212.5t59 173.5t104 119.5t149 43.5q159 0 234 -123t75 -332q0 -111 -18 -204t-56 -168.5t-104 -118t-154 -42.5q-105 0 -176 58.5t-102 155t-31 225.5zM164 1122q68 113 160 226h116q41 -50 80.5 -106.5t58.5 -87.5l19 -32l-123 -22q-54 63 -94 121 q-39 -55 -92 -121q-74 10 -125 22zM262 459q0 -91 20 -153t60 -62q50 0 76 73t26 193q0 250 -79 250q-46 0 -74.5 -86t-28.5 -215z" />
<glyph unicode="&#xf5;" horiz-adv-x="737" d="M33 457q0 115 20 212.5t59 173.5t104 119.5t149 43.5q159 0 234 -123t75 -332q0 -111 -18 -204t-56 -168.5t-104 -118t-154 -42.5q-105 0 -176 58.5t-102 155t-31 225.5zM102 1141q1 4 2.5 10.5t7 25t13 35.5t20.5 38t28 36t37.5 25t47.5 10q38 0 73 -17.5t64 -35 t51 -17.5q23 0 40.5 20t23.5 40l6 20q2 0 22 -6.5t50 -19.5t49 -27q-2 -7 -6.5 -18.5t-19 -41t-31 -52.5t-43 -41.5t-54.5 -18.5q-34 0 -64 11t-46.5 24t-38 24t-41.5 11q-21 0 -36 -17.5t-19 -34.5l-5 -18q-37 5 -70 14t-47 15zM262 459q0 -91 20 -153t60 -62q50 0 76 73 t26 193q0 250 -79 250q-46 0 -74.5 -86t-28.5 -215z" />
<glyph unicode="&#xf6;" horiz-adv-x="737" d="M33 457q0 115 20 212.5t59 173.5t104 119.5t149 43.5q159 0 234 -123t75 -332q0 -111 -18 -204t-56 -168.5t-104 -118t-154 -42.5q-105 0 -176 58.5t-102 155t-31 225.5zM141 1231q2 43 31.5 72.5t71.5 29.5q44 0 74.5 -32.5t27.5 -75.5q-3 -46 -33.5 -74.5t-74.5 -28.5 q-42 0 -70.5 32t-26.5 77zM262 459q0 -91 20 -153t60 -62q50 0 76 73t26 193q0 250 -79 250q-46 0 -74.5 -86t-28.5 -215zM455 1204q3 44 34 71.5t74 27.5q41 0 69.5 -32t26.5 -75q-1 -48 -32.5 -73t-77.5 -25q-41 0 -68.5 31t-25.5 75z" />
<glyph unicode="&#xf7;" horiz-adv-x="749" d="M84 528q-1 63 0 108.5t2 59.5l2 15q37 2 98.5 5t213.5 7.5t259 3.5q1 -6 3 -19t4.5 -58t-2.5 -97q-221 -7 -580 -25zM270 377q3 45 33.5 72.5t75.5 27.5q41 0 70 -32t26 -76q-1 -48 -32.5 -73.5t-77.5 -25.5q-42 0 -70 32t-25 75zM272 899q3 46 33.5 75.5t73.5 29.5 q44 0 74 -32t26 -75q0 -48 -31.5 -77t-76.5 -29q-43 0 -72 32t-27 76z" />
<glyph unicode="&#xf8;" horiz-adv-x="737" d="M47 457q0 115 20 212.5t59 173.5t104 119.5t149 43.5q20 0 65 -9l62 125l127 -53q-24 -88 -47 -151q102 -113 102 -367q0 -111 -18 -204t-56 -168.5t-104 -118t-154 -42.5q-30 0 -65 7l-58 -134q-24 6 -56.5 21.5t-53.5 27.5l-21 13l45 151q-100 114 -100 353zM276 459 q0 -91 20 -153t60 -62q48 0 70.5 68t32.5 198q2 16 2 49q0 84 -22 142.5t-60 58.5q-45 0 -74 -92t-29 -209z" />
<glyph unicode="&#xf9;" horiz-adv-x="755" d="M53 406q0 143 2.5 287t4.5 216l3 72l226 2q-8 -328 -8 -506q0 -96 18 -125.5t57 -29.5q70 0 70 170q1 33 2 87.5t3 197t1 251.5h230q1 -208 -2 -445.5t-6 -370.5l-3 -134l-211 -15q2 45 -4 117q-71 -102 -168 -102q-20 0 -39 3.5t-45.5 14t-48 33.5t-41 57t-30.5 91 t-11 129zM215 1350l131 51q37 -55 73.5 -117t54.5 -96l18 -35l-125 -29q-38 49 -76 105.5t-57 88.5z" />
<glyph unicode="&#xfa;" horiz-adv-x="755" d="M53 406q0 143 2.5 287t4.5 216l3 72l226 2q-8 -328 -8 -506q0 -96 18 -125.5t57 -29.5q70 0 70 170q1 33 2 87.5t3 197t1 251.5h230q1 -208 -2 -445.5t-6 -370.5l-3 -134l-211 -15q2 45 -4 117q-71 -102 -168 -102q-20 0 -39 3.5t-45.5 14t-48 33.5t-41 57t-30.5 91 t-11 129zM240 1141q61 125 145 248l131 -52q-65 -114 -151 -225q-78 15 -125 29z" />
<glyph unicode="&#xfb;" horiz-adv-x="755" d="M53 406q0 143 2.5 287t4.5 216l3 72l226 2q-8 -328 -8 -506q0 -96 18 -125.5t57 -29.5q70 0 70 170q1 33 2 87.5t3 197t1 251.5h230q1 -208 -2 -445.5t-6 -370.5l-3 -134l-211 -15q2 45 -4 117q-71 -102 -168 -102q-20 0 -39 3.5t-45.5 14t-48 33.5t-41 57t-30.5 91 t-11 129zM162 1157q68 112 160 225h116q41 -50 80.5 -106.5t58.5 -87.5l19 -31l-123 -22q-58 68 -94 120q-33 -47 -92 -120q-74 10 -125 22z" />
<glyph unicode="&#xfc;" horiz-adv-x="755" d="M53 406q0 143 2.5 287t4.5 216l3 72l226 2q-8 -328 -8 -506q0 -96 18 -125.5t57 -29.5q70 0 70 170q1 33 2 87.5t3 197t1 251.5h230q1 -208 -2 -445.5t-6 -370.5l-3 -134l-211 -15q2 45 -4 117q-71 -102 -168 -102q-20 0 -39 3.5t-45.5 14t-48 33.5t-41 57t-30.5 91 t-11 129zM119 1260q2 43 31 72.5t71 29.5q44 0 75 -33t28 -76q-3 -46 -34 -74t-75 -28q-42 0 -70 32t-26 77zM432 1233q3 43 34 70.5t75 27.5q41 0 69.5 -31.5t26.5 -74.5q-1 -48 -33 -73.5t-78 -25.5q-41 0 -68.5 31.5t-25.5 75.5z" />
<glyph unicode="&#xfd;" horiz-adv-x="743" d="M53 387q0 141 2 282.5t4 212.5l2 72l226 -14q-8 -326 -8 -500q0 -66 9.5 -101t23 -43.5t38.5 -8.5q31 0 50.5 40.5t19.5 125.5q1 34 2 92t2 204.5t0 254.5h227q-2 -458 -8 -914q-2 -126 -37.5 -219t-90.5 -140t-121.5 -63.5t-135 2t-127.5 64.5v264q3 -4 8.5 -11.5 t22.5 -26t35 -32.5t43.5 -25.5t50.5 -11.5q51 0 80 19.5t45 77.5t14 164q-34 -49 -73 -66.5t-95 -19.5q-25 0 -47.5 4t-54 23t-53.5 51.5t-38 95t-16 147.5zM233 1100q62 125 146 248l131 -52q-66 -114 -152 -225q-78 15 -125 29z" />
<glyph unicode="&#xfe;" horiz-adv-x="718" d="M78 -33q0 274 4 640t8 595l4 230l219 10q-2 -488 -2 -529l7 8q8 8 21 19.5t30.5 23t42 19.5t49.5 8q57 0 98.5 -34t65.5 -96t35.5 -139t11.5 -171q0 -106 -15 -197t-45 -164t-80.5 -115t-115.5 -42q-89 0 -125 76q-4 -242 -4 -388v-98q0 -1 -27.5 -3.5t-78 -4.5 t-101.5 -2q-2 123 -2 354zM301 360q0 -45 10.5 -64t36.5 -20q48 0 72 71t24 173q0 218 -73 223q-37 0 -58 -38q-12 -300 -12 -345z" />
<glyph unicode="&#xff;" horiz-adv-x="743" d="M53 387q0 141 2 282.5t4 212.5l2 72l226 -14q-8 -326 -8 -500q0 -66 9.5 -101t23 -43.5t38.5 -8.5q31 0 50.5 40.5t19.5 125.5q1 34 2 92t2 204.5t0 254.5h227q-2 -458 -8 -914q-2 -126 -37.5 -219t-90.5 -140t-121.5 -63.5t-135 2t-127.5 64.5v264q3 -4 8.5 -11.5 t22.5 -26t35 -32.5t43.5 -25.5t50.5 -11.5q51 0 80 19.5t45 77.5t14 164q-34 -49 -73 -66.5t-95 -19.5q-25 0 -47.5 4t-54 23t-53.5 51.5t-38 95t-16 147.5zM113 1239q2 43 31 72.5t71 29.5q44 0 74.5 -32.5t27.5 -75.5q-3 -46 -33.5 -74.5t-74.5 -28.5q-42 0 -70 32t-26 77 zM426 1212q3 44 34.5 71.5t74.5 27.5q41 0 69.5 -32t26.5 -75q-1 -48 -33 -73t-78 -25q-41 0 -68.5 31t-25.5 75z" />
<glyph unicode="&#x152;" horiz-adv-x="1159" d="M59 727q5 156 29 283t68 228t115.5 156.5t166.5 55.5q80 0 133 -35l77 5q76 6 134 9.5t149 7t161 3.5q1 -127 -5 -236q-145 -4 -276 -22l-14 -367q137 10 254 10q2 -102 2 -215q-133 -19 -262 -37q-7 -208 -7 -284q87 4 273 8q0 -92 -4 -213q-222 -27 -512 -45 q-56 -37 -129 -37q-102 -2 -175.5 53t-113 156t-55 229.5t-9.5 286.5zM311 541.5q4 -83.5 16.5 -148t35.5 -100.5t55 -35q62 1 92 131t33 342q10 443 -99 443q-37 1 -65 -58t-44.5 -158t-23.5 -233q-4 -100 0 -183.5z" />
<glyph unicode="&#x153;" horiz-adv-x="1099" d="M47 457q0 115 20 212.5t59 173.5t104 119.5t149 43.5q147 0 213 -142q75 108 199 111q151 2 217.5 -137.5t31.5 -411.5q-203 -9 -350 -23q0 -200 80 -200q58 0 70 137l211 -18q-3 -62 -22 -119t-54 -104.5t-91.5 -76t-127.5 -28.5q-139 0 -207 129q-29 -47 -79.5 -76 t-113.5 -29q-105 0 -176 58.5t-102 155t-31 225.5zM276 459q0 -91 20 -153t60 -62q48 0 70.5 68t32.5 198q2 16 2 49q0 84 -22 142.5t-60 58.5q-45 0 -74 -92t-29 -209zM698 582q64 0 146 6q-4 182 -64 182q-63 0 -82 -188z" />
<glyph unicode="&#x178;" horiz-adv-x="763" d="M-18 1378l270 25q26 -148 57.5 -297.5t49.5 -225.5l18 -75l145 651l254 -45q-124 -488 -282 -1016q1 -108 3.5 -203t4.5 -136l2 -40l-250 -32q-2 246 -2 409q-65 224 -132.5 470.5t-102.5 380.5zM123 1659q2 43 31 72.5t71 29.5q44 0 75 -32.5t28 -75.5q-3 -46 -34 -74.5 t-75 -28.5q-42 0 -70 32t-26 77zM436 1632q3 44 34.5 71.5t74.5 27.5q41 0 69.5 -32t26.5 -75q-1 -48 -33 -73t-78 -25q-41 0 -68.5 31t-25.5 75z" />
<glyph unicode="&#x2c6;" horiz-adv-x="686" d="M186 1163q68 113 160 226h117q41 -50 80.5 -106.5t58.5 -88.5l19 -31l-123 -22q-59 70 -95 121q-39 -55 -92 -121q-74 10 -125 22z" />
<glyph unicode="&#x2dc;" horiz-adv-x="796" d="M131 1182q1 4 2.5 10.5t7 25t13 35.5t20.5 38t28 36t37.5 25t47.5 10q38 0 73 -17.5t64 -35t51 -17.5q23 0 40.5 20t23.5 40l6 20q2 0 22 -6.5t50 -19.5t49 -27q-2 -7 -6.5 -18.5t-19 -41t-31 -52.5t-43 -41.5t-54.5 -18.5q-34 0 -64 11t-46.5 24t-38 24t-41.5 11 q-21 0 -36 -17.5t-20 -35.5l-4 -17q-37 5 -70 14t-47 15z" />
<glyph unicode="&#x2000;" horiz-adv-x="933" />
<glyph unicode="&#x2001;" horiz-adv-x="1866" />
<glyph unicode="&#x2002;" horiz-adv-x="933" />
<glyph unicode="&#x2003;" horiz-adv-x="1866" />
<glyph unicode="&#x2004;" horiz-adv-x="622" />
<glyph unicode="&#x2005;" horiz-adv-x="466" />
<glyph unicode="&#x2006;" horiz-adv-x="311" />
<glyph unicode="&#x2007;" horiz-adv-x="311" />
<glyph unicode="&#x2008;" horiz-adv-x="233" />
<glyph unicode="&#x2009;" horiz-adv-x="373" />
<glyph unicode="&#x200a;" horiz-adv-x="103" />
<glyph unicode="&#x2010;" horiz-adv-x="546" d="M84 424q-1 63 0 116t2 75l2 22q14 2 42.5 5t124 7.5t202.5 3.5q1 -10 2.5 -27t4 -72t-2.5 -105q-18 -7 -377 -25z" />
<glyph unicode="&#x2011;" horiz-adv-x="546" d="M84 424q-1 63 0 116t2 75l2 22q14 2 42.5 5t124 7.5t202.5 3.5q1 -10 2.5 -27t4 -72t-2.5 -105q-18 -7 -377 -25z" />
<glyph unicode="&#x2012;" horiz-adv-x="546" d="M84 424q-1 63 0 116t2 75l2 22q14 2 42.5 5t124 7.5t202.5 3.5q1 -10 2.5 -27t4 -72t-2.5 -105q-18 -7 -377 -25z" />
<glyph unicode="&#x2013;" horiz-adv-x="749" d="M84 424q-1 63 0 116t2 75l2 22q37 2 98.5 5t213.5 7.5t259 3.5q1 -10 3 -27t4.5 -72t-2.5 -105q-221 -7 -580 -25z" />
<glyph unicode="&#x2014;" horiz-adv-x="1005" d="M84 434q-1 64 0 114.5t2 69.5l2 19q66 2 170.5 5t327.5 7.5t329 3.5q2 -8 3.5 -23.5t4.5 -67t-3 -103.5q-472 -25 -836 -25z" />
<glyph unicode="&#x2018;" horiz-adv-x="352" d="M61 1540q29 6 65.5 11t58.5 7l22 1l63 -355l-135 -28z" />
<glyph unicode="&#x2019;" horiz-adv-x="348" d="M82 1255l57 351l148 -23l-68 -356z" />
<glyph unicode="&#x201a;" horiz-adv-x="268" d="M43 -129l57 350l148 -22l-68 -357z" />
<glyph unicode="&#x201c;" horiz-adv-x="532" d="M41 1540q29 6 65.5 11t57.5 7l22 1l64 -355l-135 -28zM287 1561l145 24l60 -352l-136 -29z" />
<glyph unicode="&#x201d;" horiz-adv-x="507" d="M41 1255l57 351l148 -23l-68 -356zM281 1169q13 68 27 158t22 145l8 56l149 -27l-75 -360z" />
<glyph unicode="&#x201e;" horiz-adv-x="507" d="M41 -129l57 350l148 -22l-68 -357zM281 -215q13 68 27 157.5t22 145.5l8 55l149 -26l-75 -361z" />
<glyph unicode="&#x2022;" horiz-adv-x="1222" d="M102 514q0 152 70 275.5t189.5 192.5t263.5 69q143 0 257 -73t176 -194t62 -264q-7 -121 -53 -221t-120.5 -165t-171 -100.5t-204.5 -35.5q-103 0 -191.5 42t-149 112.5t-94.5 164.5t-34 197z" />
<glyph unicode="&#x2026;" horiz-adv-x="1161" d="M47 178q3 62 43 101.5t98 39.5q59 0 98.5 -43t37.5 -102q-3 -66 -45.5 -103.5t-104.5 -37.5q-57 0 -93 42.5t-34 102.5zM420 201q5 64 48 105.5t107 41.5q63 0 106.5 -44.5t41.5 -106.5q-4 -70 -50 -110t-112 -40q-64 0 -103.5 45t-37.5 109zM819 178q3 62 43.5 101.5 t100.5 39.5q58 0 97.5 -43t37.5 -102q-3 -65 -46 -104t-104 -39q-58 0 -94.5 43.5t-34.5 103.5z" />
<glyph unicode="&#x202f;" horiz-adv-x="373" />
<glyph unicode="&#x2039;" horiz-adv-x="493" d="M61 412l9 250q62 48 138.5 106t122.5 92l46 33l45 -197q-36 -31 -83.5 -74t-76.5 -70l-29 -28q43 -55 92.5 -105.5t78.5 -73.5l28 -23l-47 -177q-62 47 -143 114t-131 110z" />
<glyph unicode="&#x203a;" horiz-adv-x="493" d="M61 709l50 176q62 -47 142 -114t129 -110l50 -43l-6 -249q-62 -48 -138.5 -106t-122.5 -92l-46 -34l-45 197q36 31 83 74t76 70l29 28q-43 55 -93 105.5t-79 74.5z" />
<glyph unicode="&#x205f;" horiz-adv-x="466" />
<glyph unicode="&#x20ac;" horiz-adv-x="894" d="M18 647q-1 63 0.5 106t3.5 55l1 11q49 2 100 4q26 623 358 623q74 0 129 -25t88 -68t52 -106.5t23.5 -133.5t0.5 -157l-221 -8q1 46 0 98t-18.5 94t-47.5 42q-49 0 -76 -86t-38 -262q70 2 211 2q1 -6 2.5 -17.5t4 -55t-2.5 -95.5q-88 -9 -221 -15q0 -169 27 -275t73 -106 q49 0 69 68.5t25 198.5l240 8q-3 -517 -334 -522q-79 -1 -138 29.5t-96 82.5t-61 134.5t-35 170t-16 205.5h-103z" />
<glyph unicode="&#x2122;" horiz-adv-x="1044" d="M23 1274v127q190 12 317 12q6 -62 0 -119q-35 -4 -88 -8l-4 -602l-131 -6q-2 274 -2 600zM409 1050.5q1 159.5 4 251.5l3 91q79 -1 194 -15q37 -242 70 -348q36 156 63 383h191q2 -31 3.5 -88t3.5 -248t-5 -383l-119 -6q4 258 -4 502q-9 -48 -35.5 -209t-34.5 -199 q-50 -12 -120 -18q-41 178 -84 383q-2 -107 -2 -222.5t1 -178.5l1 -62l-129 -8q-2 215 -1 374.5z" />
<glyph unicode="&#xe000;" horiz-adv-x="1034" d="M0 0v1034h1034v-1034h-1034z" />
</font>
</defs>
</svg>
