<?xml version="1.0" encoding="utf-8"?>
<!-- Generator: Adobe Illustrator 17.0.0, SVG Export Plug-In . SVG Version: 6.00 Build 0)  -->
<!DOCTYPE svg PUBLIC "-//W3C//DTD SVG 1.1//EN" "https://www.w3.org/Graphics/SVG/1.1/DTD/svg11.dtd">
<svg version="1.1" id="Layer_1" xmlns="https://www.w3.org/2000/svg" xmlns:xlink="https://www.w3.org/1999/xlink" x="0px" y="0px"
	 width="470.24px" height="167.312px" viewBox="0 0 470.24 167.312" enable-background="new 0 0 470.24 167.312"
	 xml:space="preserve">
<path d="M470.241,144.699c0,12.486-10.121,22.612-22.605,22.612H22.61C10.125,167.312,0,157.186,0,144.699V22.61
	C0,10.125,10.125,0,22.61,0h425.025c12.484,0,22.605,10.125,22.605,22.61L470.241,144.699L470.241,144.699z"/>
<path fill="#FFFFFF" d="M88.336,28.613H46.673c-4.992,0-9.041,4.046-9.041,9.041v92.303c0,4.996,4.049,9.045,9.041,9.045h41.663
	c4.996,0,9.046-4.049,9.046-9.045V37.654C97.382,32.659,93.332,28.613,88.336,28.613z M67.505,132.363
	c-3.325,0-6.021-2.695-6.021-6.024c0-3.325,2.695-6.021,6.021-6.021c3.329,0,6.024,2.695,6.024,6.021
	C73.529,129.668,70.834,132.363,67.505,132.363z M90.279,117.385H44.732V49.3h45.547V117.385z"/>
<g>
	<path fill="#FFFFFF" d="M133.201,52.277l-3.279,9.932h-4.217l10.728-31.579h4.921l10.775,31.581h-4.358l-3.372-9.932h-11.198
		V52.277z M143.555,49.092l-3.138-9.091c-0.657-2.064-1.127-3.936-1.594-5.762h-0.136c-0.422,1.826-0.939,3.797-1.548,5.714
		l-3.091,9.139H143.555z"/>
	<path fill="#FFFFFF" d="M156.347,39.532l4.451,12.7c0.751,2.106,1.361,3.982,1.83,5.855h0.14c0.515-1.871,1.168-3.749,1.919-5.855
		l4.406-12.7h4.311l-8.905,22.677h-3.937l-8.616-22.677H156.347z"/>
	<path fill="#FFFFFF" d="M192.377,56.777c0,1.966,0.096,3.883,0.33,5.431h-3.701l-0.377-2.857h-0.139
		c-1.215,1.783-3.701,3.372-6.935,3.372c-4.592,0-6.932-3.231-6.932-6.51c0-5.484,4.873-8.482,13.632-8.436v-0.469
		c0-1.871-0.517-5.297-5.152-5.244c-2.159,0-4.356,0.605-5.952,1.684l-0.94-2.769c1.878-1.168,4.641-1.965,7.498-1.965
		c6.985,0,8.668,4.732,8.668,9.279L192.377,56.777L192.377,56.777z M188.347,50.636c-4.499-0.092-9.601,0.703-9.601,5.109
		c0,2.716,1.778,3.936,3.837,3.936c3.002,0,4.92-1.877,5.578-3.796c0.14-0.423,0.186-0.891,0.186-1.314V50.636z"/>
	<path fill="#FFFFFF" d="M200.712,35.362c-1.542,0-2.575-1.215-2.575-2.67c0-1.453,1.079-2.621,2.67-2.621
		c1.595,0,2.626,1.168,2.626,2.621c0,1.454-1.031,2.67-2.669,2.67H200.712z M198.749,62.208V39.532h4.123V62.21h-4.123V62.208z"/>
	<path fill="#FFFFFF" d="M209.476,28.945h4.123V62.21h-4.123V28.945z"/>
	<path fill="#FFFFFF" d="M236.182,56.777c0,1.966,0.095,3.883,0.328,5.431h-3.705l-0.374-2.857h-0.137
		c-1.219,1.783-3.701,3.372-6.937,3.372c-4.587,0-6.932-3.231-6.932-6.51c0-5.484,4.873-8.482,13.637-8.436v-0.469
		c0-1.871-0.517-5.297-5.158-5.244c-2.152,0-4.358,0.605-5.945,1.684l-0.941-2.769c1.874-1.168,4.641-1.965,7.498-1.965
		c6.98,0,8.668,4.732,8.668,9.279v8.482H236.182z M232.153,50.636c-4.499-0.092-9.608,0.703-9.608,5.109
		c0,2.716,1.782,3.936,3.844,3.936c3.001,0,4.92-1.877,5.576-3.796c0.142-0.423,0.188-0.891,0.188-1.314V50.636z"/>
	<path fill="#FFFFFF" d="M242.548,28.945h4.125V43.14h0.097c1.45-2.528,4.073-4.123,7.726-4.123c5.626,0,9.561,4.685,9.561,11.526
		c0,8.152-5.154,12.181-10.213,12.181c-3.278,0-5.859-1.267-7.588-4.265h-0.1l-0.234,3.749h-3.555
		c0.14-1.549,0.183-3.841,0.183-5.855V28.945H242.548z M246.673,53.122c0,0.512,0.048,1.027,0.145,1.497
		c0.793,2.856,3.232,4.827,6.181,4.827c4.359,0,6.886-3.513,6.886-8.716c0-4.591-2.341-8.476-6.745-8.476
		c-2.81,0-5.439,1.966-6.234,5.056c-0.137,0.517-0.234,1.08-0.234,1.735v4.077H246.673z"/>
	<path fill="#FFFFFF" d="M268.973,28.945h4.122V62.21h-4.122V28.945z"/>
	<path fill="#FFFFFF" d="M282.043,51.573c0.092,5.578,3.605,7.871,7.731,7.871c2.955,0,4.779-0.515,6.28-1.125l0.746,2.903
		c-1.449,0.657-3.982,1.454-7.589,1.454c-6.934,0-11.15-4.639-11.15-11.431c0-6.887,4.074-12.276,10.687-12.276
		c7.395,0,9.32,6.515,9.32,10.68c0,0.844-0.048,1.501-0.141,1.97L282.043,51.573z M294.083,48.623
		c0.045-2.578-1.08-6.704-5.672-6.704c-4.21,0-5.995,3.842-6.324,6.704C282.087,48.623,294.083,48.623,294.083,48.623z"/>
	<path fill="#FFFFFF" d="M321.865,62.725c-6.091,0-10.872-4.499-10.872-11.667c0-7.59,5.016-12.041,11.246-12.041
		c6.51,0,10.915,4.732,10.915,11.619c0,8.436-5.857,12.089-11.243,12.089H321.865z M322.004,59.634c3.936,0,6.884-3.701,6.884-8.857
		c0-3.842-1.917-8.669-6.791-8.669c-4.829,0-6.934,4.499-6.934,8.81c0,4.968,2.81,8.716,6.794,8.716H322.004z"/>
	<path fill="#FFFFFF" d="M338.124,45.673c0-2.393-0.053-4.265-0.194-6.141h3.657l0.233,3.7h0.093
		c1.125-2.104,3.749-4.215,7.494-4.215c3.139,0,8.02,1.875,8.02,9.653v13.538h-4.13V49.135c0-3.648-1.356-6.745-5.249-6.745
		c-2.67,0-4.776,1.922-5.527,4.217c-0.188,0.515-0.281,1.268-0.281,1.923v13.678h-4.118V45.673H338.124z"/>
	<path fill="#FFFFFF" d="M378.55,34.1v5.431h5.899v3.139h-5.899v12.229c0,2.81,0.796,4.404,3.089,4.404
		c1.128,0,1.786-0.092,2.396-0.282l0.183,3.139c-0.791,0.281-2.059,0.563-3.649,0.563c-1.927,0-3.473-0.657-4.456-1.73
		c-1.12-1.268-1.592-3.284-1.592-5.955v-12.37h-3.511V39.53h3.511v-4.17L378.55,34.1z"/>
	<path fill="#FFFFFF" d="M388.856,28.945h4.123v14.148h0.091c0.655-1.173,1.687-2.246,2.954-2.903
		c1.219-0.751,2.669-1.172,4.219-1.172c3.043,0,7.911,1.875,7.911,9.7V62.21h-4.118V49.187c0-3.7-1.361-6.751-5.251-6.751
		c-2.669,0-4.729,1.877-5.525,4.125c-0.236,0.563-0.284,1.172-0.284,1.97v13.678h-4.123V28.945H388.856z"/>
	<path fill="#FFFFFF" d="M416.965,51.573c0.093,5.578,3.607,7.871,7.73,7.871c2.951,0,4.78-0.515,6.283-1.125l0.746,2.903
		c-1.454,0.657-3.984,1.454-7.593,1.454c-6.931,0-11.149-4.639-11.149-11.431c0-6.887,4.077-12.276,10.684-12.276
		c7.401,0,9.326,6.515,9.326,10.68c0,0.844-0.048,1.501-0.141,1.97L416.965,51.573z M429.006,48.623
		c0.04-2.578-1.08-6.704-5.671-6.704c-4.214,0-6.003,3.842-6.326,6.704C417.009,48.623,429.006,48.623,429.006,48.623z"/>
</g>
<g>
	<path fill="#FFFFFF" d="M143.739,74.983l-18.697,55.038h8.562l5.583-16.9h18.104l5.74,16.9h8.799l-18.778-55.038
		C153.051,74.983,143.739,74.983,143.739,74.983z M148.176,84.033c0.631,2.456,1.312,5.008,2.188,7.764l5.039,14.593h-14.341
		l4.969-14.688C146.788,89.32,147.506,86.748,148.176,84.033z"/>
	<path fill="#FFFFFF" d="M196.025,89.251c-5.672,0-10.215,2.189-13.238,6.35l-0.331-5.475h-7.616l0.045,0.701
		c0.223,3.41,0.318,7.164,0.318,12.553v42.422h8.325v-19.797c2.584,3.092,6.71,4.891,11.383,4.891c4.867,0,9.351-1.907,12.619-5.364
		c3.647-3.855,5.572-9.396,5.572-16.017c0-5.85-1.671-10.908-4.839-14.624C205.16,91.253,200.817,89.251,196.025,89.251z
		 M193.95,96.144c7.423,0,10.745,6.877,10.745,13.69c0,8.79-4.239,14.249-11.061,14.249c-4.658,0-8.688-3.17-9.809-7.726
		c-0.193-0.708-0.297-1.642-0.297-2.697v-6.697c0-0.606,0.136-1.341,0.266-2.054c0.041-0.228,0.085-0.455,0.119-0.676
		C185.154,99.468,189.277,96.144,193.95,96.144z"/>
	<path fill="#FFFFFF" d="M238.905,89.251c-5.671,0-10.214,2.189-13.239,6.35l-0.331-5.475h-7.615l0.044,0.701
		c0.225,3.413,0.32,7.164,0.32,12.553v42.422h8.329v-19.797c2.582,3.092,6.705,4.891,11.378,4.891c4.869,0,9.352-1.907,12.624-5.364
		c3.643-3.855,5.569-9.396,5.569-16.017c0-5.85-1.674-10.908-4.84-14.624C248.041,91.253,243.696,89.251,238.905,89.251z
		 M236.833,96.144c7.42,0,10.742,6.877,10.742,13.69c0,8.79-4.24,14.249-11.061,14.249c-4.656,0-8.689-3.17-9.81-7.726
		c-0.193-0.708-0.293-1.642-0.293-2.697v-6.697c0-0.609,0.132-1.348,0.266-2.061c0.041-0.225,0.082-0.449,0.12-0.67
		C228.034,99.468,232.157,96.144,236.833,96.144z"/>
	<path fill="#FFFFFF" d="M292.623,98.304c-7.771-3.01-10.262-5.377-10.262-9.75c0-3.683,2.926-7.395,9.465-7.395
		c5.395,0,8.847,1.876,9.775,2.453l0.707,0.436l2.349-6.949l-0.465-0.272c-1.395-0.818-5.369-2.721-12.126-2.721
		c-10.62,0-18.035,6.27-18.035,15.243c0,7.237,4.644,12.294,14.617,15.919c7.065,2.642,9.695,5.348,9.695,9.986
		c0,5.25-4.057,8.509-10.584,8.509c-4.251,0-8.626-1.24-12.002-3.403l-0.722-0.464l-2.235,7.11l0.411,0.272
		c3.142,2.099,9.061,3.617,14.072,3.617c14.312,0,19.387-8.727,19.387-16.2C306.669,106.993,302.601,102.24,292.623,98.304z"/>
	<path fill="#FFFFFF" d="M321.66,80.645l-8.168,2.563v6.918h-5.977v6.656h5.977v20.387c0,4.928,0.943,8.382,2.884,10.565
		c1.861,2.04,4.722,3.163,8.056,3.163c3.149,0,5.385-0.621,6.437-0.995l0.466-0.165l-0.398-6.667l-0.798,0.246
		c-1.052,0.323-2.135,0.448-3.873,0.448c-3.228,0-4.605-2.043-4.605-6.835V96.782h10.044v-6.656h-10.044L321.66,80.645
		L321.66,80.645z"/>
	<path fill="#FFFFFF" d="M352.34,89.251c-11.651,0-19.787,8.695-19.787,21.141c0,12.074,7.873,20.503,19.149,20.503h0.078
		c9.532,0,19.787-6.64,19.787-21.221c0-5.93-1.834-11.022-5.306-14.729C362.767,91.222,357.953,89.251,352.34,89.251z M352.1,95.825
		c7.493,0,10.901,7.303,10.901,14.091c0,8.348-4.653,14.406-11.059,14.406h-0.08c-6.316,0-10.901-5.958-10.901-14.167
		C340.961,103.024,344.405,95.825,352.1,95.825z"/>
	<path fill="#FFFFFF" d="M397.072,89.636l-0.499-0.127c-0.734-0.183-1.333-0.259-2.072-0.259c-4.356,0-8.265,2.564-10.441,6.703
		l-0.245-5.829h-7.472l0.048,0.701c0.221,3.296,0.315,6.997,0.315,11.992l-0.078,27.203h8.328v-21.223
		c0-1.155,0.08-2.248,0.228-3.227c0.941-5.099,4.38-8.393,8.763-8.393c0.853,0,1.524,0.07,2.235,0.139l0.89,0.092L397.072,89.636
		L397.072,89.636z"/>
	<path fill="#FFFFFF" d="M415.796,89.172c-11.086,0-18.831,8.857-18.831,21.539c0,12.213,7.703,20.106,19.626,20.106
		c6.27,0,10.631-1.376,13.185-2.529l0.5-0.227l-1.599-6.204l-0.696,0.28c-2.27,0.923-5.284,1.866-10.434,1.866
		c-3.617,0-11.96-1.193-12.472-12.074l26.879,0.08l0.107-0.531c0.17-0.846,0.252-1.986,0.252-3.476
		C432.314,99.317,427.988,89.172,415.796,89.172z M415.239,95.507c2.536,0,4.594,0.784,6.114,2.332
		c2.395,2.438,2.815,6.028,2.867,7.751h-18.988C406.001,100.782,409.01,95.507,415.239,95.507z"/>
</g>
</svg>
