<?xml version="1.0" encoding="utf-8"?>
<!-- Generator: Adobe Illustrator 17.0.0, SVG Export Plug-In . SVG Version: 6.00 Build 0)  -->
<!DOCTYPE svg PUBLIC "-//W3C//DTD SVG 1.1//EN" "https://www.w3.org/Graphics/SVG/1.1/DTD/svg11.dtd">
<svg version="1.1" id="Layer_1" xmlns="https://www.w3.org/2000/svg" xmlns:xlink="https://www.w3.org/1999/xlink" x="0px" y="0px"
	 width="5000px" height="630px" viewBox="0 0 5000 630" enable-background="new 0 0 5000 630" xml:space="preserve">
<g opacity="0.3">
	<path fill="#FFFFFF" d="M1012.411,425.546c-1.391-9.471-8.258-14.288-15.53-19.346c-2.498-1.737-0.472-5.29,0.285-7.406
		c3.073-8.59,5.638-20.395-1.329-27.858c-2.062-2.208-5.104-3.957-7.921-4.961c-5.561-1.981-13.081-2.103-18.867-1.355
		c-19.505,2.52-32.237,17.727-39.058,35.078c-5.649,14.371-8.744,37.623-0.2,51.819c2.878,4.783,7.858,9.529,12.674,12.293
		c8.928,5.125,20.73,5.276,30.58,3.214c4.443-0.93,8.909-2.708,12.903-4.832C998.902,455.302,1014.845,442.111,1012.411,425.546z
		 M933.662,421.686c0-4.198,3.403-7.6,7.6-7.6c4.198,0,7.6,3.402,7.6,7.6c0,4.197-3.403,7.6-7.6,7.6
		C937.065,429.287,933.662,425.884,933.662,421.686z M945.261,452.403c-4.197,0-7.6-3.403-7.6-7.6c0-4.198,3.403-7.6,7.6-7.6
		c4.197,0,7.6,3.402,7.6,7.6C952.861,449,949.458,452.403,945.261,452.403z M950.789,405.644c-4.198,0-7.6-3.402-7.6-7.6
		c0-4.197,3.403-7.6,7.6-7.6c4.197,0,7.6,3.403,7.6,7.6C958.389,402.242,954.987,405.644,950.789,405.644z M962.182,382.844
		c0-4.197,3.403-7.6,7.6-7.6c4.197,0,7.6,3.403,7.6,7.6c0,4.198-3.403,7.6-7.6,7.6C965.585,390.444,962.182,387.042,962.182,382.844
		z M983.219,444.502c-4.829,4.829-11.774,5.713-15.511,1.976c-3.738-3.737-2.853-10.682,1.976-15.512
		c4.829-4.829,11.774-5.713,15.511-1.976C988.933,432.728,988.048,439.673,983.219,444.502z"/>
</g>
<g opacity="0.3">
	<path fill="#FFFFFF" d="M2257.125,172.422c-2.448-16.669-14.534-25.146-27.333-34.048c-4.396-3.058-0.831-9.31,0.502-13.035
		c5.409-15.119,9.923-35.895-2.339-49.03c-3.629-3.887-8.982-6.965-13.94-8.732c-9.788-3.486-23.022-3.701-33.207-2.385
		c-34.329,4.435-56.737,31.199-68.742,61.737c-9.943,25.293-15.389,66.217-0.352,91.202c5.066,8.418,13.83,16.771,22.306,21.636
		c15.714,9.02,36.485,9.286,53.822,5.657c7.819-1.637,15.68-4.767,22.71-8.505C2233.348,224.793,2261.408,201.576,2257.125,172.422z
		 M2118.527,165.63c0-7.388,5.989-13.376,13.376-13.376s13.376,5.988,13.376,13.376c0,7.387-5.989,13.376-13.376,13.376
		S2118.527,173.017,2118.527,165.63z M2138.94,219.691c-7.387,0-13.376-5.989-13.376-13.376c0-7.388,5.989-13.376,13.376-13.376
		s13.376,5.988,13.376,13.376C2152.316,213.702,2146.328,219.691,2138.94,219.691z M2148.67,137.395
		c-7.387,0-13.376-5.988-13.376-13.376c0-7.387,5.989-13.376,13.376-13.376c7.387,0,13.376,5.989,13.376,13.376
		C2162.046,131.407,2156.057,137.395,2148.67,137.395z M2168.721,97.266c0-7.387,5.989-13.376,13.376-13.376
		c7.387,0,13.376,5.989,13.376,13.376c0,7.388-5.989,13.376-13.376,13.376C2174.71,110.642,2168.721,104.655,2168.721,97.266z
		 M2205.747,205.786c-8.499,8.499-20.722,10.056-27.301,3.478c-6.578-6.578-5.021-18.8,3.479-27.3
		c8.499-8.499,20.722-10.056,27.3-3.479C2215.804,185.063,2214.246,197.286,2205.747,205.786z"/>
</g>
<g opacity="0.3">
	<g>
		<path fill="#FFFFFF" d="M1599.048,404.053c-2.334-0.833-4.755-1.595-7.375-2.176c-0.28,1.265-0.687,3.098-1.172,5.287
			c19.893,5.656,32.585,15.323,39.607,22.263C1625.531,422.001,1615.96,410.092,1599.048,404.053z"/>
		<path fill="#FFFFFF" d="M1685.842,422.749c-2.619-0.581-5.136-0.913-7.604-1.144c-17.881-1.673-31.586,5.077-38.873,9.874
			c9.297-3.323,24.884-6.723,45.304-3.443C1685.053,426.311,1685.442,424.556,1685.842,422.749z"/>
	</g>
	<g>
		<path fill="#FFFFFF" d="M1637.732,426.066c8.378-5.266,22.938-11.781,41.69-9.802c0.317-1.428,0.638-2.879,0.969-4.374
			c-20.974-4.648-37.086,8.371-42.834,13.929C1637.619,425.901,1637.681,425.977,1637.732,426.066z"/>
		<path fill="#FFFFFF" d="M1634.138,425.06c-2.862-7.466-11.964-26.074-32.938-30.723c-0.233,1.051-0.568,2.565-0.969,4.374
			c17.832,6.13,28.276,18.187,33.644,26.499C1633.96,425.152,1634.048,425.11,1634.138,425.06z"/>
		<path fill="#FFFFFF" d="M1689.991,434.527c-2.217-0.491-4.379-0.897-6.487-1.229c-24.34-3.829-41.242,2.405-47.863,5.553
			l-13.482,60.83c7.175-3.418,26.506-10.5,54.351-4.329C1679.66,481.141,1682.082,470.212,1689.991,434.527z"/>
		<path fill="#FFFFFF" d="M1589.335,412.427c-2.051-0.59-4.182-1.136-6.399-1.627c-2.206,9.952-8.341,37.633-13.481,60.826
			c27.844,6.171,42.372,20.757,47.432,26.887l13.482-60.829C1625.699,432.032,1613.013,419.24,1589.335,412.427z"/>
	</g>
</g>
<g opacity="0.3">
	<g>
		<path fill="#FFFFFF" d="M82.38,74.337c-4.003,0.402-8.085,0.969-12.331,1.941c0.469,2.051,1.149,5.022,1.961,8.57
			c33.114-5.549,58.457-0.202,73.586,5.09C133.713,82.232,111.389,71.425,82.38,74.337z"/>
		<path fill="#FFFFFF" d="M222.694,41.355c-4.246,0.971-8.168,2.235-11.948,3.614c-27.39,9.99-42.795,29.429-50.144,41.535
			c11.323-11.343,31.82-27.178,64.053-36.579C224.015,47.129,223.365,44.285,222.694,41.355z"/>
	</g>
	<g>
		<path fill="#FFFFFF" d="M154.439,79.702c8.623-13.554,25.445-33.243,54.326-43.391c-0.53-2.315-1.068-4.668-1.622-7.09
			c-33.997,7.778-48.569,38.088-53.132,50.239C154.158,79.539,154.302,79.607,154.439,79.702z"/>
		<path fill="#FFFFFF" d="M148.468,80.728c-9.393-8.959-35.694-29.917-69.691-22.139c0.39,1.703,0.951,4.158,1.622,7.09
			c30.421-3.419,54.13,6.997,67.789,15.453C148.27,80.987,148.369,80.863,148.468,80.728z"/>
		<path fill="#FFFFFF" d="M236.977,55.744c-3.594,0.822-7.048,1.732-10.37,2.712c-38.365,11.322-58.818,32.229-66.337,41.454
			l22.559,98.604c8.146-10.006,31.569-33.847,76.706-44.174C254.264,131.304,250.211,113.588,236.977,55.744z"/>
		<path fill="#FFFFFF" d="M73.961,93.379c-3.418,0.561-6.925,1.244-10.518,2.067c3.691,16.131,13.956,61.002,22.557,98.597
			c45.135-10.326,76.595,0.957,88.282,6.426l-22.559-98.603C140.941,96.827,113.432,86.893,73.961,93.379z"/>
	</g>
</g>
<g opacity="0.3">
	<path fill="#FFFFFF" d="M899.074,165.982L833.07,99.977l-77.652,77.652l66.004,66.005c4.288,4.288,11.242,4.288,15.53,0
		l62.122-62.122C903.362,177.224,903.362,170.269,899.074,165.982z M798.128,187.47c-7.581,0-13.727-6.145-13.727-13.727
		c0-7.581,6.146-13.727,13.727-13.727c7.581,0,13.727,6.146,13.727,13.727C811.855,181.325,805.709,187.47,798.128,187.47z
		 M860.241,187.47c-7.581,0-13.727-6.145-13.727-13.727c0-7.581,6.146-13.727,13.727-13.727c7.581,0,13.727,6.146,13.727,13.727
		C873.968,181.325,867.823,187.47,860.241,187.47z"/>
	<path fill="#FFFFFF" d="M759.3,26.208c-4.289-4.288-11.242-4.288-15.53,0l-62.121,62.122c-4.289,4.288-4.289,11.242,0,15.531
		l66.004,66.004l77.652-77.652L759.3,26.208z M720.479,109.826c-7.581,0-13.727-6.146-13.727-13.727
		c0-7.581,6.146-13.727,13.727-13.727c7.581,0,13.727,6.146,13.727,13.727C734.206,103.68,728.06,109.826,720.479,109.826z
		 M751.547,140.888c-7.581,0-13.727-6.146-13.727-13.727c0-7.582,6.146-13.727,13.727-13.727c7.581,0,13.727,6.145,13.727,13.727
		C765.274,134.741,759.128,140.888,751.547,140.888z M751.547,78.773c-7.581,0-13.727-6.146-13.727-13.727
		s6.146-13.727,13.727-13.727c7.581,0,13.727,6.146,13.727,13.727S759.128,78.773,751.547,78.773z M782.592,109.826
		c-7.581,0-13.727-6.146-13.727-13.727c0-7.581,6.146-13.727,13.727-13.727s13.727,6.146,13.727,13.727
		C796.32,103.68,790.174,109.826,782.592,109.826z"/>
</g>
<g opacity="0.3">
	<path fill="#FFFFFF" d="M181.733,406.181l-44.874-44.875l-52.794,52.793l44.874,44.875c2.916,2.916,7.643,2.916,10.559,0
		l42.235-42.235C184.648,413.824,184.648,409.095,181.733,406.181z M113.102,420.789c-5.154,0-9.333-4.178-9.333-9.333
		c0-5.154,4.179-9.333,9.333-9.333c5.154,0,9.333,4.179,9.333,9.333C122.435,416.612,118.256,420.789,113.102,420.789z
		 M155.331,420.789c-5.154,0-9.333-4.178-9.333-9.333c0-5.154,4.178-9.333,9.333-9.333c5.154,0,9.333,4.179,9.333,9.333
		C164.664,416.612,160.486,420.789,155.331,420.789z"/>
	<path fill="#FFFFFF" d="M86.704,311.152c-2.916-2.916-7.643-2.916-10.559,0l-42.235,42.235c-2.916,2.916-2.916,7.643,0,10.559
		l44.874,44.874l52.793-52.793L86.704,311.152z M60.311,368.001c-5.154,0-9.333-4.178-9.333-9.333c0-5.154,4.179-9.333,9.333-9.333
		c5.154,0,9.333,4.179,9.333,9.333C69.643,363.823,65.465,368.001,60.311,368.001z M81.433,389.119
		c-5.154,0-9.333-4.179-9.333-9.333c0-5.155,4.178-9.333,9.333-9.333c5.154,0,9.333,4.178,9.333,9.333
		C90.766,384.941,86.587,389.119,81.433,389.119z M81.433,346.89c-5.154,0-9.333-4.178-9.333-9.333c0-5.154,4.178-9.333,9.333-9.333
		c5.154,0,9.333,4.178,9.333,9.333C90.766,342.711,86.587,346.89,81.433,346.89z M102.54,368.001c-5.154,0-9.333-4.178-9.333-9.333
		c0-5.154,4.178-9.333,9.333-9.333c5.154,0,9.333,4.179,9.333,9.333C111.873,363.823,107.694,368.001,102.54,368.001z"/>
</g>
<path opacity="0.3" fill="#FFFFFF" d="M2012.639,173.915c-1.661-2.61-4.339-4.637-6.844-6.368c-8.744-6.041-18.8-8.749-29.349-9.289
	c-14.319-0.732-26.664,4.028-37.839,11.537c2.869-6.536,4.473-13.569,4.077-21.32c-0.443-8.678-2.671-16.95-7.64-24.142
	c-1.424-2.06-3.091-4.263-5.238-5.63c-3.24-2.063-7.256,4.024-8.724,5.854c-4.371,5.449-8.15,11.74-10.593,18.376
	c-3.173,8.619,1.804,15.901,6.713,22.606c1.391,1.898,2.773,3.834,3.968,5.864c3.333,5.659,0.365,12.107-4.532,16.478
	c-0.467,0.417-0.953,0.773-1.427,1.145c-8.015-6.098-28.48-17.36-50.647,4.808c-29.435,29.435-73.992,91.503-70.292,122.827
	c31.323,3.7,93.391-40.857,122.827-70.292c21.557-21.557,11.486-41.538,5.305-49.994c1.426-1.961,4.096-5.648,4.812-6.451
	c5.314-5.953,14.479-9.56,21.36-5.509c2.467,1.452,4.821,3.134,7.129,4.824c8.15,5.969,17.613,8.896,28.736,7.927
	C1998.73,195.921,2015.147,177.854,2012.639,173.915z"/>
<path opacity="0.3" fill="#FFFFFF" d="M224.839,305.747c1.195-1.877,3.121-3.335,4.922-4.579c6.288-4.344,13.52-6.292,21.107-6.68
	c10.298-0.526,19.176,2.897,27.213,8.297c-2.063-4.701-3.217-9.758-2.932-15.333c0.319-6.241,1.921-12.19,5.495-17.362
	c1.024-1.482,2.223-3.066,3.767-4.049c2.33-1.483,5.219,2.894,6.274,4.21c3.143,3.919,5.861,8.443,7.618,13.216
	c2.282,6.199-1.297,11.436-4.828,16.258c-1,1.365-1.994,2.757-2.854,4.217c-2.397,4.07-0.262,8.707,3.259,11.85
	c0.336,0.3,0.685,0.556,1.027,0.824c5.764-4.386,20.482-12.485,36.424,3.458c21.169,21.169,53.213,65.806,50.552,88.333
	c-22.527,2.661-67.164-29.383-88.333-50.552c-15.503-15.503-8.26-29.873-3.815-35.954c-1.025-1.41-2.945-4.062-3.461-4.639
	c-3.822-4.281-10.413-6.875-15.361-3.962c-1.774,1.045-3.467,2.254-5.127,3.469c-5.861,4.292-12.667,6.397-20.666,5.701
	C234.842,321.574,223.035,308.581,224.839,305.747z"/>
<g opacity="0.3">
	<path fill="#FFFFFF" d="M1358.74,446.372c0.223-0.097,0.442-0.191,0.663-0.297c14.258-6.831,26.63-17.602,22.855-25.48
		c-6.453-13.467-23.037-24.099-37.554-22.206c3.568-5.674,3.875-14.137,0.092-22.032c-5.279-11.017-16.407-16.669-24.855-12.621
		c-8.439,4.043-11.008,16.258-5.729,27.275c3.783,7.895,10.579,12.954,17.228,13.733c-1.449,1.385-2.725,2.958-3.857,4.662
		c12.261,6.029,22.637,15.933,28.833,28.864C1357.684,440.915,1358.419,443.628,1358.74,446.372z"/>
	<path fill="#FFFFFF" d="M1239.406,451.737c-2.081-0.195-4.157-0.205-6.183,0.065c3.56-5.67,3.867-14.133,0.084-22.028
		c-5.279-11.017-16.398-16.673-24.846-12.625c-8.45,4.049-11.008,16.258-5.729,27.275c3.783,7.895,10.571,12.958,17.218,13.738
		c-10.574,10.129-12.675,29.714-6.223,43.181c3.774,7.878,19.92,4.985,34.187-1.85c0.261-0.125,0.525-0.273,0.798-0.403
		c-1.935-1.97-3.591-4.242-4.859-6.888C1237.669,479.296,1236.443,465.051,1239.406,451.737z"/>
	<path fill="#FFFFFF" d="M1322.318,422.818c-2.179-1.142-4.441-2.109-6.769-2.897c-2.26-0.769-4.571-1.387-6.932-1.815
		c-6.402-1.159-13.092-1.039-19.638,0.538c6.073-8.568,6.743-22.059,0.763-34.54c-7.993-16.683-24.836-25.245-37.64-19.11
		c-12.786,6.126-16.68,24.624-8.687,41.307c5.98,12.481,16.918,20.41,27.4,21.046c-5.378,4.146-9.676,9.322-12.802,15.088
		c-1.133,2.112-2.102,4.302-2.908,6.55c-0.841,2.317-1.49,4.689-1.959,7.11c-1.916,9.757-0.857,20.181,3.773,29.845
		c1.052,2.195,2.756,3.826,4.941,4.986c2.327,1.228,5.223,1.901,8.519,2.1c3.081,0.187,6.515-0.025,10.177-0.608
		c8.734-1.382,18.711-4.77,28.154-9.295c9.392-4.5,18.246-10.123,24.776-16.034c2.768-2.498,5.106-5.041,6.908-7.568
		c1.923-2.71,3.226-5.384,3.738-7.983c0.484-2.439,0.271-4.806-0.785-7.009C1338.694,434.815,1331.182,427.431,1322.318,422.818z"/>
</g>
<g opacity="0.3">
	<path fill="#FFFFFF" d="M304.77,596.533c0.19,0.028,0.376,0.056,0.568,0.078c12.401,1.368,25.181-0.69,25.937-7.542
		c1.292-11.713-5.387-25.751-15.902-30.536c4.756-2.314,8.49-7.856,9.248-14.723c1.057-9.582-4.042-18.009-11.39-18.819
		c-7.34-0.81-14.154,6.303-15.21,15.885c-0.757,6.867,1.687,13.09,5.817,16.384c-1.548,0.323-3.059,0.846-4.528,1.515
		c5.701,9.152,8.523,20.113,7.283,31.36C306.337,592.436,305.698,594.561,304.77,596.533z"/>
	<path fill="#FFFFFF" d="M222.579,550.372c-1.313-0.998-2.7-1.87-4.169-2.534c4.749-2.315,8.483-7.857,9.241-14.723
		c1.057-9.582-4.035-18.008-11.383-18.818c-7.35-0.811-14.154,6.303-15.211,15.885c-0.757,6.867,1.68,13.089,5.808,16.383
		c-11.307,2.378-20.881,14.623-22.173,26.336c-0.756,6.852,11.268,11.646,23.677,13.014c0.227,0.025,0.466,0.036,0.703,0.062
		c-0.475-2.127-0.637-4.339-0.383-6.64C209.925,568.112,215.043,558.056,222.579,550.372z"/>
	<path fill="#FFFFFF" d="M290.188,565.565c-0.984-1.674-2.096-3.264-3.328-4.763c-1.193-1.457-2.485-2.835-3.888-4.106
		c-3.807-3.446-8.338-6.155-13.381-7.827c7.641-3.209,13.715-11.968,14.912-22.823c1.6-14.51-6.114-27.269-17.251-28.498
		c-11.121-1.227-21.442,9.543-23.043,24.053c-1.197,10.855,2.825,20.728,9.583,25.525c-5.332,0.535-10.37,2.212-14.868,4.771
		c-1.639,0.943-3.202,2.006-4.679,3.176c-1.529,1.202-2.953,2.52-4.277,3.947c-5.351,5.738-8.988,13.164-9.916,21.57
		c-0.211,1.909,0.252,3.712,1.232,5.401c1.047,1.793,2.707,3.452,4.832,4.959c1.986,1.41,4.376,2.699,7.072,3.836
		c6.428,2.716,14.525,4.605,22.739,5.511c8.169,0.901,16.446,0.825,23.285-0.412c2.896-0.52,5.523-1.248,7.783-2.19
		c2.419-1.014,4.406-2.263,5.833-3.79c1.341-1.432,2.185-3.107,2.397-5.023C296.158,580.431,294.203,572.352,290.188,565.565z"/>
</g>
<g opacity="0.3">
	<circle fill="#FFFFFF" cx="656.51" cy="525.838" r="16.571"/>
	<circle fill="#FFFFFF" cx="621.522" cy="563.956" r="13.257"/>
	<path fill="#FFFFFF" d="M696.032,439.5c8.626-9.534,13.924-22.135,13.924-36.004c0-29.683-24.063-53.746-53.746-53.746
		c-15.279,0-29.036,6.405-38.821,16.641c-3.467-12.252-14.609-21.281-27.97-21.281c-16.123,0-29.193,13.07-29.193,29.193
		c0,1.891,0.213,3.731,0.557,5.522c-6.57-5.167-14.837-8.275-23.844-8.275c-21.339,0-38.637,17.298-38.637,38.637
		c0,16.713,10.631,30.905,25.485,36.291c-3.624,5.885-5.751,12.79-5.751,20.208c0,21.338,17.298,38.637,38.636,38.637
		c14.04,0,26.293-7.514,33.059-18.714c7.078,7.978,17.378,13.035,28.882,13.035c15.664,0,29.12-9.339,35.186-22.737
		c4.833,9.448,14.555,15.984,25.897,15.984c16.123,0,29.193-13.071,29.193-29.193C708.889,453.625,703.789,444.748,696.032,439.5z"
		/>
</g>
<g opacity="0.3">
	<circle fill="#FFFFFF" cx="1629.723" cy="234.011" r="19.625"/>
	<circle fill="#FFFFFF" cx="1588.288" cy="279.152" r="15.7"/>
	<path fill="#FFFFFF" d="M1676.529,131.762c10.215-11.291,16.49-26.214,16.49-42.639c0-35.153-28.497-63.65-63.65-63.65
		c-18.094,0-34.386,7.586-45.975,19.707c-4.106-14.51-17.301-25.203-33.125-25.203c-19.094,0-34.573,15.479-34.573,34.573
		c0,2.24,0.252,4.418,0.659,6.54c-7.781-6.119-17.571-9.799-28.238-9.799c-25.271,0-45.757,20.485-45.757,45.757
		c0,19.792,12.591,36.6,30.181,42.978c-4.292,6.969-6.811,15.147-6.811,23.931c0,25.271,20.486,45.757,45.756,45.757
		c16.627,0,31.138-8.899,39.151-22.163c8.382,9.449,20.58,15.437,34.204,15.437c18.551,0,34.487-11.06,41.67-26.927
		c5.724,11.189,17.238,18.93,30.67,18.93c19.094,0,34.573-15.479,34.573-34.573C1691.754,148.49,1685.715,137.976,1676.529,131.762z
		"/>
</g>
<path opacity="0.3" fill="#FFFFFF" d="M1210.331,59.621c-9.224,1.914-16.253,8.515-19.181,16.792
	c-0.916,0.109-1.833,0.237-2.753,0.428l-22.084,4.583c-1.045,0.217-2.065,0.487-3.063,0.799c-5.98-6.439-15.063-9.706-24.294-7.79
	c-14.038,2.913-23.056,16.655-20.143,30.692c2.449,11.803,12.56,20.027,24.059,20.624l5.198,25.049
	c3.586,17.283,20.504,28.386,37.786,24.799l22.084-4.583c17.282-3.586,28.385-20.504,24.799-37.787l-5.219-25.148
	c10.091-5.212,15.924-16.65,13.503-28.316C1238.11,65.726,1224.369,56.707,1210.331,59.621z M1168.962,144.554
	c-4.679,0.971-9.26-2.035-10.231-6.714c-0.971-4.679,2.035-9.26,6.714-10.231c4.679-0.971,9.26,2.035,10.231,6.714
	C1176.647,139.002,1173.641,143.583,1168.962,144.554z M1203.142,146.534c-1.622,2.472-6.431,7.825-10.837,9.701
	c-4.832-0.173-11.331-2.966-13.803-4.588c-1.528-1.003-1.438-3.983,0.252-5.16c1.486-1.034,4.705-3.561,10.538-4.772
	c5.833-1.21,9.792-0.173,11.566,0.185C1202.877,142.307,1204.145,145.006,1203.142,146.534z M1211.086,135.812
	c-4.679,0.971-9.26-2.035-10.231-6.714c-0.971-4.679,2.035-9.26,6.714-10.231c4.679-0.971,9.26,2.035,10.231,6.714
	C1218.771,130.261,1215.765,134.841,1211.086,135.812z"/>
<g opacity="0.3">
	<path fill="#FFFFFF" d="M526.105,129.794c8.289-6.784,8.951-19.685,8.951-19.685s-12.777-1.903-21.066,4.881
		c-8.289,6.784-8.951,19.685-8.951,19.685S517.816,136.578,526.105,129.794z"/>
	<path fill="#FFFFFF" d="M459.407,111.885c9.356,7.657,23.778,5.509,23.778,5.509s-0.747-14.562-10.103-22.218
		c-9.356-7.657-23.778-5.509-23.778-5.509S450.051,104.229,459.407,111.885z"/>
	<path fill="#FFFFFF" d="M538.004,157.678h-34.298c-13.434-22.56-9.495-29.297-4.478-37.707c4.126-6.919,9.06-15.218,5.96-31.841
		c2.463-7.476,5.543-21.177,0.52-33.409c-7.36-17.924-29.333-25.88-29.333-25.88s-10.039,21.102-2.679,39.026
		c5.213,12.694,17.726,20.367,24.6,23.777c1.825,12.356-1.846,18.524-5.429,24.534c-6.421,10.766-9.748,19.788,2.287,41.501H458.6
		c-2.045,0-3.703,1.656-3.703,3.703s1.658,3.703,3.703,3.703h79.403c2.045,0,3.703-1.656,3.703-3.703
		S540.048,157.678,538.004,157.678z"/>
</g>
<g opacity="0.3">
	<path fill="#FFFFFF" d="M1887.872,540.166c8.289-6.784,8.951-19.685,8.951-19.685s-12.777-1.903-21.066,4.881
		c-8.289,6.784-8.951,19.685-8.951,19.685S1879.583,546.95,1887.872,540.166z"/>
	<path fill="#FFFFFF" d="M1821.174,522.257c9.356,7.657,23.778,5.509,23.778,5.509s-0.747-14.562-10.103-22.218
		c-9.356-7.657-23.778-5.509-23.778-5.509S1811.818,514.6,1821.174,522.257z"/>
	<path fill="#FFFFFF" d="M1899.771,568.05h-34.298c-13.434-22.56-9.495-29.297-4.478-37.707c4.126-6.919,9.06-15.218,5.96-31.841
		c2.463-7.476,5.543-21.177,0.52-33.409c-7.36-17.923-29.333-25.88-29.333-25.88s-10.039,21.102-2.679,39.026
		c5.213,12.694,17.726,20.367,24.6,23.777c1.825,12.356-1.846,18.524-5.429,24.534c-6.421,10.766-9.748,19.788,2.287,41.501h-36.554
		c-2.045,0-3.703,1.656-3.703,3.703c0,2.047,1.658,3.703,3.703,3.703h79.403c2.045,0,3.703-1.656,3.703-3.703
		C1903.474,569.706,1901.816,568.05,1899.771,568.05z"/>
</g>
<g opacity="0.3">
	<path fill="#FFFFFF" d="M2031.24,389.562l-26.843-26.844l-31.58,31.58l26.843,26.844c1.744,1.744,4.572,1.744,6.316,0
		l25.264-25.264C2032.984,394.134,2032.984,391.305,2031.24,389.562z M1990.186,398.3c-3.083,0-5.583-2.499-5.583-5.583
		c0-3.083,2.5-5.583,5.583-5.583s5.583,2.5,5.583,5.583C1995.769,395.801,1993.269,398.3,1990.186,398.3z M2015.447,398.3
		c-3.083,0-5.583-2.499-5.583-5.583c0-3.083,2.5-5.583,5.583-5.583c3.083,0,5.583,2.5,5.583,5.583
		C2021.03,395.801,2018.53,398.3,2015.447,398.3z"/>
	<path fill="#FFFFFF" d="M1974.395,332.717c-1.744-1.744-4.572-1.744-6.316,0l-25.264,25.264c-1.744,1.744-1.744,4.572,0,6.316
		l26.843,26.843l31.58-31.58L1974.395,332.717z M1958.607,366.723c-3.083,0-5.583-2.499-5.583-5.583c0-3.083,2.5-5.583,5.583-5.583
		c3.083,0,5.583,2.5,5.583,5.583C1964.19,364.224,1961.69,366.723,1958.607,366.723z M1971.242,379.356
		c-3.083,0-5.583-2.5-5.583-5.583c0-3.084,2.5-5.583,5.583-5.583c3.083,0,5.583,2.499,5.583,5.583
		C1976.825,376.856,1974.325,379.356,1971.242,379.356z M1971.242,354.095c-3.083,0-5.583-2.499-5.583-5.583s2.5-5.583,5.583-5.583
		c3.083,0,5.583,2.499,5.583,5.583S1974.325,354.095,1971.242,354.095z M1983.868,366.723c-3.083,0-5.583-2.499-5.583-5.583
		c0-3.083,2.499-5.583,5.583-5.583c3.083,0,5.583,2.5,5.583,5.583C1989.451,364.224,1986.951,366.723,1983.868,366.723z"/>
</g>
<g opacity="0.3">
	<circle fill="#FFFFFF" cx="2234.771" cy="532.868" r="10.769"/>
	<circle fill="#FFFFFF" cx="2212.035" cy="557.638" r="8.615"/>
	<path fill="#FFFFFF" d="M2260.455,476.76c5.605-6.196,9.049-14.384,9.049-23.398c0-19.29-15.637-34.927-34.927-34.927
		c-9.929,0-18.869,4.163-25.228,10.814c-2.253-7.962-9.494-13.83-18.177-13.83c-10.478,0-18.971,8.494-18.971,18.971
		c0,1.229,0.139,2.424,0.362,3.589c-4.27-3.358-9.642-5.377-15.495-5.377c-13.867,0-25.108,11.241-25.108,25.108
		c0,10.861,6.909,20.084,16.561,23.584c-2.355,3.824-3.738,8.312-3.738,13.132c0,13.867,11.241,25.108,25.108,25.108
		c9.124,0,17.086-4.883,21.483-12.161c4.6,5.185,11.293,8.471,18.769,8.471c10.179,0,18.924-6.069,22.865-14.776
		c3.141,6.14,9.459,10.387,16.83,10.387c10.478,0,18.971-8.494,18.971-18.971C2268.81,485.94,2265.496,480.171,2260.455,476.76z"/>
</g>
<g opacity="0.3">
	<path fill="#FFFFFF" d="M3363.013,425.546c-1.391-9.471-8.258-14.288-15.53-19.346c-2.498-1.737-0.472-5.29,0.285-7.406
		c3.073-8.59,5.638-20.395-1.329-27.858c-2.062-2.208-5.104-3.957-7.92-4.961c-5.562-1.981-13.081-2.103-18.868-1.355
		c-19.505,2.52-32.237,17.727-39.058,35.078c-5.649,14.371-8.744,37.623-0.2,51.819c2.878,4.783,7.858,9.529,12.674,12.293
		c8.928,5.125,20.73,5.276,30.58,3.214c4.443-0.93,8.909-2.708,12.904-4.832C3349.503,455.302,3365.447,442.111,3363.013,425.546z
		 M3284.264,421.686c0-4.198,3.403-7.6,7.6-7.6c4.198,0,7.6,3.402,7.6,7.6c0,4.197-3.403,7.6-7.6,7.6
		C3287.667,429.287,3284.264,425.884,3284.264,421.686z M3295.863,452.403c-4.198,0-7.6-3.403-7.6-7.6c0-4.198,3.403-7.6,7.6-7.6
		c4.197,0,7.6,3.402,7.6,7.6C3303.463,449,3300.06,452.403,3295.863,452.403z M3301.391,405.644c-4.198,0-7.6-3.402-7.6-7.6
		c0-4.197,3.403-7.6,7.6-7.6c4.197,0,7.6,3.403,7.6,7.6C3308.991,402.242,3305.588,405.644,3301.391,405.644z M3312.784,382.844
		c0-4.197,3.403-7.6,7.6-7.6c4.197,0,7.6,3.403,7.6,7.6c0,4.198-3.403,7.6-7.6,7.6
		C3316.186,390.444,3312.784,387.042,3312.784,382.844z M3333.821,444.502c-4.829,4.829-11.774,5.713-15.512,1.976
		c-3.737-3.737-2.853-10.682,1.977-15.512c4.829-4.829,11.774-5.713,15.511-1.976
		C3339.535,432.728,3338.65,439.673,3333.821,444.502z"/>
</g>
<g opacity="0.3">
	<path fill="#FFFFFF" d="M4607.727,172.422c-2.449-16.669-14.534-25.146-27.333-34.048c-4.396-3.058-0.831-9.31,0.502-13.035
		c5.408-15.119,9.923-35.895-2.339-49.03c-3.629-3.887-8.982-6.965-13.94-8.732c-9.788-3.486-23.022-3.701-33.207-2.385
		c-34.329,4.435-56.737,31.199-68.742,61.737c-9.943,25.293-15.39,66.217-0.352,91.202c5.065,8.418,13.829,16.771,22.306,21.636
		c15.713,9.02,36.485,9.286,53.821,5.657c7.819-1.637,15.68-4.767,22.71-8.505C4583.95,224.793,4612.01,201.576,4607.727,172.422z
		 M4469.128,165.63c0-7.388,5.989-13.376,13.376-13.376c7.388,0,13.376,5.988,13.376,13.376c0,7.387-5.988,13.376-13.376,13.376
		C4475.117,179.006,4469.128,173.017,4469.128,165.63z M4489.542,219.691c-7.388,0-13.376-5.989-13.376-13.376
		c0-7.388,5.989-13.376,13.376-13.376c7.387,0,13.376,5.988,13.376,13.376C4502.918,213.702,4496.929,219.691,4489.542,219.691z
		 M4499.271,137.395c-7.388,0-13.376-5.988-13.376-13.376c0-7.387,5.988-13.376,13.376-13.376c7.387,0,13.376,5.989,13.376,13.376
		C4512.648,131.407,4506.659,137.395,4499.271,137.395z M4519.323,97.266c0-7.387,5.988-13.376,13.376-13.376
		c7.387,0,13.376,5.989,13.376,13.376c0,7.388-5.989,13.376-13.376,13.376C4525.312,110.642,4519.323,104.655,4519.323,97.266z
		 M4556.349,205.786c-8.5,8.499-20.722,10.056-27.3,3.478c-6.578-6.578-5.021-18.8,3.479-27.3c8.499-8.499,20.722-10.056,27.3-3.479
		C4566.405,185.063,4564.848,197.286,4556.349,205.786z"/>
</g>
<g opacity="0.3">
	<g>
		<path fill="#FFFFFF" d="M3949.649,404.053c-2.334-0.833-4.755-1.595-7.375-2.176c-0.28,1.265-0.687,3.098-1.172,5.287
			c19.893,5.656,32.584,15.323,39.607,22.263C3976.132,422.001,3966.562,410.092,3949.649,404.053z"/>
		<path fill="#FFFFFF" d="M4036.444,422.749c-2.619-0.581-5.136-0.913-7.604-1.144c-17.881-1.673-31.586,5.077-38.873,9.874
			c9.297-3.323,24.884-6.723,45.304-3.443C4035.654,426.311,4036.043,424.556,4036.444,422.749z"/>
	</g>
	<g>
		<path fill="#FFFFFF" d="M3988.334,426.066c8.378-5.266,22.938-11.781,41.69-9.802c0.316-1.428,0.638-2.879,0.969-4.374
			c-20.974-4.648-37.086,8.371-42.834,13.929C3988.221,425.901,3988.282,425.977,3988.334,426.066z"/>
		<path fill="#FFFFFF" d="M3984.74,425.06c-2.862-7.466-11.964-26.074-32.938-30.723c-0.233,1.051-0.569,2.565-0.969,4.374
			c17.832,6.13,28.276,18.187,33.644,26.499C3984.562,425.152,3984.649,425.11,3984.74,425.06z"/>
		<path fill="#FFFFFF" d="M4040.593,434.527c-2.217-0.491-4.379-0.897-6.487-1.229c-24.34-3.829-41.242,2.405-47.863,5.553
			l-13.482,60.83c7.176-3.418,26.506-10.5,54.351-4.329C4030.261,481.141,4032.684,470.212,4040.593,434.527z"/>
		<path fill="#FFFFFF" d="M3939.936,412.427c-2.051-0.59-4.182-1.136-6.399-1.627c-2.206,9.952-8.341,37.633-13.481,60.826
			c27.844,6.171,42.373,20.757,47.433,26.887l13.482-60.829C3976.301,432.032,3963.615,419.24,3939.936,412.427z"/>
	</g>
</g>
<g opacity="0.3">
	<g>
		<path fill="#FFFFFF" d="M2432.981,74.337c-4.003,0.402-8.085,0.969-12.331,1.941c0.469,2.051,1.149,5.022,1.961,8.57
			c33.114-5.549,58.457-0.202,73.586,5.09C2484.315,82.232,2461.99,71.425,2432.981,74.337z"/>
		<path fill="#FFFFFF" d="M2573.296,41.355c-4.246,0.971-8.168,2.235-11.948,3.614c-27.39,9.99-42.795,29.429-50.144,41.535
			c11.323-11.343,31.82-27.178,64.053-36.579C2574.617,47.129,2573.966,44.285,2573.296,41.355z"/>
	</g>
	<g>
		<path fill="#FFFFFF" d="M2505.041,79.702c8.623-13.554,25.445-33.243,54.326-43.391c-0.53-2.315-1.068-4.668-1.622-7.09
			c-33.998,7.778-48.569,38.088-53.133,50.239C2504.76,79.539,2504.903,79.607,2505.041,79.702z"/>
		<path fill="#FFFFFF" d="M2499.07,80.728c-9.393-8.959-35.694-29.917-69.691-22.139c0.39,1.703,0.951,4.158,1.622,7.09
			c30.421-3.419,54.13,6.997,67.789,15.453C2498.872,80.987,2498.971,80.863,2499.07,80.728z"/>
		<path fill="#FFFFFF" d="M2587.579,55.744c-3.594,0.822-7.048,1.732-10.37,2.712c-38.365,11.322-58.818,32.229-66.337,41.454
			l22.559,98.604c8.146-10.006,31.569-33.847,76.706-44.174C2604.866,131.304,2600.813,113.588,2587.579,55.744z"/>
		<path fill="#FFFFFF" d="M2424.563,93.379c-3.418,0.561-6.925,1.244-10.519,2.067c3.691,16.131,13.956,61.002,22.557,98.597
			c45.135-10.326,76.595,0.957,88.282,6.426l-22.559-98.603C2491.543,96.827,2464.034,86.893,2424.563,93.379z"/>
	</g>
</g>
<g opacity="0.3">
	<path fill="#FFFFFF" d="M3249.676,165.982l-66.004-66.005l-77.652,77.652l66.004,66.005c4.288,4.288,11.242,4.288,15.53,0
		l62.122-62.122C3253.964,177.224,3253.964,170.269,3249.676,165.982z M3148.729,187.47c-7.581,0-13.727-6.145-13.727-13.727
		c0-7.581,6.146-13.727,13.727-13.727c7.581,0,13.727,6.146,13.727,13.727C3162.456,181.325,3156.311,187.47,3148.729,187.47z
		 M3210.843,187.47c-7.581,0-13.727-6.145-13.727-13.727c0-7.581,6.146-13.727,13.727-13.727c7.581,0,13.727,6.146,13.727,13.727
		C3224.57,181.325,3218.424,187.47,3210.843,187.47z"/>
	<path fill="#FFFFFF" d="M3109.902,26.208c-4.289-4.288-11.242-4.288-15.53,0l-62.121,62.122c-4.289,4.288-4.289,11.242,0,15.531
		l66.004,66.004l77.652-77.652L3109.902,26.208z M3071.08,109.826c-7.581,0-13.727-6.146-13.727-13.727
		c0-7.581,6.146-13.727,13.727-13.727c7.582,0,13.727,6.146,13.727,13.727C3084.807,103.68,3078.662,109.826,3071.08,109.826z
		 M3102.148,140.888c-7.581,0-13.727-6.146-13.727-13.727c0-7.582,6.146-13.727,13.727-13.727c7.582,0,13.727,6.145,13.727,13.727
		C3115.875,134.741,3109.73,140.888,3102.148,140.888z M3102.148,78.773c-7.581,0-13.727-6.146-13.727-13.727
		s6.146-13.727,13.727-13.727c7.582,0,13.727,6.146,13.727,13.727S3109.73,78.773,3102.148,78.773z M3133.194,109.826
		c-7.582,0-13.727-6.146-13.727-13.727c0-7.581,6.146-13.727,13.727-13.727c7.581,0,13.727,6.146,13.727,13.727
		C3146.921,103.68,3140.775,109.826,3133.194,109.826z"/>
</g>
<path opacity="0.3" fill="#FFFFFF" d="M4363.241,173.915c-1.662-2.61-4.339-4.637-6.844-6.368c-8.744-6.041-18.8-8.749-29.35-9.289
	c-14.318-0.732-26.664,4.028-37.839,11.537c2.869-6.536,4.473-13.569,4.077-21.32c-0.443-8.678-2.671-16.95-7.64-24.142
	c-1.424-2.06-3.091-4.263-5.238-5.63c-3.241-2.063-7.257,4.024-8.725,5.854c-4.371,5.449-8.15,11.74-10.593,18.376
	c-3.173,8.619,1.803,15.901,6.713,22.606c1.391,1.898,2.773,3.834,3.968,5.864c3.333,5.659,0.365,12.107-4.532,16.478
	c-0.466,0.417-0.952,0.773-1.427,1.145c-8.015-6.098-28.48-17.36-50.647,4.808c-29.435,29.435-73.992,91.503-70.292,122.827
	c31.323,3.7,93.391-40.857,122.827-70.292c21.557-21.557,11.485-41.538,5.305-49.994c1.426-1.961,4.096-5.648,4.812-6.451
	c5.313-5.953,14.479-9.56,21.36-5.509c2.467,1.452,4.82,3.134,7.128,4.824c8.15,5.969,17.613,8.896,28.736,7.927
	C4349.331,195.921,4365.749,177.854,4363.241,173.915z"/>
<path opacity="0.3" fill="#FFFFFF" d="M2390.956,327.49c1.195-1.877,3.121-3.335,4.922-4.579c6.288-4.344,13.52-6.292,21.107-6.68
	c10.297-0.526,19.176,2.897,27.213,8.297c-2.063-4.701-3.217-9.758-2.932-15.333c0.319-6.241,1.921-12.19,5.495-17.362
	c1.024-1.482,2.223-3.066,3.767-4.049c2.331-1.483,5.219,2.894,6.274,4.21c3.143,3.919,5.861,8.443,7.618,13.216
	c2.282,6.199-1.297,11.436-4.828,16.258c-1,1.365-1.994,2.757-2.854,4.217c-2.396,4.07-0.262,8.707,3.259,11.85
	c0.336,0.3,0.685,0.556,1.027,0.824c5.764-4.386,20.482-12.485,36.424,3.458c21.169,21.169,53.213,65.806,50.552,88.333
	c-22.527,2.661-67.164-29.383-88.333-50.552c-15.503-15.503-8.26-29.873-3.815-35.954c-1.025-1.41-2.945-4.062-3.461-4.639
	c-3.822-4.281-10.413-6.875-15.361-3.962c-1.774,1.045-3.467,2.254-5.127,3.469c-5.861,4.292-12.667,6.397-20.666,5.701
	C2400.959,343.317,2389.152,330.324,2390.956,327.49z"/>
<g opacity="0.3">
	<path fill="#FFFFFF" d="M3709.342,446.372c0.223-0.097,0.442-0.191,0.663-0.297c14.258-6.831,26.63-17.602,22.855-25.48
		c-6.452-13.467-23.037-24.099-37.554-22.206c3.568-5.674,3.875-14.137,0.093-22.032c-5.279-11.017-16.407-16.669-24.855-12.621
		c-8.439,4.043-11.008,16.258-5.729,27.275c3.783,7.895,10.579,12.954,17.228,13.733c-1.449,1.385-2.725,2.958-3.857,4.662
		c12.261,6.029,22.637,15.933,28.833,28.864C3708.286,440.915,3709.021,443.628,3709.342,446.372z"/>
	<path fill="#FFFFFF" d="M3590.007,451.737c-2.081-0.195-4.157-0.205-6.183,0.065c3.56-5.67,3.867-14.133,0.084-22.028
		c-5.279-11.017-16.398-16.673-24.846-12.625c-8.45,4.049-11.008,16.258-5.729,27.275c3.783,7.895,10.571,12.958,17.218,13.738
		c-10.574,10.129-12.675,29.714-6.223,43.181c3.774,7.878,19.92,4.985,34.187-1.85c0.261-0.125,0.525-0.273,0.798-0.403
		c-1.935-1.97-3.591-4.242-4.859-6.888C3588.271,479.296,3587.045,465.051,3590.007,451.737z"/>
	<path fill="#FFFFFF" d="M3672.92,422.818c-2.179-1.142-4.441-2.109-6.77-2.897c-2.259-0.769-4.571-1.387-6.931-1.815
		c-6.403-1.159-13.092-1.039-19.637,0.538c6.073-8.568,6.743-22.059,0.763-34.54c-7.993-16.683-24.836-25.245-37.64-19.11
		c-12.786,6.126-16.68,24.624-8.687,41.307c5.98,12.481,16.918,20.41,27.4,21.046c-5.378,4.146-9.676,9.322-12.802,15.088
		c-1.133,2.112-2.102,4.302-2.908,6.55c-0.841,2.317-1.49,4.689-1.959,7.11c-1.916,9.757-0.857,20.181,3.773,29.845
		c1.052,2.195,2.756,3.826,4.941,4.986c2.327,1.228,5.223,1.901,8.519,2.1c3.082,0.187,6.515-0.025,10.177-0.608
		c8.734-1.382,18.711-4.77,28.154-9.295c9.392-4.5,18.247-10.123,24.776-16.034c2.768-2.498,5.106-5.041,6.908-7.568
		c1.923-2.71,3.226-5.384,3.738-7.983c0.484-2.439,0.271-4.806-0.785-7.009C3689.296,434.815,3681.783,427.431,3672.92,422.818z"/>
</g>
<g opacity="0.3">
	<path fill="#FFFFFF" d="M2655.371,596.533c0.19,0.028,0.376,0.056,0.568,0.078c12.401,1.368,25.181-0.69,25.937-7.542
		c1.292-11.713-5.387-25.751-15.902-30.536c4.756-2.314,8.49-7.856,9.248-14.723c1.057-9.582-4.042-18.009-11.39-18.819
		c-7.34-0.81-14.154,6.303-15.21,15.885c-0.757,6.867,1.687,13.09,5.817,16.384c-1.548,0.323-3.059,0.846-4.528,1.515
		c5.701,9.152,8.523,20.113,7.283,31.36C2656.939,592.436,2656.3,594.561,2655.371,596.533z"/>
	<path fill="#FFFFFF" d="M2573.181,550.372c-1.313-0.998-2.7-1.87-4.169-2.534c4.749-2.315,8.483-7.857,9.241-14.723
		c1.057-9.582-4.035-18.008-11.383-18.818c-7.35-0.811-14.154,6.303-15.211,15.885c-0.757,6.867,1.679,13.089,5.808,16.383
		c-11.307,2.378-20.881,14.623-22.173,26.336c-0.756,6.852,11.268,11.646,23.677,13.014c0.227,0.025,0.466,0.036,0.702,0.062
		c-0.475-2.127-0.637-4.339-0.383-6.64C2560.527,568.112,2565.645,558.056,2573.181,550.372z"/>
	<path fill="#FFFFFF" d="M2640.79,565.565c-0.984-1.674-2.096-3.264-3.328-4.763c-1.193-1.457-2.485-2.835-3.888-4.106
		c-3.806-3.446-8.338-6.155-13.381-7.827c7.641-3.209,13.715-11.968,14.912-22.823c1.601-14.51-6.114-27.269-17.251-28.498
		c-11.121-1.227-21.442,9.543-23.043,24.053c-1.197,10.855,2.825,20.728,9.583,25.525c-5.332,0.535-10.37,2.212-14.868,4.771
		c-1.639,0.943-3.202,2.006-4.679,3.176c-1.529,1.202-2.953,2.52-4.277,3.947c-5.352,5.738-8.989,13.164-9.916,21.57
		c-0.21,1.909,0.252,3.712,1.232,5.401c1.047,1.793,2.707,3.452,4.832,4.959c1.987,1.41,4.376,2.699,7.072,3.836
		c6.428,2.716,14.525,4.605,22.739,5.511c8.169,0.901,16.446,0.825,23.285-0.412c2.896-0.52,5.522-1.248,7.783-2.19
		c2.419-1.014,4.406-2.263,5.833-3.79c1.341-1.432,2.185-3.107,2.397-5.023C2646.759,580.431,2644.804,572.352,2640.79,565.565z"/>
</g>
<g opacity="0.3">
	<g>
		<path fill="#FFFFFF" d="M4708.185,74.337c-4.003,0.402-8.085,0.969-12.331,1.941c0.469,2.051,1.149,5.022,1.96,8.57
			c33.114-5.549,58.457-0.202,73.586,5.09C4759.519,82.232,4737.194,71.425,4708.185,74.337z"/>
		<path fill="#FFFFFF" d="M4848.5,41.355c-4.246,0.971-8.168,2.235-11.948,3.614c-27.39,9.99-42.795,29.429-50.144,41.535
			c11.323-11.343,31.82-27.178,64.053-36.579C4849.821,47.129,4849.17,44.285,4848.5,41.355z"/>
	</g>
	<g>
		<path fill="#FFFFFF" d="M4780.245,79.702c8.623-13.554,25.445-33.243,54.327-43.391c-0.53-2.315-1.068-4.668-1.623-7.09
			c-33.998,7.778-48.569,38.088-53.132,50.239C4779.964,79.539,4780.107,79.607,4780.245,79.702z"/>
		<path fill="#FFFFFF" d="M4774.273,80.728c-9.393-8.959-35.694-29.917-69.691-22.139c0.39,1.703,0.952,4.158,1.623,7.09
			c30.42-3.419,54.13,6.997,67.789,15.453C4774.076,80.987,4774.175,80.863,4774.273,80.728z"/>
		<path fill="#FFFFFF" d="M4862.783,55.744c-3.594,0.822-7.048,1.732-10.37,2.712c-38.365,11.322-58.818,32.229-66.337,41.454
			l22.559,98.604c8.146-10.006,31.569-33.847,76.706-44.174C4880.07,131.304,4876.017,113.588,4862.783,55.744z"/>
		<path fill="#FFFFFF" d="M4699.767,93.379c-3.418,0.561-6.924,1.244-10.518,2.067c3.69,16.131,13.956,61.002,22.557,98.597
			c45.135-10.326,76.595,0.957,88.282,6.426l-22.559-98.603C4766.747,96.827,4739.238,86.893,4699.767,93.379z"/>
	</g>
</g>
<path opacity="0.3" fill="#FFFFFF" d="M4666.16,327.49c1.195-1.877,3.121-3.335,4.922-4.579c6.288-4.344,13.52-6.292,21.107-6.68
	c10.298-0.526,19.176,2.897,27.213,8.297c-2.063-4.701-3.217-9.758-2.932-15.333c0.319-6.241,1.921-12.19,5.495-17.362
	c1.024-1.482,2.223-3.066,3.768-4.049c2.33-1.483,5.218,2.894,6.274,4.21c3.144,3.919,5.861,8.443,7.618,13.216
	c2.282,6.199-1.297,11.436-4.828,16.258c-1,1.365-1.994,2.757-2.854,4.217c-2.397,4.07-0.263,8.707,3.259,11.85
	c0.336,0.3,0.685,0.556,1.027,0.824c5.764-4.386,20.481-12.485,36.424,3.458c21.168,21.169,53.212,65.806,50.552,88.333
	c-22.527,2.661-67.164-29.383-88.333-50.552c-15.503-15.503-8.26-29.873-3.815-35.954c-1.025-1.41-2.945-4.062-3.461-4.639
	c-3.821-4.281-10.413-6.875-15.361-3.962c-1.774,1.045-3.467,2.254-5.126,3.469c-5.861,4.292-12.667,6.397-20.667,5.701
	C4676.163,343.317,4664.356,330.324,4666.16,327.49z"/>
<g opacity="0.3">
	<path fill="#FFFFFF" d="M4930.575,596.533c0.19,0.028,0.375,0.056,0.568,0.078c12.401,1.368,25.181-0.69,25.937-7.542
		c1.292-11.713-5.387-25.751-15.902-30.536c4.756-2.314,8.49-7.856,9.248-14.723c1.057-9.582-4.042-18.009-11.391-18.819
		c-7.34-0.81-14.153,6.303-15.21,15.885c-0.757,6.867,1.687,13.09,5.817,16.384c-1.548,0.323-3.059,0.846-4.528,1.515
		c5.701,9.152,8.523,20.113,7.283,31.36C4932.143,592.436,4931.504,594.561,4930.575,596.533z"/>
	<path fill="#FFFFFF" d="M4848.385,550.372c-1.313-0.998-2.7-1.87-4.169-2.534c4.749-2.315,8.483-7.857,9.241-14.723
		c1.057-9.582-4.035-18.008-11.383-18.818c-7.35-0.811-14.154,6.303-15.21,15.885c-0.758,6.867,1.679,13.089,5.808,16.383
		c-11.307,2.378-20.881,14.623-22.173,26.336c-0.755,6.852,11.268,11.646,23.677,13.014c0.228,0.025,0.466,0.036,0.703,0.062
		c-0.475-2.127-0.637-4.339-0.384-6.64C4835.731,568.112,4840.849,558.056,4848.385,550.372z"/>
	<path fill="#FFFFFF" d="M4915.994,565.565c-0.984-1.674-2.097-3.264-3.328-4.763c-1.193-1.457-2.485-2.835-3.888-4.106
		c-3.807-3.446-8.338-6.155-13.381-7.827c7.641-3.209,13.715-11.968,14.913-22.823c1.6-14.51-6.115-27.269-17.251-28.498
		c-11.121-1.227-21.442,9.543-23.042,24.053c-1.198,10.855,2.825,20.728,9.583,25.525c-5.332,0.535-10.37,2.212-14.869,4.771
		c-1.639,0.943-3.202,2.006-4.679,3.176c-1.529,1.202-2.954,2.52-4.277,3.947c-5.351,5.738-8.988,13.164-9.916,21.57
		c-0.21,1.909,0.251,3.712,1.232,5.401c1.047,1.793,2.707,3.452,4.832,4.959c1.987,1.41,4.376,2.699,7.072,3.836
		c6.428,2.716,14.525,4.605,22.739,5.511c8.168,0.901,16.445,0.825,23.285-0.412c2.896-0.52,5.523-1.248,7.784-2.19
		c2.418-1.014,4.406-2.263,5.833-3.79c1.341-1.432,2.185-3.107,2.396-5.023C4921.963,580.431,4920.008,572.352,4915.994,565.565z"/>
</g>
<g opacity="0.3">
	<circle fill="#FFFFFF" cx="3007.112" cy="525.838" r="16.571"/>
	<circle fill="#FFFFFF" cx="2972.124" cy="563.956" r="13.257"/>
	<path fill="#FFFFFF" d="M3046.634,439.5c8.626-9.534,13.924-22.135,13.924-36.004c0-29.683-24.063-53.746-53.746-53.746
		c-15.279,0-29.036,6.405-38.821,16.641c-3.467-12.252-14.609-21.281-27.97-21.281c-16.123,0-29.194,13.07-29.194,29.193
		c0,1.891,0.213,3.731,0.557,5.522c-6.571-5.167-14.837-8.275-23.844-8.275c-21.339,0-38.637,17.298-38.637,38.637
		c0,16.713,10.631,30.905,25.485,36.291c-3.624,5.885-5.751,12.79-5.751,20.208c0,21.338,17.298,38.637,38.636,38.637
		c14.04,0,26.293-7.514,33.059-18.714c7.078,7.978,17.377,13.035,28.882,13.035c15.664,0,29.12-9.339,35.186-22.737
		c4.833,9.448,14.555,15.984,25.897,15.984c16.123,0,29.193-13.071,29.193-29.193C3059.49,453.625,3054.391,444.748,3046.634,439.5z
		"/>
</g>
<g opacity="0.3">
	<circle fill="#FFFFFF" cx="3980.324" cy="234.011" r="19.625"/>
	<circle fill="#FFFFFF" cx="3938.889" cy="279.152" r="15.7"/>
	<path fill="#FFFFFF" d="M4027.13,131.762c10.215-11.291,16.49-26.214,16.49-42.639c0-35.153-28.497-63.65-63.65-63.65
		c-18.094,0-34.386,7.586-45.975,19.707c-4.106-14.51-17.301-25.203-33.125-25.203c-19.094,0-34.573,15.479-34.573,34.573
		c0,2.24,0.252,4.418,0.659,6.54c-7.781-6.119-17.571-9.799-28.238-9.799c-25.271,0-45.757,20.485-45.757,45.757
		c0,19.792,12.591,36.6,30.181,42.978c-4.292,6.969-6.811,15.147-6.811,23.931c0,25.271,20.486,45.757,45.756,45.757
		c16.627,0,31.138-8.899,39.151-22.163c8.382,9.449,20.58,15.437,34.205,15.437c18.551,0,34.487-11.06,41.67-26.927
		c5.724,11.189,17.238,18.93,30.67,18.93c19.094,0,34.573-15.479,34.573-34.573C4042.356,148.49,4036.316,137.976,4027.13,131.762z"
		/>
</g>
<path opacity="0.3" fill="#FFFFFF" d="M3560.932,59.621c-9.224,1.914-16.253,8.515-19.182,16.792
	c-0.916,0.109-1.833,0.237-2.752,0.428l-22.084,4.583c-1.045,0.217-2.065,0.487-3.063,0.799c-5.98-6.439-15.062-9.706-24.294-7.79
	c-14.038,2.913-23.056,16.655-20.143,30.692c2.449,11.803,12.56,20.027,24.059,20.624l5.198,25.049
	c3.586,17.283,20.504,28.386,37.786,24.799l22.084-4.583c17.282-3.586,28.385-20.504,24.799-37.787l-5.219-25.148
	c10.091-5.212,15.924-16.65,13.503-28.316C3588.711,65.726,3574.97,56.707,3560.932,59.621z M3519.563,144.554
	c-4.679,0.971-9.26-2.035-10.231-6.714c-0.971-4.679,2.035-9.26,6.714-10.231c4.679-0.971,9.26,2.035,10.231,6.714
	C3527.249,139.002,3524.242,143.583,3519.563,144.554z M3553.744,146.534c-1.622,2.472-6.431,7.825-10.837,9.701
	c-4.832-0.173-11.331-2.966-13.803-4.588c-1.528-1.003-1.438-3.983,0.252-5.16c1.486-1.034,4.705-3.561,10.538-4.772
	c5.833-1.21,9.792-0.173,11.566,0.185C3553.479,142.307,3554.747,145.006,3553.744,146.534z M3561.687,135.812
	c-4.679,0.971-9.26-2.035-10.231-6.714c-0.971-4.679,2.035-9.26,6.714-10.231c4.679-0.971,9.26,2.035,10.231,6.714
	C3569.373,130.261,3566.366,134.841,3561.687,135.812z"/>
<path opacity="0.3" fill="#FFFFFF" d="M2750.78,294.604c-6.894-0.748-13.311,2.284-17.236,7.418
	c-0.666-0.131-1.337-0.249-2.025-0.323l-16.505-1.79c-0.781-0.085-1.556-0.126-2.326-0.134c-2.73-5.864-8.352-10.208-15.251-10.956
	c-10.491-1.138-19.918,6.444-21.056,16.935c-0.957,8.821,4.262,16.87,12.18,19.891l-2.031,18.721
	c-1.401,12.916,7.933,24.523,20.849,25.924l16.505,1.79c12.916,1.401,24.522-7.934,25.924-20.85l2.039-18.794
	c8.248-1.366,14.922-8.056,15.868-16.774C2768.853,305.17,2761.271,295.742,2750.78,294.604z M2702.577,344.722
	c-3.497-0.379-6.024-3.522-5.645-7.019c0.379-3.497,3.522-6.024,7.019-5.645c3.497,0.379,6.024,3.522,5.645,7.019
	C2709.216,342.574,2706.074,345.102,2702.577,344.722z M2726.068,353.848c-1.696,1.364-6.276,4.025-9.787,4.341
	c-3.345-1.215-7.264-4.643-8.628-6.338c-0.843-1.048-0.106-3.115,1.344-3.557c1.275-0.388,4.102-1.429,8.461-0.956
	c4.359,0.473,6.897,2.096,8.059,2.748C2726.839,350.828,2727.116,353.005,2726.068,353.848z M2734.058,348.137
	c-3.497-0.379-6.024-3.522-5.645-7.019c0.379-3.497,3.522-6.024,7.019-5.645c3.497,0.379,6.024,3.522,5.645,7.019
	C2740.698,345.989,2737.555,348.517,2734.058,348.137z"/>
<path opacity="0.3" fill="#FFFFFF" d="M4949.992,243.295c-6.894-0.748-13.311,2.284-17.236,7.418
	c-0.666-0.131-1.337-0.249-2.024-0.323l-16.505-1.79c-0.781-0.085-1.557-0.126-2.326-0.134c-2.73-5.864-8.352-10.208-15.251-10.956
	c-10.491-1.138-19.918,6.444-21.057,16.935c-0.957,8.821,4.262,16.87,12.181,19.891l-2.031,18.721
	c-1.401,12.916,7.934,24.523,20.85,25.924l16.505,1.79c12.916,1.401,24.522-7.934,25.923-20.85l2.039-18.794
	c8.247-1.366,14.922-8.056,15.868-16.774C4968.065,253.86,4960.483,244.433,4949.992,243.295z M4901.789,293.413
	c-3.497-0.379-6.024-3.522-5.645-7.019c0.379-3.497,3.522-6.024,7.019-5.645c3.497,0.379,6.024,3.522,5.645,7.019
	C4908.429,291.265,4905.286,293.792,4901.789,293.413z M4925.28,302.538c-1.695,1.364-6.275,4.025-9.786,4.341
	c-3.345-1.215-7.265-4.643-8.628-6.338c-0.843-1.048-0.105-3.115,1.344-3.557c1.275-0.388,4.102-1.429,8.461-0.956
	c4.359,0.473,6.897,2.096,8.059,2.748C4926.051,299.518,4926.328,301.695,4925.28,302.538z M4933.271,296.828
	c-3.497-0.379-6.024-3.522-5.645-7.019c0.379-3.497,3.522-6.024,7.019-5.645s6.024,3.522,5.645,7.019
	C4939.91,294.68,4936.768,297.207,4933.271,296.828z"/>
<g opacity="0.3">
	<path fill="#FFFFFF" d="M2876.707,129.794c8.289-6.784,8.951-19.685,8.951-19.685s-12.777-1.903-21.066,4.881
		c-8.289,6.784-8.951,19.685-8.951,19.685S2868.418,136.578,2876.707,129.794z"/>
	<path fill="#FFFFFF" d="M2810.009,111.885c9.356,7.657,23.778,5.509,23.778,5.509s-0.747-14.562-10.103-22.218
		s-23.778-5.509-23.778-5.509S2800.653,104.229,2810.009,111.885z"/>
	<path fill="#FFFFFF" d="M2888.605,157.678h-34.298c-13.434-22.56-9.495-29.297-4.478-37.707c4.126-6.919,9.06-15.218,5.96-31.841
		c2.463-7.476,5.542-21.177,0.52-33.409c-7.36-17.924-29.333-25.88-29.333-25.88s-10.039,21.102-2.679,39.026
		c5.213,12.694,17.726,20.367,24.601,23.777c1.825,12.356-1.845,18.524-5.429,24.534c-6.421,10.766-9.749,19.788,2.287,41.501
		h-36.554c-2.045,0-3.703,1.656-3.703,3.703s1.658,3.703,3.703,3.703h79.403c2.045,0,3.703-1.656,3.703-3.703
		S2890.65,157.678,2888.605,157.678z"/>
</g>
<g opacity="0.3">
	<path fill="#FFFFFF" d="M4238.474,540.166c8.29-6.784,8.951-19.685,8.951-19.685s-12.777-1.903-21.066,4.881
		c-8.289,6.784-8.951,19.685-8.951,19.685S4230.185,546.95,4238.474,540.166z"/>
	<path fill="#FFFFFF" d="M4171.776,522.257c9.356,7.657,23.778,5.509,23.778,5.509s-0.748-14.562-10.103-22.218
		c-9.356-7.657-23.777-5.509-23.777-5.509S4162.42,514.6,4171.776,522.257z"/>
	<path fill="#FFFFFF" d="M4250.373,568.05h-34.298c-13.434-22.56-9.495-29.297-4.478-37.707c4.126-6.919,9.06-15.218,5.96-31.841
		c2.463-7.476,5.542-21.177,0.52-33.409c-7.36-17.923-29.333-25.88-29.333-25.88s-10.039,21.102-2.678,39.026
		c5.213,12.694,17.725,20.367,24.6,23.777c1.825,12.356-1.845,18.524-5.429,24.534c-6.421,10.766-9.749,19.788,2.287,41.501h-36.554
		c-2.045,0-3.703,1.656-3.703,3.703c0,2.047,1.658,3.703,3.703,3.703h79.403c2.045,0,3.703-1.656,3.703-3.703
		C4254.075,569.706,4252.417,568.05,4250.373,568.05z"/>
</g>
<g opacity="0.3">
	<path fill="#FFFFFF" d="M4381.842,389.562l-26.843-26.844l-31.581,31.58l26.843,26.844c1.744,1.744,4.572,1.744,6.316,0
		l25.265-25.264C4383.586,394.134,4383.586,391.305,4381.842,389.562z M4340.788,398.3c-3.083,0-5.583-2.499-5.583-5.583
		c0-3.083,2.5-5.583,5.583-5.583c3.083,0,5.583,2.5,5.583,5.583C4346.37,395.801,4343.871,398.3,4340.788,398.3z M4366.049,398.3
		c-3.083,0-5.583-2.499-5.583-5.583c0-3.083,2.5-5.583,5.583-5.583c3.083,0,5.583,2.5,5.583,5.583
		C4371.631,395.801,4369.132,398.3,4366.049,398.3z"/>
	<path fill="#FFFFFF" d="M4324.997,332.717c-1.744-1.744-4.572-1.744-6.316,0l-25.264,25.264c-1.744,1.744-1.744,4.572,0,6.316
		l26.843,26.843l31.581-31.58L4324.997,332.717z M4309.208,366.723c-3.083,0-5.583-2.499-5.583-5.583c0-3.083,2.5-5.583,5.583-5.583
		c3.083,0,5.583,2.5,5.583,5.583C4314.791,364.224,4312.292,366.723,4309.208,366.723z M4321.844,379.356
		c-3.083,0-5.583-2.5-5.583-5.583c0-3.084,2.5-5.583,5.583-5.583c3.083,0,5.583,2.499,5.583,5.583
		C4327.426,376.856,4324.927,379.356,4321.844,379.356z M4321.844,354.095c-3.083,0-5.583-2.499-5.583-5.583s2.5-5.583,5.583-5.583
		c3.083,0,5.583,2.499,5.583,5.583S4324.927,354.095,4321.844,354.095z M4334.47,366.723c-3.083,0-5.583-2.499-5.583-5.583
		c0-3.083,2.5-5.583,5.583-5.583c3.083,0,5.583,2.5,5.583,5.583C4340.052,364.224,4337.553,366.723,4334.47,366.723z"/>
</g>
<g opacity="0.3">
	<circle fill="#FFFFFF" cx="4585.373" cy="532.868" r="10.769"/>
	<circle fill="#FFFFFF" cx="4562.636" cy="557.638" r="8.615"/>
	<path fill="#FFFFFF" d="M4611.057,476.76c5.605-6.196,9.048-14.384,9.048-23.398c0-19.29-15.637-34.927-34.927-34.927
		c-9.929,0-18.869,4.163-25.228,10.814c-2.253-7.962-9.494-13.83-18.177-13.83c-10.478,0-18.972,8.494-18.972,18.971
		c0,1.229,0.139,2.424,0.362,3.589c-4.27-3.358-9.642-5.377-15.495-5.377c-13.867,0-25.108,11.241-25.108,25.108
		c0,10.861,6.909,20.084,16.561,23.584c-2.355,3.824-3.737,8.312-3.737,13.132c0,13.867,11.241,25.108,25.108,25.108
		c9.124,0,17.087-4.883,21.483-12.161c4.6,5.185,11.293,8.471,18.769,8.471c10.18,0,18.924-6.069,22.866-14.776
		c3.141,6.14,9.459,10.387,16.83,10.387c10.478,0,18.971-8.494,18.971-18.971C4619.412,485.94,4616.098,480.171,4611.057,476.76z"/>
</g>
</svg>
