<svg id="Layer_1" data-name="Layer 1" xmlns="http://www.w3.org/2000/svg" viewBox="0 0 512 512"><defs><style>.cls-1{fill:#fff;}.cls-2{fill:#231f20;}</style></defs><circle class="cls-1" cx="256.43" cy="27.26" r="8.52" transform="translate(168.06 269.52) rotate(-76.03)"/><path class="cls-1" d="M240.24,42.6h32.37c2.56,0,5.11,1.7,5.11,4.26s-2.55,4.25-5.11,4.25H240.24c-2.56,0-5.11-1.7-5.11-4.25S237.68,42.6,240.24,42.6Z"/><path class="cls-1" d="M256.43,497.52a23,23,0,1,1,23-23C280.28,487.29,269.2,497.52,256.43,497.52Z"/><polygon class="cls-1" points="357.8 436.18 356.95 437.03 156.75 437.03 155.9 436.18 155.9 80.93 156.75 80.08 356.1 80.08 356.95 80.93 356.95 436.18 357.8 436.18"/><path class="cls-2" d="M344.17,0H168.68a35.08,35.08,0,0,0-34.93,34.93V477.07A35.08,35.08,0,0,0,168.68,512H343.32a35.08,35.08,0,0,0,34.93-34.93V34.93C378.25,15.33,362.92,0,344.17,0ZM256.43,18.74a8.52,8.52,0,1,1-8.52,8.52A8.54,8.54,0,0,1,256.43,18.74ZM240.24,42.6h32.37c2.56,0,5.11,1.7,5.11,4.26s-2.55,4.25-5.11,4.25H240.24c-2.56,0-5.11-1.7-5.11-4.25S237.68,42.6,240.24,42.6Zm16.19,454.92a23,23,0,1,1,23-23C280.28,487.29,269.2,497.52,256.43,497.52ZM357.8,436.18,357,437H156.75l-.85-.85V80.93l.85-.85H356.1l.85.85V436.18Z"/></svg>