<?xml version="1.0" encoding="utf-8"?>
<!-- Generator: Adobe Illustrator 17.0.0, SVG Export Plug-In . SVG Version: 6.00 Build 0)  -->
<!DOCTYPE svg PUBLIC "-//W3C//DTD SVG 1.1//EN" "https://www.w3.org/Graphics/SVG/1.1/DTD/svg11.dtd">
<svg version="1.1" id="Layer_1" xmlns="https://www.w3.org/2000/svg" xmlns:xlink="https://www.w3.org/1999/xlink" x="0px" y="0px"
	 width="1600px" height="550px" viewBox="0 0 1600 550" enable-background="new 0 0 1600 550" xml:space="preserve">
<g>
	<defs>
		<rect id="SVGID_2_" x="0" width="1600" height="550"/>
	</defs>
	<clipPath id="SVGID_1_">
		<use xlink:href="#SVGID_2_"  overflow="visible"/>
	</clipPath>
	<g opacity="0.15" clip-path="url(#SVGID_1_)">
		<path fill="#F2F2F2" d="M1305.078,169.919c-2.957-7.297-9.382-9.808-16.178-12.432c-2.334-0.902-1.408-4.135-1.215-5.973
			c0.782-7.463,0.532-17.395-6.489-22.001c-2.078-1.363-4.849-2.168-7.295-2.421c-4.83-0.499-10.862,0.868-15.34,2.593
			c-15.094,5.813-22.305,20.445-24.375,35.637c-1.714,12.584,0.343,31.766,9.936,41.444c3.232,3.261,8.135,6.083,12.522,7.353
			c8.132,2.356,17.592,0.177,25.061-3.389c3.369-1.609,6.591-3.9,9.369-6.375C1300.081,196.328,1310.25,182.681,1305.078,169.919z
			 M1241.403,182.177c-0.818-3.354,1.238-6.736,4.592-7.553c3.354-0.818,6.736,1.238,7.553,4.592
			c0.818,3.354-1.238,6.736-4.592,7.553C1245.603,187.587,1242.221,185.531,1241.403,182.177z M1256.655,204.461
			c-3.354,0.818-6.736-1.238-7.553-4.592c-0.818-3.354,1.238-6.736,4.592-7.553c3.354-0.818,6.735,1.238,7.553,4.592
			C1262.065,200.262,1260.009,203.644,1256.655,204.461z M1251.963,166.022c-3.354,0.818-6.736-1.238-7.553-4.592
			c-0.818-3.354,1.238-6.736,4.592-7.553c3.354-0.818,6.736,1.238,7.553,4.592C1257.373,161.823,1255.317,165.205,1251.963,166.022z
			 M1256.625,145.585c-0.818-3.354,1.238-6.736,4.592-7.553c3.354-0.818,6.736,1.238,7.553,4.592
			c0.818,3.354-1.238,6.736-4.592,7.553C1260.824,150.994,1257.442,148.939,1256.625,145.585z M1285.446,190.754
			c-2.918,4.799-8.295,6.859-12.009,4.601c-3.714-2.258-4.36-7.98-1.443-12.779c2.918-4.799,8.294-6.859,12.009-4.601
			C1287.718,180.232,1288.364,185.954,1285.446,190.754z"/>
	</g>
	<g opacity="0.15" clip-path="url(#SVGID_1_)">
		<path fill="#F2F2F2" d="M889.811,395.215c-1.302-3.212-4.13-4.318-7.122-5.473c-1.028-0.397-0.62-1.82-0.535-2.63
			c0.344-3.285,0.234-7.658-2.857-9.686c-0.915-0.6-2.135-0.954-3.212-1.066c-2.126-0.22-4.782,0.382-6.753,1.141
			c-6.645,2.559-9.82,9.001-10.731,15.689c-0.755,5.54,0.151,13.985,4.374,18.246c1.423,1.436,3.581,2.678,5.513,3.237
			c3.58,1.037,7.745,0.078,11.033-1.492c1.483-0.708,2.902-1.717,4.125-2.807C887.611,406.841,892.088,400.833,889.811,395.215z
			 M861.778,400.611c-0.36-1.477,0.545-2.965,2.022-3.325c1.477-0.36,2.965,0.545,3.325,2.022c0.36,1.476-0.545,2.965-2.022,3.325
			C863.627,402.993,862.138,402.088,861.778,400.611z M868.493,410.422c-1.477,0.36-2.965-0.545-3.325-2.022
			c-0.36-1.477,0.545-2.965,2.022-3.325c1.477-0.36,2.965,0.545,3.325,2.022C870.875,408.573,869.969,410.062,868.493,410.422z
			 M866.427,393.499c-1.477,0.36-2.965-0.545-3.325-2.022c-0.36-1.476,0.545-2.965,2.022-3.325c1.477-0.36,2.965,0.545,3.325,2.022
			C868.809,391.65,867.904,393.139,866.427,393.499z M868.479,384.501c-0.36-1.476,0.545-2.965,2.022-3.325
			c1.477-0.36,2.965,0.545,3.325,2.022c0.36,1.477-0.545,2.965-2.022,3.325C870.328,386.883,868.839,385.978,868.479,384.501z
			 M881.168,404.387c-1.285,2.113-3.652,3.02-5.287,2.026c-1.635-0.994-1.92-3.513-0.635-5.626c1.285-2.113,3.652-3.02,5.287-2.026
			C882.168,399.755,882.453,402.274,881.168,404.387z"/>
	</g>
	<g opacity="0.15" clip-path="url(#SVGID_1_)">
		<path fill="#F2F2F2" d="M262.359,59.72c-2.957-7.297-9.382-9.808-16.178-12.432c-2.334-0.902-1.408-4.135-1.215-5.973
			c0.782-7.463,0.532-17.395-6.489-22.001c-2.078-1.363-4.849-2.168-7.295-2.421c-4.83-0.499-10.862,0.868-15.34,2.593
			c-15.094,5.813-22.305,20.444-24.375,35.637c-1.714,12.584,0.343,31.766,9.935,41.444c3.232,3.261,8.135,6.083,12.522,7.353
			c8.132,2.356,17.592,0.177,25.061-3.389c3.369-1.609,6.591-3.9,9.369-6.375C257.361,86.129,267.53,72.482,262.359,59.72z
			 M198.684,71.978c-0.818-3.354,1.238-6.736,4.592-7.553c3.354-0.818,6.736,1.238,7.553,4.592c0.818,3.354-1.238,6.736-4.592,7.553
			C202.883,77.388,199.501,75.332,198.684,71.978z M213.935,94.262c-3.354,0.818-6.736-1.238-7.553-4.592
			c-0.818-3.354,1.238-6.736,4.592-7.553c3.354-0.818,6.736,1.238,7.553,4.592C219.345,90.063,217.289,93.445,213.935,94.262z
			 M209.243,55.823c-3.354,0.818-6.736-1.238-7.553-4.592c-0.818-3.354,1.238-6.736,4.592-7.553
			c3.354-0.818,6.736,1.238,7.553,4.592C214.653,51.624,212.597,55.006,209.243,55.823z M213.905,35.386
			c-0.818-3.354,1.238-6.736,4.592-7.553c3.354-0.818,6.736,1.238,7.553,4.592c0.818,3.354-1.238,6.736-4.592,7.553
			C218.104,40.795,214.722,38.74,213.905,35.386z M242.726,80.555c-2.918,4.799-8.295,6.859-12.009,4.601
			c-3.714-2.258-4.36-7.98-1.443-12.779c2.918-4.799,8.294-6.859,12.009-4.601C244.998,70.033,245.644,75.755,242.726,80.555z"/>
	</g>
	<g opacity="0.15" clip-path="url(#SVGID_1_)">
		<path fill="#F2F2F2" d="M639.549,304.964c-1.402-3.46-4.448-4.65-7.67-5.895c-1.107-0.428-0.667-1.96-0.576-2.832
			c0.371-3.538,0.252-8.247-3.077-10.431c-0.985-0.646-2.299-1.028-3.459-1.148c-2.29-0.237-5.15,0.412-7.273,1.229
			c-7.157,2.756-10.576,9.693-11.557,16.897c-0.813,5.966,0.163,15.061,4.711,19.65c1.532,1.546,3.857,2.884,5.937,3.486
			c3.856,1.117,8.341,0.084,11.882-1.607c1.597-0.763,3.125-1.849,4.442-3.023C637.18,317.484,642.001,311.014,639.549,304.964z
			 M609.359,310.775c-0.388-1.59,0.587-3.194,2.177-3.581c1.59-0.388,3.194,0.587,3.581,2.177c0.388,1.59-0.587,3.194-2.177,3.581
			C611.35,313.34,609.747,312.366,609.359,310.775z M616.591,321.341c-1.59,0.388-3.194-0.587-3.581-2.177
			c-0.388-1.59,0.587-3.194,2.177-3.581c1.59-0.388,3.193,0.587,3.581,2.177C619.156,319.35,618.181,320.953,616.591,321.341z
			 M614.366,303.116c-1.59,0.388-3.194-0.587-3.581-2.177c-0.388-1.59,0.587-3.194,2.177-3.581c1.59-0.388,3.194,0.587,3.581,2.177
			C616.931,301.125,615.956,302.728,614.366,303.116z M616.576,293.426c-0.388-1.59,0.587-3.194,2.177-3.581
			c1.59-0.388,3.194,0.587,3.581,2.177c0.388,1.59-0.587,3.194-2.177,3.581C618.567,295.991,616.964,295.016,616.576,293.426z
			 M630.241,314.842c-1.383,2.275-3.933,3.252-5.694,2.181c-1.761-1.071-2.067-3.783-0.684-6.059
			c1.383-2.275,3.933-3.252,5.694-2.182C631.318,309.853,631.625,312.566,630.241,314.842z"/>
	</g>
	<g opacity="0.15" clip-path="url(#SVGID_1_)">
		<g>
			<path fill="#F2F2F2" d="M68.732,122.77c-1.745-0.051-3.532-0.035-5.413,0.145c0.087,0.909,0.213,2.225,0.364,3.797
				c14.556-0.535,25.159,3.184,31.371,6.306C90.373,129.038,81.374,123.14,68.732,122.77z"/>
			<path fill="#F2F2F2" d="M130.939,116.432c-1.881,0.18-3.639,0.505-5.342,0.886c-12.342,2.765-20.056,10.266-23.895,15.063
				c5.506-4.246,15.209-9.911,29.601-12.152C131.184,118.99,131.063,117.729,130.939,116.432z"/>
		</g>
		<g>
			<path fill="#F2F2F2" d="M99.431,129.109c4.468-5.348,12.806-12.877,25.798-15.627c-0.098-1.026-0.198-2.068-0.301-3.141
				c-15.06,1.444-23.025,13.668-25.668,18.64C99.319,129.024,99.377,129.061,99.431,129.109z"/>
			<path fill="#F2F2F2" d="M96.805,129.217c-3.54-4.379-13.681-14.867-28.742-13.423c0.072,0.754,0.177,1.842,0.301,3.141
				c13.278,0.231,22.895,6.038,28.297,10.44C96.705,129.317,96.755,129.269,96.805,129.217z"/>
			<path fill="#F2F2F2" d="M136.278,123.421c-1.592,0.153-3.129,0.351-4.613,0.587c-17.138,2.724-27.106,10.574-30.857,14.122
				l4.188,43.68c4.064-3.849,15.474-12.794,35.469-14.711C139.487,156.893,138.735,149.045,136.278,123.421z"/>
			<path fill="#F2F2F2" d="M64.045,130.49c-1.502,0.05-3.049,0.148-4.641,0.301c0.685,7.146,2.591,27.023,4.188,43.677
				c19.994-1.917,32.897,4.697,37.618,7.704l-4.188-43.68C92.666,135.721,81.388,129.909,64.045,130.49z"/>
		</g>
	</g>
	<g opacity="0.15" clip-path="url(#SVGID_1_)">
		<g>
			<path fill="#F2F2F2" d="M1481.046,36.178c-1.782-0.505-3.625-0.953-5.608-1.255c-0.146,0.958-0.358,2.344-0.61,4.001
				c15.116,3.226,25.062,9.802,30.644,14.627C1501.689,48.241,1493.959,39.838,1481.046,36.178z"/>
			<path fill="#F2F2F2" d="M1546.7,45.792c-1.982-0.302-3.875-0.425-5.727-0.474c-13.417-0.356-23.301,5.361-28.495,9.301
				c6.767-2.941,18.221-6.254,33.612-4.826C1546.289,48.487,1546.492,47.16,1546.7,45.792z"/>
		</g>
		<g>
			<path fill="#F2F2F2" d="M1510.99,50.664c5.985-4.344,16.517-9.928,30.599-9.388c0.165-1.081,0.332-2.179,0.505-3.31
				c-15.872-2.421-27.237,8.091-31.247,12.522C1510.898,50.547,1510.948,50.6,1510.99,50.664z"/>
			<path fill="#F2F2F2" d="M1508.26,50.093c-2.506-5.424-10.221-18.847-26.093-21.268c-0.121,0.795-0.296,1.941-0.505,3.31
				c13.603,3.682,21.992,12.152,26.409,18.083C1508.132,50.171,1508.195,50.135,1508.26,50.093z"/>
			<path fill="#F2F2F2" d="M1550.381,54.368c-1.678-0.256-3.31-0.451-4.899-0.593c-18.341-1.642-30.634,3.849-35.414,6.527
				l-7.021,46.033c5.18-2.906,19.242-9.151,40.313-5.937C1545.001,89.643,1546.263,81.373,1550.381,54.368z"/>
			<path fill="#F2F2F2" d="M1474.22,42.906c-1.559-0.338-3.175-0.639-4.853-0.894c-1.149,7.531-4.344,28.479-7.021,46.029
				c21.071,3.214,32.632,13.366,36.711,17.685l7.021-46.032C1502.314,55.713,1492.217,46.806,1474.22,42.906z"/>
		</g>
	</g>
	<g opacity="0.15" clip-path="url(#SVGID_1_)">
		<g>
			<path fill="#F2F2F2" d="M793.595,461.97c-1.007-0.076-2.041-0.115-3.132-0.061c0.026,0.527,0.064,1.291,0.109,2.204
				c8.427,0.081,14.455,2.514,17.961,4.485C805.935,466.172,800.892,462.522,793.595,461.97z"/>
			<path fill="#F2F2F2" d="M829.717,459.973c-1.092,0.054-2.117,0.194-3.111,0.369c-7.207,1.268-11.866,5.396-14.213,8.065
				c3.296-2.307,9.055-5.321,17.433-6.23C829.79,461.458,829.754,460.727,829.717,459.973z"/>
		</g>
		<g>
			<path fill="#F2F2F2" d="M811.168,466.456c2.725-2.971,7.746-7.099,15.328-8.34c-0.029-0.595-0.059-1.2-0.09-1.823
				c-8.743,0.431-13.673,7.282-15.334,10.085C811.106,466.404,811.138,466.427,811.168,466.456z"/>
			<path fill="#F2F2F2" d="M809.647,466.448c-1.928-2.626-7.509-8.959-16.251-8.528c0.022,0.438,0.053,1.069,0.09,1.823
				c7.668,0.489,13.07,4.103,16.074,6.792C809.587,466.503,809.617,466.477,809.647,466.448z"/>
			<path fill="#F2F2F2" d="M832.616,464.156c-0.924,0.046-1.818,0.119-2.682,0.215c-9.977,1.115-15.949,5.385-18.212,7.335
				l1.25,25.357c2.452-2.116,9.286-6.98,20.893-7.552C833.574,483.586,833.349,479.031,832.616,464.156z"/>
			<path fill="#F2F2F2" d="M790.68,466.306c-0.869-0.011-1.766,0.004-2.69,0.049c0.205,4.148,0.773,15.687,1.25,25.355
				c11.607-0.572,18.886,3.596,21.535,5.46l-1.25-25.356C807.081,470.096,800.719,466.435,790.68,466.306z"/>
		</g>
	</g>
	<g opacity="0.15" clip-path="url(#SVGID_1_)">
		<path fill="#F2F2F2" d="M100.279,494.999l-26.722-26.722L42.12,499.714l26.722,26.722c1.736,1.736,4.551,1.736,6.287,0
			l25.15-25.15C102.015,499.55,102.015,496.734,100.279,494.999z M59.411,503.698c-3.069,0-5.557-2.488-5.557-5.557
			c0-3.069,2.488-5.557,5.557-5.557c3.069,0,5.557,2.488,5.557,5.557C64.969,501.21,62.48,503.698,59.411,503.698z M84.558,503.698
			c-3.069,0-5.557-2.488-5.557-5.557c0-3.069,2.488-5.557,5.557-5.557c3.069,0,5.557,2.488,5.557,5.557
			C90.115,501.21,87.627,503.698,84.558,503.698z"/>
		<path fill="#F2F2F2" d="M43.692,438.411c-1.736-1.736-4.551-1.736-6.287,0l-25.15,25.15c-1.736,1.736-1.736,4.551,0,6.288
			l26.722,26.722l31.437-31.437L43.692,438.411z M27.975,472.264c-3.069,0-5.557-2.488-5.557-5.557c0-3.069,2.488-5.557,5.557-5.557
			c3.069,0,5.557,2.488,5.557,5.557C33.533,469.776,31.044,472.264,27.975,472.264z M40.553,484.839
			c-3.069,0-5.557-2.488-5.557-5.557c0-3.07,2.488-5.557,5.557-5.557c3.069,0,5.557,2.488,5.557,5.557
			C46.11,482.351,43.622,484.839,40.553,484.839z M40.553,459.692c-3.069,0-5.557-2.488-5.557-5.557
			c0-3.069,2.488-5.557,5.557-5.557c3.069,0,5.557,2.488,5.557,5.557C46.11,457.204,43.622,459.692,40.553,459.692z M53.122,472.264
			c-3.069,0-5.557-2.488-5.557-5.557c0-3.069,2.488-5.557,5.557-5.557c3.069,0,5.557,2.488,5.557,5.557
			C58.679,469.776,56.191,472.264,53.122,472.264z"/>
	</g>
	<g opacity="0.15" clip-path="url(#SVGID_1_)">
		<path fill="#F2F2F2" d="M1149.777,83.354l-26.722-26.722l-31.437,31.437l26.722,26.722c1.736,1.736,4.551,1.736,6.287,0
			l25.15-25.15C1151.513,87.905,1151.513,85.089,1149.777,83.354z M1108.908,92.053c-3.069,0-5.557-2.488-5.557-5.557
			c0-3.069,2.488-5.557,5.557-5.557c3.069,0,5.557,2.488,5.557,5.557C1114.466,89.565,1111.978,92.053,1108.908,92.053z
			 M1134.055,92.053c-3.069,0-5.557-2.488-5.557-5.557c0-3.069,2.488-5.557,5.557-5.557s5.557,2.488,5.557,5.557
			C1139.613,89.565,1137.124,92.053,1134.055,92.053z"/>
		<path fill="#F2F2F2" d="M1093.189,26.766c-1.736-1.736-4.551-1.736-6.287,0l-25.15,25.15c-1.736,1.736-1.736,4.551,0,6.288
			l26.722,26.722l31.437-31.437L1093.189,26.766z M1077.473,60.619c-3.069,0-5.557-2.488-5.557-5.557
			c0-3.069,2.488-5.557,5.557-5.557c3.069,0,5.557,2.488,5.557,5.557C1083.03,58.131,1080.542,60.619,1077.473,60.619z
			 M1090.05,73.194c-3.069,0-5.557-2.488-5.557-5.557c0-3.07,2.488-5.557,5.557-5.557c3.069,0,5.557,2.488,5.557,5.557
			C1095.608,70.706,1093.12,73.194,1090.05,73.194z M1090.05,48.047c-3.069,0-5.557-2.488-5.557-5.557
			c0-3.069,2.488-5.557,5.557-5.557c3.069,0,5.557,2.488,5.557,5.557C1095.608,45.559,1093.12,48.047,1090.05,48.047z
			 M1102.619,60.619c-3.069,0-5.557-2.488-5.557-5.557c0-3.069,2.488-5.557,5.557-5.557s5.557,2.488,5.557,5.557
			C1108.177,58.131,1105.688,60.619,1102.619,60.619z"/>
	</g>
	<g opacity="0.15" clip-path="url(#SVGID_1_)">
		<path fill="#F2F2F2" d="M793.676,271.539l18.238,18.238c1.259,1.259,3.3,1.259,4.56,0l19.378-19.378l-22.797-22.797
			l-19.378,19.378C792.417,268.239,792.417,270.28,793.676,271.539z M819.282,269.258c0-2.226,1.804-4.03,4.03-4.03
			c2.226,0,4.03,1.804,4.03,4.03c0,2.226-1.804,4.03-4.03,4.03C821.087,273.288,819.282,271.484,819.282,269.258z M801.047,269.258
			c0-2.226,1.804-4.03,4.03-4.03c2.226,0,4.03,1.804,4.03,4.03c0,2.226-1.804,4.03-4.03,4.03
			C802.851,273.288,801.047,271.484,801.047,269.258z"/>
		<path fill="#F2F2F2" d="M815.334,245.322l22.797,22.797l19.378-19.378c1.259-1.259,1.259-3.301,0-4.56l-18.238-18.238
			c-1.259-1.259-3.3-1.259-4.56,0L815.334,245.322z M842.079,246.463c0-2.226,1.804-4.03,4.03-4.03c2.226,0,4.03,1.804,4.03,4.03
			c0,2.226-1.804,4.03-4.03,4.03C843.883,250.493,842.079,248.689,842.079,246.463z M832.958,255.583c0-2.226,1.804-4.03,4.03-4.03
			c2.226,0,4.03,1.804,4.03,4.03c0,2.226-1.804,4.03-4.03,4.03C834.762,259.613,832.958,257.808,832.958,255.583z M832.958,237.347
			c0-2.226,1.804-4.03,4.03-4.03c2.226,0,4.03,1.804,4.03,4.03s-1.804,4.03-4.03,4.03
			C834.762,241.377,832.958,239.572,832.958,237.347z M823.843,246.463c0-2.226,1.804-4.03,4.03-4.03s4.03,1.804,4.03,4.03
			c0,2.226-1.804,4.03-4.03,4.03S823.843,248.689,823.843,246.463z"/>
	</g>
	<g opacity="0.15" clip-path="url(#SVGID_1_)">
		<path fill="#F2F2F2" d="M1294.171,370.236l-20.77-20.77l-24.435,24.435l20.77,20.77c1.349,1.349,3.537,1.349,4.887,0
			l19.548-19.548C1295.52,373.774,1295.52,371.585,1294.171,370.236z M1262.406,376.998c-2.385,0-4.319-1.934-4.319-4.32
			c0-2.385,1.934-4.32,4.319-4.32c2.386,0,4.32,1.934,4.32,4.32C1266.725,375.064,1264.792,376.998,1262.406,376.998z
			 M1281.951,376.998c-2.385,0-4.319-1.934-4.319-4.32c0-2.385,1.934-4.32,4.319-4.32c2.386,0,4.32,1.934,4.32,4.32
			C1286.271,375.064,1284.337,376.998,1281.951,376.998z"/>
		<path fill="#F2F2F2" d="M1250.188,326.253c-1.349-1.349-3.537-1.349-4.887,0l-19.548,19.548c-1.349,1.349-1.35,3.537,0,4.887
			l20.77,20.77l24.435-24.435L1250.188,326.253z M1237.972,352.565c-2.385,0-4.319-1.934-4.319-4.319c0-2.385,1.934-4.32,4.319-4.32
			c2.386,0,4.32,1.934,4.32,4.32C1242.292,350.632,1240.358,352.565,1237.972,352.565z M1247.748,362.34
			c-2.386,0-4.32-1.934-4.32-4.32c0-2.386,1.934-4.319,4.32-4.319s4.319,1.934,4.319,4.319
			C1252.068,360.406,1250.134,362.34,1247.748,362.34z M1247.748,342.794c-2.386,0-4.32-1.934-4.32-4.32
			c0-2.386,1.934-4.319,4.32-4.319s4.319,1.934,4.319,4.319C1252.068,340.86,1250.134,342.794,1247.748,342.794z M1257.517,352.565
			c-2.386,0-4.319-1.934-4.319-4.319c0-2.385,1.934-4.32,4.319-4.32s4.32,1.934,4.32,4.32
			C1261.837,350.632,1259.903,352.565,1257.517,352.565z"/>
	</g>
	<g opacity="0.15" clip-path="url(#SVGID_1_)">
		<path fill="#F2F2F2" d="M101.989,51.365L90.633,40.008l-13.36,13.36l11.356,11.356c0.738,0.738,1.934,0.738,2.672,0l10.688-10.688
			C102.727,53.299,102.727,52.102,101.989,51.365z M84.621,55.062c-1.304,0-2.362-1.057-2.362-2.362
			c0-1.304,1.057-2.362,2.362-2.362c1.304,0,2.362,1.058,2.362,2.362C86.983,54.004,85.925,55.062,84.621,55.062z M95.308,55.062
			c-1.304,0-2.362-1.057-2.362-2.362c0-1.304,1.057-2.362,2.362-2.362c1.304,0,2.362,1.058,2.362,2.362
			C97.67,54.004,96.612,55.062,95.308,55.062z"/>
		<path fill="#F2F2F2" d="M77.941,27.316c-0.738-0.738-1.934-0.738-2.672,0L64.58,38.004c-0.738,0.738-0.738,1.934,0,2.672
			l11.356,11.356l13.36-13.36L77.941,27.316z M71.261,41.703c-1.304,0-2.362-1.057-2.362-2.362c0-1.304,1.057-2.362,2.362-2.362
			c1.304,0,2.362,1.057,2.362,2.362C73.623,40.645,72.566,41.703,71.261,41.703z M76.607,47.047c-1.304,0-2.362-1.058-2.362-2.362
			c0-1.305,1.057-2.362,2.362-2.362c1.304,0,2.362,1.057,2.362,2.362C78.968,45.989,77.911,47.047,76.607,47.047z M76.607,36.36
			c-1.304,0-2.362-1.057-2.362-2.362s1.057-2.362,2.362-2.362c1.304,0,2.362,1.057,2.362,2.362S77.911,36.36,76.607,36.36z
			 M81.948,41.703c-1.304,0-2.362-1.057-2.362-2.362c0-1.304,1.057-2.362,2.362-2.362s2.362,1.057,2.362,2.362
			C84.31,40.645,83.253,41.703,81.948,41.703z"/>
	</g>
	<path opacity="0.15" clip-path="url(#SVGID_1_)" fill="#F2F2F2" d="M1045.642,356.893c-0.597-0.937-1.558-1.665-2.458-2.287
		c-3.14-2.169-6.751-3.142-10.54-3.336c-5.142-0.263-9.576,1.447-13.589,4.143c1.03-2.347,1.607-4.873,1.464-7.657
		c-0.159-3.116-0.959-6.087-2.744-8.67c-0.511-0.74-1.11-1.531-1.881-2.022c-1.164-0.741-2.606,1.445-3.133,2.102
		c-1.57,1.957-2.927,4.216-3.804,6.6c-1.139,3.096,0.648,5.711,2.411,8.119c0.499,0.682,0.996,1.377,1.425,2.106
		c1.197,2.033,0.131,4.348-1.628,5.918c-0.168,0.15-0.342,0.278-0.513,0.411c-2.878-2.19-10.228-6.234-18.189,1.727
		c-10.571,10.571-26.573,32.862-25.244,44.111c11.249,1.329,33.54-14.673,44.111-25.244c7.742-7.742,4.125-14.918,1.905-17.954
		c0.512-0.704,1.471-2.028,1.728-2.317c1.908-2.138,5.2-3.433,7.671-1.979c0.886,0.522,1.731,1.125,2.56,1.732
		c2.927,2.144,6.325,3.195,10.32,2.847C1040.647,364.797,1046.543,358.308,1045.642,356.893z"/>
	<path opacity="0.15" clip-path="url(#SVGID_1_)" fill="#F2F2F2" d="M368.105,490.669c-0.382-0.601-0.999-1.067-1.575-1.466
		c-2.012-1.39-4.327-2.014-6.755-2.138c-3.295-0.168-6.137,0.927-8.709,2.655c0.66-1.504,1.03-3.123,0.938-4.907
		c-0.102-1.997-0.615-3.901-1.758-5.556c-0.328-0.474-0.711-0.981-1.206-1.296c-0.746-0.475-1.67,0.926-2.008,1.347
		c-1.006,1.254-1.876,2.702-2.438,4.229c-0.73,1.984,0.415,3.66,1.545,5.203c0.32,0.437,0.638,0.882,0.913,1.35
		c0.767,1.303,0.084,2.786-1.043,3.792c-0.107,0.096-0.219,0.178-0.329,0.264c-1.845-1.403-6.555-3.995-11.656,1.107
		c-6.774,6.775-17.029,21.059-16.178,28.268c7.209,0.852,21.494-9.403,28.268-16.178c4.961-4.961,2.643-9.56,1.221-11.506
		c0.328-0.451,0.943-1.3,1.108-1.485c1.223-1.37,3.332-2.2,4.916-1.268c0.568,0.334,1.109,0.721,1.641,1.11
		c1.876,1.374,4.054,2.047,6.614,1.824C364.904,495.733,368.683,491.575,368.105,490.669z"/>
	<path opacity="0.15" clip-path="url(#SVGID_1_)" fill="#F2F2F2" d="M542.112,48.611c-0.503-0.79-1.314-1.405-2.073-1.929
		c-2.648-1.83-5.695-2.65-8.89-2.814c-4.337-0.222-8.077,1.22-11.462,3.495c0.869-1.98,1.355-4.11,1.235-6.458
		c-0.134-2.629-0.809-5.134-2.314-7.313c-0.431-0.624-0.936-1.291-1.587-1.705c-0.982-0.625-2.198,1.219-2.643,1.773
		c-1.324,1.651-2.469,3.556-3.209,5.566c-0.961,2.611,0.546,4.817,2.034,6.848c0.421,0.575,0.84,1.161,1.202,1.776
		c1.009,1.714,0.11,3.667-1.373,4.991c-0.141,0.126-0.289,0.234-0.432,0.347c-2.428-1.847-8.627-5.258-15.342,1.456
		c-8.916,8.916-22.413,27.717-21.292,37.206c9.488,1.121,28.289-12.376,37.206-21.292c6.53-6.53,3.479-12.582,1.607-15.144
		c0.432-0.594,1.241-1.711,1.458-1.954c1.61-1.803,4.386-2.896,6.47-1.669c0.747,0.44,1.46,0.949,2.159,1.461
		c2.469,1.808,5.335,2.695,8.705,2.401C537.899,55.277,542.872,49.804,542.112,48.611z"/>
	<path opacity="0.15" clip-path="url(#SVGID_1_)" fill="#F2F2F2" d="M1595.092,239.485c-0.286-0.449-0.747-0.798-1.178-1.096
		c-1.505-1.04-3.235-1.506-5.051-1.599c-2.464-0.126-4.589,0.693-6.512,1.985c0.494-1.125,0.77-2.335,0.702-3.669
		c-0.076-1.493-0.46-2.917-1.315-4.155c-0.245-0.355-0.532-0.734-0.901-0.969c-0.558-0.355-1.249,0.692-1.501,1.007
		c-0.752,0.938-1.402,2.02-1.823,3.162c-0.546,1.483,0.31,2.737,1.155,3.89c0.239,0.327,0.477,0.66,0.683,1.009
		c0.574,0.974,0.063,2.084-0.78,2.836c-0.08,0.072-0.164,0.133-0.246,0.197c-1.379-1.049-4.901-2.988-8.716,0.827
		c-5.066,5.066-12.734,15.747-12.097,21.138c5.391,0.637,16.072-7.031,21.138-12.097c3.71-3.71,1.977-7.149,0.913-8.604
		c0.245-0.337,0.705-0.972,0.828-1.11c0.915-1.025,2.492-1.645,3.676-0.948c0.425,0.25,0.83,0.539,1.227,0.83
		c1.403,1.027,3.031,1.531,4.945,1.364C1592.698,243.273,1595.524,240.164,1595.092,239.485z"/>
	<g opacity="0.15" clip-path="url(#SVGID_1_)">
		<path fill="#F2F2F2" d="M1096.212,249.531c0.097,0.012,0.191,0.024,0.289,0.033c6.302,0.545,12.754-0.652,13.055-4.134
			c0.514-5.952-3.039-12.987-8.426-15.286c2.383-1.23,4.209-4.083,4.51-7.573c0.421-4.869-2.265-9.079-5.999-9.401
			c-3.73-0.322-7.098,3.364-7.519,8.233c-0.302,3.489,1.012,6.614,3.145,8.234c-0.781,0.183-1.54,0.465-2.277,0.822
			c2.999,4.57,4.561,10.092,4.067,15.807C1096.957,247.437,1096.659,248.521,1096.212,249.531z"/>
		<path fill="#F2F2F2" d="M1054.002,227.121c-0.677-0.49-1.391-0.916-2.144-1.234c2.379-1.23,4.205-4.084,4.507-7.573
			c0.421-4.869-2.261-9.079-5.995-9.401c-3.735-0.323-7.098,3.364-7.519,8.233c-0.302,3.489,1.008,6.614,3.14,8.234
			c-5.702,1.341-10.408,7.662-10.922,13.614c-0.301,3.482,5.85,5.767,12.156,6.312c0.115,0.01,0.236,0.013,0.357,0.023
			c-0.266-1.072-0.375-2.192-0.274-3.361C1047.802,236.264,1050.275,231.107,1054.002,227.121z"/>
		<path fill="#F2F2F2" d="M1088.45,234.011c-0.519-0.837-1.102-1.629-1.744-2.374c-0.622-0.724-1.293-1.407-2.02-2.034
			c-1.971-1.701-4.3-3.02-6.876-3.807c3.834-1.718,6.808-6.23,7.284-11.746c0.637-7.373-3.426-13.747-9.085-14.236
			c-5.651-0.488-10.753,5.094-11.39,12.467c-0.477,5.516,1.681,10.472,5.163,12.822c-2.696,0.335-5.229,1.245-7.479,2.596
			c-0.82,0.497-1.599,1.055-2.333,1.666c-0.761,0.627-1.467,1.313-2.12,2.052c-2.643,2.973-4.398,6.779-4.767,11.051
			c-0.084,0.97,0.172,1.879,0.689,2.722c0.552,0.896,1.413,1.717,2.509,2.456c1.024,0.691,2.25,1.316,3.63,1.859
			c3.29,1.299,7.417,2.16,11.591,2.521c4.151,0.359,8.345,0.221,11.797-0.488c1.462-0.298,2.784-0.699,3.919-1.203
			c1.214-0.543,2.206-1.2,2.911-1.991c0.663-0.742,1.07-1.601,1.154-2.575C1091.654,241.474,1090.567,237.403,1088.45,234.011z"/>
	</g>
	<g opacity="0.15" clip-path="url(#SVGID_1_)">
		<path fill="#F2F2F2" d="M1410.58,468.975c0.055,0.007,0.109,0.014,0.165,0.019c3.606,0.312,7.299-0.373,7.471-2.365
			c0.294-3.406-1.739-7.432-4.822-8.747c1.364-0.704,2.409-2.337,2.581-4.334c0.241-2.786-1.296-5.195-3.433-5.38
			c-2.135-0.184-4.062,1.925-4.303,4.712c-0.172,1.997,0.579,3.785,1.8,4.712c-0.447,0.104-0.881,0.266-1.303,0.471
			c1.716,2.615,2.61,5.775,2.328,9.046C1411.006,467.776,1410.836,468.397,1410.58,468.975z"/>
		<path fill="#F2F2F2" d="M1386.425,456.151c-0.388-0.281-0.796-0.524-1.227-0.706c1.362-0.704,2.407-2.337,2.579-4.334
			c0.241-2.786-1.294-5.195-3.431-5.38c-2.137-0.185-4.062,1.925-4.303,4.712c-0.173,1.997,0.577,3.785,1.797,4.712
			c-3.263,0.767-5.956,4.385-6.25,7.791c-0.172,1.992,3.348,3.3,6.956,3.612c0.066,0.006,0.135,0.007,0.204,0.013
			c-0.152-0.614-0.215-1.254-0.157-1.923C1382.876,461.383,1384.292,458.431,1386.425,456.151z"/>
		<path fill="#F2F2F2" d="M1406.138,460.094c-0.297-0.479-0.63-0.932-0.998-1.359c-0.356-0.414-0.74-0.805-1.156-1.164
			c-1.128-0.973-2.461-1.728-3.935-2.178c2.194-0.983,3.896-3.565,4.169-6.722c0.365-4.219-1.961-7.867-5.199-8.147
			c-3.234-0.279-6.154,2.915-6.518,7.134c-0.273,3.157,0.962,5.993,2.955,7.337c-1.543,0.192-2.992,0.713-4.28,1.486
			c-0.469,0.285-0.915,0.604-1.335,0.953c-0.435,0.359-0.839,0.751-1.214,1.174c-1.513,1.701-2.517,3.88-2.728,6.324
			c-0.048,0.555,0.099,1.075,0.394,1.558c0.316,0.513,0.809,0.983,1.436,1.405c0.586,0.395,1.288,0.753,2.078,1.064
			c1.883,0.744,4.244,1.236,6.633,1.442c2.375,0.205,4.776,0.127,6.751-0.279c0.836-0.171,1.593-0.4,2.242-0.689
			c0.695-0.311,1.262-0.686,1.666-1.139c0.379-0.425,0.613-0.916,0.661-1.473C1407.972,464.364,1407.349,462.034,1406.138,460.094z"
			/>
	</g>
	<g opacity="0.15" clip-path="url(#SVGID_1_)">
		<path fill="#F2F2F2" d="M205.646,494.653c0.055-0.009,0.109-0.019,0.164-0.03c3.541-0.751,6.875-2.48,6.46-4.436
			c-0.709-3.345-3.826-6.605-7.158-6.967c1.1-1.07,1.625-2.936,1.209-4.897c-0.58-2.736-2.751-4.594-4.849-4.149
			c-2.096,0.444-3.326,3.023-2.746,5.759c0.416,1.961,1.655,3.453,3.092,3.985c-0.397,0.23-0.766,0.511-1.11,0.829
			c2.403,2.003,4.177,4.766,4.858,7.978C205.706,493.382,205.723,494.025,205.646,494.653z"/>
		<path fill="#F2F2F2" d="M178.806,489.408c-0.452-0.156-0.914-0.27-1.379-0.319c1.098-1.069,1.623-2.936,1.207-4.897
			c-0.58-2.736-2.749-4.594-4.847-4.15c-2.099,0.445-3.326,3.023-2.746,5.759c0.416,1.961,1.653,3.453,3.09,3.986
			c-2.899,1.683-4.423,5.927-3.714,9.272c0.415,1.956,4.163,2.184,7.706,1.433c0.065-0.014,0.132-0.032,0.199-0.047
			c-0.324-0.543-0.57-1.138-0.709-1.795C176.932,495.446,177.428,492.211,178.806,489.408z"/>
		<path fill="#F2F2F2" d="M198.813,487.447c-0.423-0.372-0.874-0.709-1.35-1.01c-0.461-0.293-0.942-0.555-1.444-0.778
			c-1.362-0.603-2.857-0.938-4.398-0.94c1.813-1.579,2.69-4.544,2.033-7.644c-0.878-4.143-4.164-6.957-7.344-6.283
			c-3.175,0.673-5.04,4.579-4.161,8.722c0.657,3.1,2.663,5.454,4.961,6.161c-1.42,0.632-2.656,1.552-3.662,2.666
			c-0.366,0.409-0.7,0.844-1,1.301c-0.312,0.47-0.585,0.963-0.82,1.476c-0.953,2.068-1.279,4.444-0.771,6.844
			c0.116,0.545,0.407,1,0.83,1.376c0.452,0.399,1.06,0.705,1.782,0.927c0.676,0.208,1.451,0.346,2.297,0.414
			c2.018,0.164,4.42-0.052,6.766-0.549c2.332-0.495,4.606-1.268,6.378-2.231c0.751-0.406,1.408-0.846,1.945-1.311
			c0.574-0.499,1.008-1.024,1.262-1.575c0.239-0.517,0.32-1.055,0.204-1.602C201.81,491,200.537,488.952,198.813,487.447z"/>
	</g>
	<g opacity="0.15" clip-path="url(#SVGID_1_)">
		<path fill="#F2F2F2" d="M440.718,408.695c0.058,0.011,0.114,0.022,0.173,0.031c3.779,0.576,7.717,0.109,8.036-1.979
			c0.544-3.569-1.322-7.952-4.48-9.55c1.485-0.648,2.699-2.297,3.018-4.39c0.445-2.92-1.009-5.564-3.248-5.906
			c-2.237-0.341-4.413,1.75-4.858,4.67c-0.319,2.092,0.35,4.029,1.573,5.09c-0.478,0.079-0.947,0.22-1.405,0.406
			c1.629,2.874,2.354,6.265,1.831,9.693C441.25,407.461,441.027,408.103,440.718,408.695z"/>
		<path fill="#F2F2F2" d="M416.143,393.52c-0.389-0.322-0.803-0.607-1.244-0.829c1.483-0.648,2.697-2.297,3.016-4.39
			c0.445-2.92-1.007-5.564-3.246-5.905c-2.24-0.342-4.413,1.75-4.858,4.67c-0.319,2.092,0.348,4.028,1.57,5.089
			c-3.492,0.584-6.578,4.211-7.122,7.781c-0.318,2.088,3.301,3.708,7.083,4.285c0.069,0.011,0.142,0.017,0.214,0.028
			c-0.118-0.657-0.14-1.337-0.033-2.038C412.044,398.79,413.739,395.777,416.143,393.52z"/>
		<path fill="#F2F2F2" d="M436.647,399.03c-0.28-0.525-0.6-1.026-0.958-1.5c-0.347-0.461-0.725-0.899-1.138-1.306
			c-1.122-1.103-2.474-1.99-3.997-2.566c2.38-0.885,4.351-3.49,4.855-6.797c0.674-4.422-1.525-8.426-4.919-8.943
			c-3.389-0.517-6.685,2.649-7.36,7.071c-0.504,3.308,0.602,6.381,2.609,7.936c-1.639,0.096-3.203,0.545-4.612,1.272
			c-0.514,0.268-1.006,0.573-1.473,0.913c-0.483,0.348-0.936,0.734-1.359,1.154c-1.711,1.689-2.919,3.916-3.309,6.477
			c-0.089,0.582,0.03,1.14,0.309,1.669c0.298,0.562,0.785,1.091,1.416,1.58c0.59,0.457,1.305,0.882,2.116,1.264
			c1.933,0.913,4.388,1.594,6.891,1.976c2.489,0.38,5.024,0.462,7.133,0.17c0.893-0.122,1.706-0.312,2.411-0.572
			c0.753-0.28,1.378-0.637,1.834-1.086c0.429-0.421,0.708-0.923,0.797-1.507C438.286,403.657,437.79,401.158,436.647,399.03z"/>
	</g>
	<g opacity="0.15" clip-path="url(#SVGID_1_)">
		<path fill="#F2F2F2" d="M1369.863,58.337c0.055,0.003,0.109,0.006,0.164,0.006c3.573,0.043,7.158-0.9,7.182-2.874
			c0.041-3.375-2.255-7.19-5.386-8.26c1.291-0.792,2.201-2.476,2.225-4.455c0.033-2.761-1.655-5.02-3.772-5.046
			c-2.115-0.026-3.858,2.192-3.892,4.953c-0.024,1.978,0.847,3.684,2.116,4.508c-0.432,0.135-0.848,0.327-1.248,0.558
			c1.881,2.449,2.991,5.495,2.952,8.735C1370.196,57.125,1370.073,57.749,1369.863,58.337z"/>
		<path fill="#F2F2F2" d="M1345.146,47.475c-0.402-0.248-0.822-0.458-1.259-0.606c1.289-0.792,2.199-2.476,2.223-4.455
			c0.033-2.761-1.653-5.02-3.77-5.046c-2.118-0.026-3.858,2.192-3.892,4.953c-0.024,1.978,0.844,3.684,2.113,4.508
			c-3.157,0.994-5.543,4.752-5.584,8.126c-0.024,1.974,3.537,3.005,7.112,3.048c0.065,0.001,0.134-0.003,0.202-0.002
			c-0.195-0.593-0.303-1.219-0.295-1.882C1342.035,52.885,1343.213,49.876,1345.146,47.475z"/>
		<path fill="#F2F2F2" d="M1364.842,49.917c-0.327-0.45-0.689-0.872-1.082-1.265c-0.381-0.382-0.787-0.739-1.223-1.062
			c-1.181-0.876-2.549-1.521-4.033-1.857c2.088-1.128,3.575-3.795,3.613-6.922c0.051-4.181-2.505-7.602-5.713-7.641
			c-3.204-0.039-5.845,3.319-5.896,7.5c-0.038,3.128,1.384,5.829,3.445,7.008c-1.505,0.302-2.894,0.92-4.105,1.775
			c-0.441,0.315-0.857,0.661-1.245,1.036c-0.402,0.385-0.771,0.801-1.109,1.245c-1.365,1.785-2.194,4.003-2.224,6.425
			c-0.007,0.55,0.175,1.051,0.502,1.505c0.349,0.482,0.868,0.908,1.516,1.279c0.606,0.346,1.323,0.647,2.123,0.896
			c1.908,0.595,4.269,0.907,6.635,0.936c2.354,0.029,4.711-0.224,6.626-0.768c0.811-0.229,1.539-0.51,2.157-0.842
			c0.661-0.357,1.193-0.768,1.557-1.243c0.342-0.446,0.536-0.947,0.543-1.499C1366.958,53.988,1366.176,51.739,1364.842,49.917z"/>
	</g>
	<g opacity="0.15" clip-path="url(#SVGID_1_)">
		<circle fill="#F2F2F2" cx="770.056" cy="96.667" r="6.377"/>
		<circle fill="#F2F2F2" cx="753.941" cy="108.363" r="5.102"/>
		<path fill="#F2F2F2" d="M791.573,67.132c3.983-2.935,6.947-7.282,8.009-12.512c2.273-11.195-4.959-22.113-16.154-24.386
			c-5.762-1.17-11.441,0.192-15.915,3.303c-0.369-4.886-3.88-9.145-8.919-10.168c-6.081-1.235-12.011,2.694-13.246,8.774
			c-0.145,0.713-0.205,1.423-0.213,2.125c-2.082-2.452-4.962-4.257-8.359-4.947c-8.048-1.634-15.896,3.565-17.53,11.613
			c-1.28,6.303,1.643,12.47,6.832,15.638c-1.817,1.942-3.148,4.383-3.717,7.181c-1.634,8.048,3.565,15.896,11.612,17.53
			c5.295,1.075,10.492-0.82,13.901-4.526c2.058,3.551,5.556,6.247,9.894,7.128c5.908,1.2,11.698-1.292,15.011-5.881
			c1.099,3.933,4.265,7.143,8.543,8.012c6.081,1.235,12.011-2.694,13.246-8.774C795.34,73.444,794.097,69.705,791.573,67.132z"/>
	</g>
	<g opacity="0.15" clip-path="url(#SVGID_1_)">
		<circle fill="#F2F2F2" cx="1153.447" cy="426.861" r="3.057"/>
		<circle fill="#F2F2F2" cx="1145.721" cy="432.468" r="2.446"/>
		<path fill="#F2F2F2" d="M1163.763,412.701c1.91-1.407,3.33-3.491,3.84-5.999c1.09-5.367-2.378-10.601-7.745-11.691
			c-2.762-0.561-5.485,0.092-7.63,1.583c-0.177-2.343-1.86-4.384-4.276-4.875c-2.915-0.592-5.758,1.291-6.35,4.207
			c-0.069,0.342-0.099,0.682-0.102,1.019c-0.998-1.176-2.379-2.041-4.007-2.372c-3.858-0.783-7.621,1.709-8.405,5.567
			c-0.614,3.022,0.787,5.978,3.275,7.497c-0.871,0.931-1.51,2.101-1.782,3.443c-0.783,3.858,1.709,7.621,5.567,8.405
			c2.539,0.516,5.03-0.393,6.664-2.17c0.987,1.702,2.664,2.995,4.744,3.417c2.832,0.575,5.608-0.619,7.197-2.819
			c0.527,1.886,2.045,3.424,4.096,3.841c2.915,0.592,5.758-1.291,6.35-4.207C1165.569,415.727,1164.973,413.935,1163.763,412.701z"
			/>
	</g>
	<g opacity="0.15" clip-path="url(#SVGID_1_)">
		<circle fill="#F2F2F2" cx="601.853" cy="521.714" r="6.017"/>
		<circle fill="#F2F2F2" cx="586.649" cy="532.749" r="4.813"/>
		<path fill="#F2F2F2" d="M622.154,493.848c3.758-2.769,6.554-6.87,7.556-11.805c2.145-10.562-4.679-20.863-15.241-23.008
			c-5.437-1.104-10.795,0.181-15.016,3.116c-0.348-4.61-3.661-8.628-8.415-9.594c-5.737-1.165-11.332,2.541-12.497,8.278
			c-0.137,0.673-0.194,1.343-0.201,2.005c-1.965-2.313-4.681-4.016-7.886-4.667c-7.593-1.542-14.998,3.363-16.54,10.956
			c-1.208,5.947,1.55,11.765,6.446,14.755c-1.715,1.832-2.971,4.135-3.507,6.775c-1.542,7.593,3.363,14.998,10.956,16.54
			c4.996,1.014,9.899-0.774,13.115-4.27c1.942,3.35,5.242,5.894,9.335,6.725c5.574,1.132,11.037-1.219,14.163-5.548
			c1.037,3.711,4.024,6.739,8.06,7.559c5.737,1.165,11.332-2.542,12.497-8.278C625.708,499.803,624.535,496.276,622.154,493.848z"/>
	</g>
	<g opacity="0.15" clip-path="url(#SVGID_1_)">
		<circle fill="#F2F2F2" cx="247.18" cy="209.495" r="3.223"/>
		<circle fill="#F2F2F2" cx="239.036" cy="215.406" r="2.578"/>
		<path fill="#F2F2F2" d="M258.055,194.568c2.013-1.483,3.511-3.68,4.048-6.324c1.149-5.658-2.506-11.176-8.164-12.325
			c-2.912-0.591-5.782,0.097-8.044,1.669c-0.187-2.469-1.961-4.622-4.508-5.139c-3.073-0.624-6.07,1.361-6.694,4.435
			c-0.073,0.36-0.104,0.719-0.108,1.074c-1.052-1.239-2.508-2.151-4.224-2.5c-4.067-0.826-8.034,1.802-8.86,5.869
			c-0.647,3.186,0.83,6.302,3.453,7.904c-0.919,0.981-1.591,2.215-1.878,3.629c-0.826,4.067,1.802,8.034,5.869,8.86
			c2.676,0.543,5.302-0.415,7.025-2.288c1.04,1.795,2.808,3.157,5.001,3.602c2.986,0.606,5.912-0.653,7.587-2.972
			c0.556,1.988,2.156,3.61,4.318,4.049c3.073,0.624,6.07-1.361,6.694-4.435C259.959,197.758,259.331,195.869,258.055,194.568z"/>
	</g>
	<path opacity="0.15" clip-path="url(#SVGID_1_)" fill="#F2F2F2" d="M1574.825,459.954c-7.37-2.66-15.225-1.044-20.904,3.546
		c-0.696-0.322-1.402-0.63-2.137-0.895l-17.644-6.37c-0.835-0.301-1.675-0.554-2.518-0.768c-1.433-7.167-6.447-13.436-13.823-16.099
		c-11.215-4.049-23.589,1.761-27.638,12.976c-3.404,9.43,0.179,19.66,8.067,25.09l-7.225,20.013
		c-4.985,13.808,2.168,29.042,15.976,34.027l17.644,6.37c13.808,4.985,29.042-2.168,34.027-15.976l7.253-20.092
		c9.42,0.701,18.534-4.864,21.899-14.184C1591.85,476.377,1586.041,464.003,1574.825,459.954z M1508.527,502.122
		c-3.739-1.35-5.675-5.474-4.325-9.213c1.349-3.738,5.474-5.675,9.213-4.326c3.738,1.35,5.675,5.475,4.326,9.213
		C1516.39,501.535,1512.265,503.471,1508.527,502.122z M1531.885,518.409c-2.226,1.045-7.964,2.745-11.904,2.155
		c-3.348-2.226-6.738-7.036-7.783-9.261c-0.646-1.376,0.715-3.449,2.425-3.546c1.503-0.086,4.885-0.474,9.545,1.208
		c4.66,1.682,7.014,4.141,8.115,5.167C1533.537,515.299,1533.26,517.763,1531.885,518.409z M1542.182,514.271
		c-3.739-1.35-5.675-5.474-4.326-9.213c1.349-3.738,5.474-5.675,9.213-4.326c3.738,1.35,5.675,5.475,4.325,9.213
		C1550.045,513.684,1545.92,515.621,1542.182,514.271z"/>
	<path opacity="0.15" clip-path="url(#SVGID_1_)" fill="#F2F2F2" d="M349.386,89.063c-2.646,0.33-4.779,2.032-5.794,4.299
		c-0.261,0.01-0.522,0.025-0.786,0.058l-6.334,0.789c-0.3,0.037-0.594,0.09-0.882,0.155c-1.54-1.953-4.028-3.081-6.676-2.751
		c-4.026,0.502-6.883,4.172-6.382,8.199c0.422,3.385,3.086,5.936,6.316,6.366l0.895,7.185c0.618,4.957,5.137,8.475,10.094,7.857
		l6.334-0.789c4.957-0.618,8.475-5.137,7.857-10.094l-0.899-7.213c2.965-1.24,4.872-4.334,4.455-7.68
		C357.083,91.419,353.412,88.562,349.386,89.063z M335.78,112.078c-1.342,0.167-2.566-0.785-2.733-2.127
		c-0.167-1.342,0.785-2.566,2.127-2.733c1.342-0.167,2.566,0.785,2.733,2.127C338.075,110.688,337.122,111.911,335.78,112.078z
		 M345.377,113.416c-0.514,0.66-1.992,2.061-3.278,2.489c-1.359-0.159-3.129-1.095-3.789-1.609c-0.408-0.318-0.315-1.156,0.189-1.45
		c0.443-0.258,1.408-0.897,3.081-1.106c1.673-0.208,2.766,0.174,3.259,0.316C345.398,112.218,345.694,113.008,345.377,113.416z
		 M347.862,110.573c-1.342,0.167-2.566-0.785-2.733-2.127c-0.167-1.342,0.785-2.566,2.127-2.733
		c1.342-0.167,2.566,0.785,2.733,2.127C350.156,109.182,349.204,110.406,347.862,110.573z"/>
	<path opacity="0.15" clip-path="url(#SVGID_1_)" fill="#F2F2F2" d="M316.519,352.972c-3.973,0.495-7.176,3.05-8.699,6.456
		c-0.392,0.015-0.784,0.038-1.181,0.087l-9.511,1.185c-0.45,0.056-0.891,0.136-1.325,0.233c-2.312-2.932-6.048-4.627-10.024-4.131
		c-6.046,0.753-10.336,6.265-9.583,12.311c0.633,5.083,4.634,8.913,9.484,9.559l1.344,10.788
		c0.927,7.443,7.713,12.725,15.156,11.798l9.511-1.185c7.443-0.927,12.725-7.713,11.798-15.156l-1.349-10.83
		c4.453-1.862,7.315-6.507,6.689-11.531C328.077,356.509,322.565,352.219,316.519,352.972z M296.089,387.531
		c-2.015,0.251-3.852-1.179-4.104-3.194c-0.251-2.015,1.179-3.852,3.194-4.104c2.015-0.251,3.852,1.179,4.104,3.194
		C299.534,385.442,298.104,387.28,296.089,387.531z M310.499,389.54c-0.772,0.991-2.992,3.094-4.922,3.738
		c-2.041-0.239-4.698-1.644-5.689-2.416c-0.613-0.477-0.473-1.736,0.283-2.177c0.665-0.387,2.115-1.347,4.627-1.66
		c2.512-0.313,4.153,0.262,4.893,0.474C310.532,387.74,310.976,388.927,310.499,389.54z M314.231,385.27
		c-2.015,0.251-3.852-1.179-4.104-3.194c-0.251-2.015,1.179-3.852,3.194-4.104c2.015-0.251,3.852,1.179,4.104,3.194
		C317.676,383.182,316.246,385.019,314.231,385.27z"/>
	<path opacity="0.15" clip-path="url(#SVGID_1_)" fill="#F2F2F2" d="M1055.19,474.424c-2.65,0.29-4.809,1.959-5.858,4.212
		c-0.261,0.006-0.523,0.017-0.787,0.046l-6.345,0.694c-0.3,0.033-0.595,0.081-0.885,0.142c-1.51-1.976-3.981-3.142-6.633-2.852
		c-4.033,0.441-6.946,4.068-6.505,8.101c0.371,3.391,2.996,5.981,6.22,6.461l0.787,7.197c0.543,4.966,5.008,8.551,9.974,8.008
		l6.345-0.694c4.966-0.543,8.551-5.008,8.008-9.974l-0.79-7.226c2.984-1.195,4.936-4.26,4.57-7.611
		C1062.85,476.895,1059.223,473.983,1055.19,474.424z M1041.238,497.231c-1.344,0.147-2.554-0.824-2.7-2.168
		c-0.147-1.344,0.824-2.553,2.168-2.7c1.344-0.147,2.553,0.824,2.7,2.168C1043.553,495.875,1042.583,497.084,1041.238,497.231z
		 M1050.814,498.714c-0.524,0.652-2.023,2.03-3.315,2.44c-1.356-0.179-3.112-1.142-3.764-1.666
		c-0.403-0.324-0.297-1.161,0.211-1.447c0.447-0.251,1.422-0.876,3.098-1.059c1.676-0.183,2.763,0.216,3.253,0.365
		C1050.853,497.516,1051.137,498.31,1050.814,498.714z M1053.341,495.908c-1.344,0.147-2.553-0.824-2.7-2.168
		c-0.147-1.344,0.824-2.553,2.168-2.7c1.344-0.147,2.553,0.824,2.7,2.168C1055.656,494.552,1054.686,495.761,1053.341,495.908z"/>
	<g opacity="0.15" clip-path="url(#SVGID_1_)">
		<path fill="#F2F2F2" d="M203.387,348.687c5.993-4.4,6.922-13.319,6.922-13.319s-8.787-1.785-14.78,2.615
			c-5.993,4.4-6.922,13.318-6.922,13.318S197.394,353.087,203.387,348.687z"/>
		<path fill="#F2F2F2" d="M157.808,333.841c6.206,5.648,16.281,4.685,16.281,4.685s0.013-10.121-6.193-15.769
			c-6.206-5.648-16.28-4.685-16.28-4.685S151.602,328.193,157.808,333.841z"/>
		<path fill="#F2F2F2" d="M210.618,368.448l-23.774-1.25c-8.489-16.127-5.514-20.653-1.729-26.3
			c3.112-4.646,6.834-10.218,5.292-21.854c1.98-5.092,4.614-14.477,1.578-23.138c-4.448-12.692-19.388-19.008-19.388-19.008
			s-7.728,14.261-3.279,26.953c3.15,8.989,11.544,14.764,16.185,17.378c0.814,8.631-1.955,12.772-4.658,16.808
			c-4.843,7.228-7.479,13.36,0.072,28.849l-25.337-1.333c-1.417-0.075-2.627,1.013-2.702,2.432
			c-0.075,1.419,1.014,2.627,2.432,2.702l55.038,2.895c1.417,0.075,2.627-1.013,2.702-2.432
			C213.124,369.731,212.035,368.523,210.618,368.448z"/>
	</g>
	<g opacity="0.15" clip-path="url(#SVGID_1_)">
		<path fill="#F2F2F2" d="M1449.839,184.848c2.302-1.96,2.418-5.605,2.418-5.605s-3.617-0.467-5.919,1.493
			c-2.302,1.96-2.418,5.605-2.418,5.605S1447.536,186.808,1449.839,184.848z"/>
		<path fill="#F2F2F2" d="M1430.916,180.16c2.682,2.11,6.741,1.424,6.741,1.424s-0.291-4.106-2.973-6.215
			c-2.682-2.11-6.741-1.424-6.741-1.424S1428.234,178.05,1430.916,180.16z"/>
		<path fill="#F2F2F2" d="M1453.35,192.652l-9.68,0.188c-3.915-6.293-2.841-8.216-1.471-10.618c1.127-1.975,2.474-4.345,1.507-9.019
			c0.654-2.123,1.448-6.007-0.037-9.432c-2.176-5.018-8.421-7.143-8.421-7.143s-2.718,6.011-0.542,11.029
			c1.541,3.554,5.114,5.651,7.073,6.576c0.583,3.477-0.419,5.238-1.398,6.954c-1.753,3.074-2.643,5.638,0.873,11.7l-10.317,0.201
			c-0.577,0.011-1.036,0.488-1.025,1.065s0.488,1.036,1.065,1.025l22.41-0.436c0.577-0.011,1.036-0.488,1.025-1.065
			S1453.927,192.641,1453.35,192.652z"/>
	</g>
	<g opacity="0.15" clip-path="url(#SVGID_1_)">
		<path fill="#F2F2F2" d="M717.273,410.429c2.895-0.871,4.465-4.163,4.465-4.163s-3.125-1.88-6.02-1.008
			c-2.895,0.871-4.465,4.163-4.465,4.163S714.378,411.3,717.273,410.429z"/>
		<path fill="#F2F2F2" d="M701.825,398.539c1.61,3.009,5.602,4.011,5.602,4.011s1.382-3.877-0.228-6.886
			c-1.61-3.009-5.602-4.011-5.602-4.011S700.215,395.53,701.825,398.539z"/>
		<path fill="#F2F2F2" d="M717.356,418.986l-8.941-3.714c-1.06-7.336,0.697-8.666,2.915-10.315c1.825-1.357,4.009-2.986,5.001-7.655
			c1.452-1.682,3.738-4.921,3.753-8.653c0.022-5.469-4.845-9.923-4.845-9.923s-4.902,4.414-4.924,9.884
			c-0.016,3.874,2.416,7.229,3.839,8.862c-0.862,3.419-2.487,4.629-4.072,5.808c-2.84,2.111-4.684,4.103-3.897,11.066l-9.529-3.958
			c-0.533-0.221-1.145,0.031-1.366,0.564c-0.222,0.534,0.031,1.145,0.564,1.366l20.7,8.597c0.533,0.221,1.145-0.031,1.366-0.564
			C718.142,419.819,717.889,419.208,717.356,418.986z"/>
	</g>
	<g opacity="0.15" clip-path="url(#SVGID_1_)">
		<path fill="#F2F2F2" d="M958.326,189.386c3.52-3.964,2.833-10.321,2.833-10.321s-6.393,0.071-9.913,4.035
			c-3.52,3.964-2.833,10.321-2.833,10.321S954.806,193.35,958.326,189.386z"/>
		<path fill="#F2F2F2" d="M924.329,185.857c5.172,3.009,12.051,0.83,12.051,0.83s-1.505-7.057-6.677-10.067
			c-5.172-3.009-12.051-0.83-12.051-0.83S919.158,182.847,924.329,185.857z"/>
		<path fill="#F2F2F2" d="M966.324,202.08l-16.761,2.686c-8.332-9.973-6.934-13.574-5.141-18.076
			c1.475-3.704,3.236-8.146,0.419-16.027c0.618-3.846,1.05-10.783-2.362-16.367c-5-8.183-16.361-10.351-16.361-10.351
			s-3.254,11.099,1.747,19.281c3.541,5.795,10.257,8.565,13.884,9.693c1.859,5.895,0.549,9.197-0.732,12.415
			c-2.295,5.764-3.214,10.433,4.367,20.102l-17.863,2.862c-0.999,0.16-1.68,1.099-1.52,2.099c0.16,1,1.1,1.68,2.099,1.52
			l38.803-6.218c0.999-0.16,1.68-1.099,1.52-2.099C968.263,202.6,967.323,201.92,966.324,202.08z"/>
	</g>
	<g opacity="0.15" clip-path="url(#SVGID_1_)">
		<path fill="#F2F2F2" d="M388.192,253.76c1.731-1.731,1.732-4.539,0-6.27c-1.732-1.732-4.539-1.731-6.27,0
			c-0.537,0.537-0.887,1.182-1.091,1.861l-0.028,0.027l-2.016,7.518l7.55-2.025l0.03-0.03
			C387.032,254.634,387.664,254.288,388.192,253.76z"/>
		<g>
			<path fill="#F2F2F2" d="M416.136,242.362L416.136,242.362c5.959-3.992,12.309-8.647,16.509-12.848
				c10.018-10.018,5.494-31.972,5.494-31.972s-21.954-4.524-31.972,5.494c-4.2,4.2-8.855,10.55-12.848,16.51l0,0
				c0,0-10.378-4.048-14.426,0c-4.048,4.048-9.529,20.294-9.529,20.294l2.508,2.508c0,0,12.142-6.56,16.112-2.59l3.97,3.97
				l3.97,3.97c3.97,3.97-2.59,16.112-2.59,16.112l2.508,2.508c0,0,16.245-5.481,20.293-9.529
				C420.184,252.74,416.136,242.362,416.136,242.362z M415.284,220.397c-2.21-2.21-2.21-5.793,0-8.003c2.21-2.21,5.793-2.21,8.003,0
				c2.21,2.21,2.21,5.793,0,8.003C421.077,222.607,417.494,222.607,415.284,220.397z"/>
		</g>
	</g>
	<g opacity="0.15" clip-path="url(#SVGID_1_)">
		<path fill="#F2F2F2" d="M1204.792,522.134c1.731-1.731,1.732-4.539,0-6.27s-4.539-1.731-6.27,0
			c-0.537,0.537-0.887,1.182-1.091,1.861l-0.028,0.027l-2.016,7.518l7.55-2.025l0.03-0.03
			C1203.633,523.008,1204.265,522.662,1204.792,522.134z"/>
		<g>
			<path fill="#F2F2F2" d="M1232.737,510.736L1232.737,510.736c5.959-3.992,12.309-8.647,16.509-12.848
				c10.018-10.018,5.494-31.972,5.494-31.972s-21.954-4.524-31.972,5.494c-4.2,4.2-8.855,10.55-12.848,16.51l0,0
				c0,0-10.378-4.048-14.426,0c-4.048,4.048-9.529,20.293-9.529,20.293l2.508,2.508c0,0,12.142-6.56,16.112-2.59l3.97,3.97
				l3.97,3.97c3.97,3.97-2.59,16.112-2.59,16.112l2.508,2.508c0,0,16.245-5.481,20.293-9.529
				C1236.785,521.114,1232.737,510.736,1232.737,510.736z M1231.885,488.771c-2.21-2.21-2.21-5.793,0-8.003
				c2.21-2.21,5.793-2.21,8.003,0c2.21,2.21,2.21,5.793,0,8.003C1237.677,490.981,1234.095,490.981,1231.885,488.771z"/>
		</g>
	</g>
	<g opacity="0.15" clip-path="url(#SVGID_1_)">
		<path fill="#F2F2F2" d="M937.653,86.946c0.975-0.975,0.975-2.556,0-3.532c-0.975-0.975-2.557-0.975-3.532,0
			c-0.302,0.302-0.5,0.666-0.614,1.048l-0.016,0.015l-1.136,4.234l4.252-1.14l0.017-0.017C937,87.438,937.356,87.243,937.653,86.946
			z"/>
		<g>
			<path fill="#F2F2F2" d="M953.392,80.526L953.392,80.526c3.356-2.249,6.932-4.87,9.298-7.236
				c5.642-5.642,3.094-18.007,3.094-18.007s-12.365-2.548-18.008,3.094c-2.366,2.366-4.987,5.942-7.236,9.299l0,0
				c0,0-5.845-2.28-8.125,0c-2.28,2.28-5.367,11.43-5.367,11.43l1.412,1.412c0,0,6.839-3.695,9.075-1.459l2.236,2.236l2.236,2.236
				c2.236,2.236-1.459,9.075-1.459,9.075l1.413,1.413c0,0,9.15-3.087,11.43-5.367C955.672,86.371,953.392,80.526,953.392,80.526z
				 M952.912,68.155c-1.245-1.245-1.245-3.263,0-4.507c1.245-1.245,3.263-1.245,4.507,0c1.245,1.245,1.245,3.263,0,4.507
				C956.174,69.4,954.156,69.4,952.912,68.155z"/>
		</g>
	</g>
	<g opacity="0.15" clip-path="url(#SVGID_1_)">
		<g>
			<path fill="#F2F2F2" d="M1463.952,330.68c0.061,0.424-0.062,0.82-0.37,1.189c-0.308,0.368-0.698,0.586-1.168,0.654
				c-0.4,0.057-0.718,0.013-0.956-0.132c-0.238-0.147-0.439-0.375-0.604-0.688l-3.634-6.726l-7.878,1.131l-1.877,7.517
				c-0.094,0.35-0.266,0.621-0.514,0.811c-0.249,0.192-0.516,0.308-0.798,0.349c-0.447,0.064-0.875-0.024-1.281-0.267
				c-0.408-0.241-0.644-0.585-0.708-1.034c-0.031-0.212-0.012-0.43,0.05-0.655l5.568-22.251c0.201-0.942,0.642-1.462,1.327-1.56
				c0.281-0.04,0.575,0.032,0.878,0.216c0.303,0.185,0.581,0.489,0.833,0.909l10.899,19.923
				C1463.838,330.216,1463.915,330.421,1463.952,330.68z M1455.553,321.899l-3.531-6.524l-1.873,7.3L1455.553,321.899z"/>
			<path fill="#F2F2F2" d="M1479.313,328.438c0.159,1.107-0.269,1.734-1.281,1.879c-0.471,0.068-0.895-0.039-1.271-0.323
				c-0.377-0.282-0.598-0.647-0.662-1.095c-0.817,1.175-1.79,1.843-2.92,2.005c-0.966,0.139-1.881,0.09-2.744-0.147
				c-0.863-0.237-1.632-0.613-2.306-1.128c-0.676-0.516-1.242-1.161-1.702-1.937c-0.46-0.775-0.759-1.646-0.898-2.612
				c-0.135-0.942-0.093-1.861,0.127-2.757c0.22-0.898,0.578-1.699,1.079-2.408c0.499-0.709,1.128-1.303,1.888-1.785
				s1.624-0.793,2.59-0.931c1.13-0.162,2.251,0.207,3.366,1.103c-0.074-0.517-0.005-0.918,0.206-1.2
				c0.213-0.284,0.6-0.465,1.166-0.546c1.083-0.155,1.697,0.272,1.843,1.285L1479.313,328.438z M1475.308,323.642
				c-0.152-1.061-0.555-1.892-1.205-2.496c-0.652-0.604-1.472-0.834-2.462-0.692c-1.012,0.145-1.776,0.603-2.29,1.374
				c-0.514,0.771-0.695,1.686-0.542,2.747c0.145,1.012,0.574,1.828,1.288,2.447c0.714,0.618,1.577,0.855,2.589,0.709
				c0.99-0.142,1.71-0.606,2.163-1.391C1475.299,325.553,1475.454,324.655,1475.308,323.642z"/>
		</g>
		<g>
			<path fill="#F2F2F2" d="M1459.797,295.116c9.434-1.354,18.868-2.707,28.302-4.062c2.596-0.373,4.566,1.081,4.986,3.697
				c0.141,0.876,0.255,1.756,0.381,2.635c1.814,12.638,3.609,25.279,5.456,37.913c0.404,2.761-1.073,4.392-2.757,5.009
				c-0.249,0.091-0.519,0.136-0.784,0.174c-18.988,2.728-37.977,5.453-56.966,8.177c-2.329,0.334-4.269-1.08-4.763-3.467
				c-0.035-0.169-0.056-0.34-0.081-0.511c-1.93-13.443-3.86-26.887-5.787-40.33c-0.345-2.409,0.656-4.234,2.712-4.957
				c0.274-0.096,0.566-0.15,0.854-0.192C1440.832,297.837,1450.314,296.476,1459.797,295.116z M1437.973,344.168
				c16.326-2.343,34.389-4.935,50.704-7.277c-1.771-12.342-4.048-28.205-5.817-40.535c-16.332,2.344-34.396,4.936-50.704,7.277
				C1433.927,315.975,1436.204,331.841,1437.973,344.168z M1490.42,312.306c-1.974,0.275-3.318,2.051-3.058,4.042
				c0.261,1.997,2.037,3.388,3.991,3.126c2.001-0.267,3.392-2.098,3.11-4.093C1494.187,313.424,1492.361,312.036,1490.42,312.306z"
				/>
		</g>
	</g>
	<g opacity="0.15" clip-path="url(#SVGID_1_)">
		<g>
			<path fill="#F2F2F2" d="M929.684,522.44c-0.013,0.429-0.201,0.798-0.568,1.108c-0.366,0.31-0.787,0.458-1.263,0.444
				c-0.404-0.012-0.71-0.11-0.919-0.294c-0.209-0.186-0.369-0.445-0.477-0.781l-2.43-7.249l-7.955-0.234l-3.135,7.085
				c-0.153,0.328-0.369,0.566-0.645,0.711c-0.278,0.147-0.561,0.215-0.846,0.207c-0.451-0.013-0.858-0.173-1.217-0.482
				c-0.361-0.307-0.534-0.687-0.521-1.14c0.006-0.214,0.061-0.425,0.162-0.637l9.293-20.97c0.359-0.894,0.883-1.33,1.574-1.31
				c0.284,0.008,0.561,0.13,0.828,0.363c0.267,0.234,0.488,0.581,0.665,1.038l7.33,21.494
				C929.651,521.963,929.692,522.178,929.684,522.44z M922.912,512.351l-2.363-7.032l-3.094,6.872L922.912,512.351z"/>
			<path fill="#F2F2F2" d="M945.203,522.859c-0.033,1.118-0.561,1.662-1.584,1.632c-0.476-0.014-0.875-0.191-1.198-0.536
				c-0.323-0.342-0.479-0.739-0.465-1.192c-1.006,1.018-2.079,1.51-3.22,1.476c-0.975-0.029-1.869-0.233-2.679-0.614
				c-0.81-0.381-1.503-0.883-2.079-1.506c-0.578-0.624-1.025-1.357-1.346-2.199c-0.32-0.843-0.466-1.752-0.438-2.727
				c0.028-0.951,0.227-1.85,0.597-2.695c0.37-0.847,0.86-1.575,1.475-2.188c0.612-0.613,1.334-1.09,2.166-1.436
				c0.831-0.345,1.735-0.503,2.711-0.475c1.141,0.034,2.183,0.589,3.127,1.663c0.015-0.523,0.152-0.906,0.409-1.147
				c0.258-0.243,0.671-0.355,1.242-0.338c1.094,0.032,1.626,0.559,1.596,1.581L945.203,522.859z M942.078,517.449
				c0.031-1.071-0.223-1.959-0.76-2.665c-0.539-0.706-1.307-1.074-2.307-1.103c-1.022-0.03-1.853,0.291-2.492,0.962
				s-0.973,1.542-1.004,2.613c-0.03,1.022,0.253,1.899,0.85,2.631c0.597,0.731,1.407,1.112,2.43,1.142
				c1,0.029,1.789-0.305,2.369-1.001C941.742,519.33,942.048,518.471,942.078,517.449z"/>
		</g>
		<g>
			<path fill="#F2F2F2" d="M931.675,486.689c9.526,0.28,19.053,0.561,28.579,0.84c2.621,0.077,4.314,1.846,4.28,4.495
				c-0.011,0.887-0.05,1.774-0.076,2.661c-0.375,12.762-0.769,25.524-1.111,38.287c-0.075,2.789-1.808,4.144-3.573,4.463
				c-0.261,0.047-0.535,0.045-0.802,0.037c-19.175-0.561-38.35-1.125-57.525-1.689c-2.352-0.069-4.022-1.794-4.1-4.23
				c-0.005-0.172,0.003-0.345,0.008-0.517c0.399-13.575,0.797-27.151,1.198-40.726c0.072-2.432,1.371-4.06,3.52-4.419
				c0.286-0.048,0.583-0.051,0.875-0.043C912.525,486.125,922.1,486.407,931.675,486.689z M901.781,531.284
				c16.486,0.485,34.727,1.021,51.201,1.505c0.366-12.463,0.837-28.482,1.204-40.932c-16.493-0.485-34.733-1.021-51.201-1.505
				C902.618,502.815,902.147,518.836,901.781,531.284z M958.906,508.865c-1.992-0.067-3.62,1.453-3.704,3.459
				c-0.084,2.012,1.427,3.686,3.397,3.763c2.017,0.079,3.701-1.487,3.765-3.5C962.426,510.611,960.865,508.931,958.906,508.865z"/>
		</g>
	</g>
	<g opacity="0.15" clip-path="url(#SVGID_1_)">
		<g>
			<path fill="#F2F2F2" d="M635.321,180.812c0.118,0.414,0.049,0.825-0.208,1.233c-0.257,0.408-0.616,0.677-1.075,0.808
				c-0.391,0.111-0.713,0.11-0.969-0.003c-0.256-0.115-0.488-0.314-0.694-0.604l-4.523-6.207l-7.69,2.186l-0.857,7.736
				c-0.047,0.361-0.182,0.654-0.402,0.877c-0.222,0.225-0.472,0.376-0.748,0.455c-0.436,0.124-0.874,0.094-1.311-0.093
				c-0.438-0.185-0.72-0.496-0.844-0.934c-0.059-0.207-0.07-0.426-0.038-0.659l2.548-22.902c0.073-0.965,0.443-1.542,1.111-1.732
				c0.274-0.078,0.577-0.046,0.903,0.096c0.327,0.144,0.644,0.408,0.951,0.792l13.533,18.367
				C635.145,180.365,635.249,180.56,635.321,180.812z M625.777,173.2l-4.394-6.02l-0.882,7.519L625.777,173.2z"/>
			<path fill="#F2F2F2" d="M650.313,176.512c0.307,1.081-0.034,1.762-1.023,2.043c-0.46,0.131-0.896,0.082-1.309-0.15
				c-0.413-0.23-0.682-0.563-0.807-1.001c-0.655,1.28-1.534,2.076-2.637,2.389c-0.943,0.268-1.861,0.343-2.752,0.224
				c-0.891-0.12-1.707-0.39-2.448-0.813c-0.742-0.422-1.393-0.989-1.955-1.699s-0.977-1.537-1.245-2.48
				c-0.261-0.919-0.343-1.841-0.245-2.762c0.098-0.923,0.347-1.769,0.75-2.543c0.401-0.773,0.948-1.449,1.639-2.031
				s1.51-1.008,2.453-1.276c1.103-0.314,2.269-0.097,3.499,0.645c-0.144-0.505-0.129-0.913,0.044-1.223
				c0.174-0.311,0.535-0.543,1.088-0.7c1.057-0.301,1.726,0.042,2.007,1.031L650.313,176.512z M645.68,172.277
				c-0.294-1.036-0.807-1.809-1.536-2.323c-0.73-0.513-1.578-0.633-2.544-0.358c-0.988,0.281-1.687,0.84-2.095,1.677
				s-0.465,1.772-0.17,2.807c0.281,0.988,0.817,1.742,1.611,2.263c0.794,0.519,1.685,0.639,2.673,0.358
				c0.967-0.275,1.621-0.834,1.966-1.676C645.928,174.181,645.961,173.265,645.68,172.277z"/>
		</g>
		<g>
			<path fill="#F2F2F2" d="M626.396,145.965c9.21-2.618,18.42-5.235,27.629-7.854c2.534-0.721,4.692,0.461,5.462,3.009
				c0.258,0.853,0.49,1.714,0.734,2.572c3.507,12.338,6.996,24.681,10.536,37.01c0.773,2.694-0.477,4.517-2.07,5.358
				c-0.236,0.125-0.499,0.205-0.757,0.279c-18.537,5.272-37.074,10.542-55.612,15.81c-2.274,0.646-4.396-0.5-5.209-2.81
				c-0.057-0.163-0.102-0.331-0.149-0.498c-3.731-13.124-7.463-26.247-11.191-39.372c-0.668-2.352,0.083-4.304,2.033-5.3
				c0.26-0.133,0.543-0.226,0.825-0.306C607.882,151.227,617.14,148.596,626.396,145.965z M611.274,197.737
				c15.938-4.531,33.572-9.543,49.499-14.07c-3.425-12.049-7.827-27.535-11.249-39.571c-15.944,4.532-33.578,9.545-49.499,14.07
				C603.45,170.215,607.853,185.704,611.274,197.737z M659.198,158.957c-1.928,0.539-3.027,2.489-2.5,4.435
				c0.529,1.953,2.484,3.098,4.394,2.575c1.956-0.536,3.094-2.545,2.545-4.493C663.099,159.563,661.095,158.426,659.198,158.957z"/>
		</g>
	</g>
	<g opacity="0.15" clip-path="url(#SVGID_1_)">
		<g>
			<path fill="#F2F2F2" d="M540.159,378.152c-0.138,0.429-0.436,0.747-0.896,0.953s-0.929,0.233-1.405,0.08
				c-0.405-0.13-0.685-0.318-0.842-0.565c-0.157-0.249-0.243-0.557-0.255-0.928l-0.341-8.03l-7.967-2.555l-5.232,6.243
				c-0.25,0.287-0.538,0.464-0.859,0.531c-0.324,0.067-0.629,0.054-0.915-0.038c-0.452-0.145-0.816-0.425-1.088-0.842
				c-0.275-0.415-0.339-0.85-0.194-1.303c0.069-0.215,0.186-0.412,0.349-0.596l15.5-18.474c0.624-0.799,1.28-1.086,1.972-0.864
				c0.284,0.091,0.529,0.295,0.731,0.608c0.201,0.315,0.324,0.729,0.369,1.242l1.138,23.848
				C540.265,377.661,540.243,377.89,540.159,378.152z M536.259,365.987l-0.337-7.792l-5.129,6.039L536.259,365.987z"/>
			<path fill="#F2F2F2" d="M555.712,383.1c-0.359,1.12-1.052,1.515-2.076,1.187c-0.476-0.153-0.828-0.448-1.054-0.89
				c-0.226-0.44-0.268-0.886-0.122-1.34c-1.313,0.735-2.54,0.919-3.683,0.552c-0.977-0.313-1.82-0.78-2.527-1.401
				s-1.261-1.33-1.661-2.128c-0.402-0.798-0.64-1.669-0.718-2.614c-0.078-0.945,0.04-1.905,0.353-2.882
				c0.305-0.953,0.769-1.803,1.389-2.548c0.621-0.748,1.328-1.34,2.127-1.78c0.797-0.441,1.666-0.713,2.606-0.819
				c0.94-0.106,1.9-0.003,2.877,0.311c1.143,0.366,2.033,1.231,2.674,2.591c0.168-0.523,0.418-0.87,0.747-1.04
				c0.332-0.171,0.781-0.163,1.354,0.02c1.096,0.351,1.479,1.038,1.151,2.062L555.712,383.1z M554.133,376.723
				c0.344-1.073,0.346-2.044,0.009-2.914c-0.338-0.87-1.007-1.466-2.009-1.787c-1.024-0.328-1.956-0.247-2.797,0.246
				c-0.841,0.492-1.432,1.274-1.776,2.347c-0.328,1.024-0.298,1.992,0.092,2.906c0.39,0.912,1.097,1.533,2.121,1.862
				c1.001,0.321,1.896,0.214,2.685-0.32C553.245,378.526,553.804,377.747,554.133,376.723z"/>
		</g>
		<g>
			<path fill="#F2F2F2" d="M552.591,342.619c9.541,3.06,19.082,6.121,28.624,9.179c2.626,0.842,3.82,3.122,3.013,5.788
				c-0.27,0.893-0.567,1.777-0.852,2.666c-4.099,12.782-8.217,25.558-12.283,38.351c-0.888,2.795-3.034,3.659-4.91,3.467
				c-0.278-0.028-0.553-0.111-0.821-0.196c-19.206-6.156-38.411-12.315-57.615-18.475c-2.356-0.756-3.539-2.985-2.908-5.468
				c0.045-0.176,0.103-0.348,0.159-0.52c4.36-13.597,8.719-27.193,13.082-40.789c0.782-2.436,2.568-3.701,4.844-3.438
				c0.303,0.035,0.604,0.118,0.896,0.212C533.411,336.468,543.001,339.544,552.591,342.619z M509.395,378.952
				c16.512,5.295,34.781,11.154,51.281,16.446c4.003-12.482,9.148-28.526,13.147-40.996c-16.518-5.297-34.787-11.156-51.281-16.446
				C518.539,350.439,513.393,366.485,509.395,378.952z M573.633,372.958c-1.993-0.648-4.081,0.413-4.75,2.414
				c-0.671,2.008,0.367,4.139,2.334,4.791c2.014,0.668,4.172-0.423,4.823-2.438C576.68,375.748,575.593,373.596,573.633,372.958z"/>
		</g>
	</g>
	<g opacity="0.15" clip-path="url(#SVGID_1_)">
		<g>
			<path fill="#F2F2F2" d="M56.699,296.899c0.094,0.42,0.001,0.827-0.279,1.219c-0.28,0.392-0.654,0.64-1.12,0.744
				c-0.396,0.088-0.718,0.068-0.967-0.059c-0.249-0.129-0.469-0.342-0.658-0.643l-4.155-6.459l-7.804,1.736l-1.304,7.673
				c-0.068,0.358-0.219,0.642-0.452,0.852c-0.234,0.212-0.493,0.348-0.773,0.41c-0.443,0.098-0.878,0.043-1.304-0.169
				c-0.427-0.21-0.69-0.537-0.789-0.981c-0.047-0.21-0.045-0.429,0-0.66l3.873-22.715c0.129-0.959,0.531-1.513,1.21-1.664
				c0.279-0.062,0.578-0.012,0.896,0.149c0.318,0.162,0.619,0.445,0.904,0.846l12.444,19.122
				C56.549,296.442,56.642,296.642,56.699,296.899z M47.613,288.746l-4.037-6.265l-1.317,7.456L47.613,288.746z"/>
			<path fill="#F2F2F2" d="M71.915,293.477c0.244,1.097-0.136,1.757-1.139,1.98c-0.467,0.104-0.899,0.03-1.298-0.226
				c-0.399-0.254-0.649-0.602-0.747-1.046c-0.729,1.24-1.652,1.983-2.771,2.232c-0.957,0.213-1.877,0.235-2.76,0.063
				c-0.883-0.171-1.681-0.489-2.396-0.954c-0.717-0.465-1.333-1.068-1.853-1.81c-0.52-0.742-0.886-1.591-1.099-2.548
				c-0.208-0.933-0.236-1.858-0.084-2.772c0.151-0.916,0.449-1.746,0.896-2.495c0.445-0.748,1.03-1.391,1.754-1.933
				c0.724-0.541,1.566-0.919,2.523-1.131c1.119-0.249,2.271,0.035,3.456,0.847c-0.114-0.513-0.075-0.919,0.115-1.218
				c0.191-0.301,0.566-0.511,1.126-0.636c1.073-0.239,1.721,0.143,1.944,1.146L71.915,293.477z M67.536,288.979
				c-0.234-1.051-0.701-1.853-1.398-2.408c-0.699-0.555-1.538-0.723-2.519-0.505c-1.003,0.223-1.733,0.74-2.189,1.552
				c-0.456,0.812-0.567,1.742-0.333,2.793c0.223,1.003,0.715,1.787,1.477,2.352c0.762,0.564,1.645,0.735,2.648,0.512
				c0.981-0.218,1.667-0.738,2.06-1.559C67.673,290.894,67.759,289.982,67.536,288.979z"/>
		</g>
		<g>
			<path fill="#F2F2F2" d="M49.813,261.592c9.346-2.079,18.693-4.157,28.038-6.237c2.572-0.572,4.657,0.733,5.278,3.321
				c0.208,0.867,0.39,1.74,0.583,2.61c2.785,12.521,5.552,25.046,8.369,37.559c0.616,2.734-0.738,4.482-2.378,5.228
				c-0.243,0.111-0.51,0.176-0.772,0.234c-18.812,4.187-37.624,8.371-56.436,12.555c-2.307,0.513-4.359-0.754-5.037-3.108
				c-0.048-0.166-0.082-0.337-0.12-0.506c-2.963-13.318-5.926-26.636-8.886-39.955c-0.53-2.386,0.333-4.292,2.337-5.173
				c0.267-0.117,0.556-0.194,0.841-0.258C31.024,265.771,40.418,263.682,49.813,261.592z M31.709,312.4
				c16.175-3.598,34.069-7.578,50.232-11.173c-2.72-12.227-6.215-27.943-8.932-40.158c-16.181,3.599-34.076,7.579-50.232,11.173
				C25.497,284.469,28.993,300.187,31.709,312.4z M81.804,276.466c-1.956,0.426-3.167,2.309-2.753,4.283
				c0.415,1.98,2.3,3.237,4.237,2.826c1.984-0.421,3.237-2.361,2.802-4.338C85.663,277.298,83.729,276.047,81.804,276.466z"/>
		</g>
	</g>
</g>
</svg>
